<?xml version="1.0" standalone="no"?><!DOCTYPE svg PUBLIC "-//W3C//DTD SVG 1.1//EN" "http://www.w3.org/Graphics/SVG/1.1/DTD/svg11.dtd"><svg t="1612714027875" class="icon" viewBox="0 0 1024 1024" version="1.1" xmlns="http://www.w3.org/2000/svg" p-id="3052" xmlns:xlink="http://www.w3.org/1999/xlink" width="200" height="200"><defs><style type="text/css">@font-face { font-family: rbicon; src: url("chrome-extension://dipiagiiohfljcicegpgffpbnjmgjcnf/fonts/rbicon.woff2") format("woff2"); font-weight: normal; font-style: normal; }
</style></defs><path d="M714.28140264 370.33430757c-6.95748806-6.52534595-17.89068356-6.22284645-24.41602949 0.77785578l-230.33174734 245.24065031-125.83978391-123.98157282c-6.78463121-6.69820279-17.76104093-6.61177436-24.45924372 0.17285684-6.69820279 6.78463121-6.61177436 17.76104093 0.17285685 24.41602951l138.45833368 136.38405152c0.04321421 0.04321421 0.12964265 0.08642842 0.17285683 0.12964264 0.04321421 0.04321421 0.08642842 0.12964265 0.12964264 0.17285684 1.08035528 1.03714107 2.41999583 1.64214005 3.67320799 2.33356744 0.60499896 0.34571369 1.16678371 0.90749843 1.81499688 1.16678369 2.03106794 0.77785582 4.19177853 1.20999791 6.35248909 1.20999792 2.247139 0 4.53749221-0.43214211 6.61177437-1.33964056 0.69142738-0.30249949 1.25321213-0.90749843 1.90142529-1.29642634 1.29642635-0.77785582 2.6360669-1.38285477 3.75963641-2.50642426 0.04321421-0.04321421 0.08642842-0.12964265 0.12964263-0.17285685 0.04321421-0.04321421 0.08642842-0.08642842 0.17285685-0.12964262l242.47494074-258.11848534C721.58460439 387.79284901 721.23889069 376.8596535 714.28140264 370.33430757z" p-id="3053"></path></svg>