<?xml version="1.0" standalone="no"?><!DOCTYPE svg PUBLIC "-//W3C//DTD SVG 1.1//EN" "http://www.w3.org/Graphics/SVG/1.1/DTD/svg11.dtd"><svg t="1614495204652" class="icon" viewBox="0 0 1027 1024" version="1.1" xmlns="http://www.w3.org/2000/svg" p-id="15529" xmlns:xlink="http://www.w3.org/1999/xlink" width="200.5859375" height="200"><defs><style type="text/css">@font-face { font-family: rbicon; src: url("chrome-extension://dipiagiiohfljcicegpgffpbnjmgjcnf/fonts/rbicon.woff2") format("woff2"); font-weight: normal; font-style: normal; }
</style></defs><path d="M40.885384 0C21.776578 9.848267 7.584239 24.613001 0.005111 45.990947V0h40.880273z" fill="#FFFFFF" p-id="15530"></path><path d="M40.885384 0h521.22221c23.871954 15.280912 40.670736 49.869947 30.658927 81.760547-24.321693 77.477803-391.942625 1.155012-475.231263 35.7696-11.9232 255.502987-1.701854 533.14541-5.110673 797.162778h797.162778c9.321868-78.827021 5.110673-175.004776 5.110673-275.940568 0-78.658368-23.585756-221.465905 66.428528-209.512041 67.133801 8.918124 40.880274 194.251571 40.880274 275.940569 0 114.668171 8.141302 224.46587-10.221347 306.599496-311.807272 20.391585-681.247603 10.241789-1001.564145 5.110673 0.22487-8.739251-3.79723-13.236643-10.221346-15.326909L0.005111 45.990947C7.584239 24.613001 21.776578 9.848267 40.885384 0z" p-id="15531"></path><path d="M301.499044 684.743303c0.843261-80.375555 82.573144-128.564091 137.97284-183.963786l158.410421-158.410421c111.259352-111.259352 216.840746-249.998792 321.931515-316.815731 27.147895-17.263853 68.26837-6.536551 76.649874 25.548255 18.45464 70.716383-100.813136 146.798972-143.083513 189.074459-108.116288 108.121398-210.319527 215.435311-327.037077 332.14775-49.379323 49.369101-156.473476 198.237896-224.84406 112.419474z" p-id="15532"></path></svg>