<?xml version="1.0" standalone="no"?><!DOCTYPE svg PUBLIC "-//W3C//DTD SVG 1.1//EN" "http://www.w3.org/Graphics/SVG/1.1/DTD/svg11.dtd"><svg t="1614183779664" class="icon" viewBox="0 0 1024 1024" version="1.1" xmlns="http://www.w3.org/2000/svg" p-id="7292" xmlns:xlink="http://www.w3.org/1999/xlink" width="200" height="200"><defs><style type="text/css">@font-face { font-family: rbicon; src: url("chrome-extension://dipiagiiohfljcicegpgffpbnjmgjcnf/fonts/rbicon.woff2") format("woff2"); font-weight: normal; font-style: normal; }
</style></defs><path d="M894.4 350.4c-20.8-49.6-51.2-94.4-89.6-132.8-38.4-38.4-83.2-68.8-132.8-89.6-49.6-20.8-104-32-160-32-86.4 0-169.6 25.6-240 76.8-33.6 24-64 52.8-89.6 86.4-25.6 33.6-46.4 70.4-60.8 108.8-16 44.8-25.6 94.4-25.6 144 0 56 11.2 110.4 32 161.6 20.8 49.6 51.2 94.4 89.6 132.8 38.4 38.4 83.2 68.8 132.8 89.6 51.2 22.4 105.6 32 161.6 32s110.4-11.2 161.6-32c49.6-20.8 94.4-51.2 132.8-89.6 38.4-38.4 68.8-83.2 89.6-132.8 22.4-51.2 32-105.6 32-161.6s-11.2-110.4-33.6-161.6z m-36.8-11.2l-192 179.2v-4.8-12.8l1.6-344c83.2 36.8 150.4 100.8 190.4 182.4zM510.4 641.6c-70.4 0-128-57.6-128-128s57.6-128 128-128 128 57.6 128 128-57.6 128-128 128z m128-496v276.8c-12.8-19.2-30.4-35.2-51.2-46.4l-222.4-224c46.4-19.2 96-28.8 147.2-28.8 44.8 1.6 86.4 9.6 126.4 22.4zM336 168l190.4 192c-4.8 0-11.2-1.6-17.6-1.6H155.2c38.4-84.8 102.4-150.4 180.8-190.4zM124.8 512c0-43.2 6.4-84.8 20.8-126.4h275.2c-11.2 8-20.8 17.6-30.4 27.2L147.2 641.6c-14.4-40-22.4-83.2-22.4-129.6z m33.6 158.4l198.4-185.6c-1.6 9.6-3.2 19.2-3.2 28.8 0 11.2 1.6 22.4 3.2 32l-1.6 320c-86.4-36.8-156.8-107.2-196.8-195.2z m227.2 208V608c14.4 19.2 32 33.6 52.8 44.8l219.2 219.2c-44.8 19.2-94.4 28.8-145.6 28.8-44.8-1.6-86.4-9.6-126.4-22.4z m300.8-20.8L496 668.8h14.4c22.4 0 44.8-4.8 64-14.4l296 1.6c-35.2 88-100.8 160-184 201.6z m195.2-228.8l-264-1.6c17.6-17.6 32-38.4 40-60.8l212.8-200c19.2 44.8 28.8 94.4 28.8 145.6 0 40-6.4 80-17.6 116.8z" p-id="7293"></path></svg>