<?xml version="1.0" standalone="no"?><!DOCTYPE svg PUBLIC "-//W3C//DTD SVG 1.1//EN" "http://www.w3.org/Graphics/SVG/1.1/DTD/svg11.dtd"><svg t="1614184112583" class="icon" viewBox="0 0 1024 1024" version="1.1" xmlns="http://www.w3.org/2000/svg" p-id="11911" xmlns:xlink="http://www.w3.org/1999/xlink" width="200" height="200"><defs><style type="text/css">@font-face { font-family: rbicon; src: url("chrome-extension://dipiagiiohfljcicegpgffpbnjmgjcnf/fonts/rbicon.woff2") format("woff2"); font-weight: normal; font-style: normal; }
</style></defs><path d="M934.1 522.6 527.6 116.1c-7.9-7.9-20.8-7.9-28.7 0L194.3 420.7c-0.2 0.2-0.4 0.4-0.5 0.5L92.4 522.6c-7.9 7.9-7.9 20.8 0 28.7 7.9 7.9 20.8 7.9 28.7 0l66.9-66.9 0 337.1c0 44.8 36.5 81.3 81.3 81.3l142.3 0c11.2 0 20.3-9.1 20.3-20.3l0-182.9 182.9 0c11.2 0 20.3-9.1 20.3-20.3 0-11.2-9.1-20.3-20.3-20.3L411.6 659c-11.2 0-20.3 9.1-20.3 20.3l0 182.9L269.4 862.2c-22.4 0-40.6-18.2-40.6-40.6l0-377.7 284.5-284.5 392.1 392.1c4 4 9.2 6 14.4 6 5.2 0 10.4-2 14.4-6C942 543.4 942 530.5 934.1 522.6zM818.1 577.6c-11.2 0-20.3 9.1-20.3 20.3l0 223.6c0 22.4-18.2 40.6-40.6 40.6l-142.3 0c-11.2 0-20.3 9.1-20.3 20.3 0 11.2 9.1 20.3 20.3 20.3l142.3 0c44.8 0 81.3-36.5 81.3-81.3L838.5 597.9C838.4 586.7 829.3 577.6 818.1 577.6z" p-id="11912"></path></svg>