<?xml version="1.0" standalone="no"?><!DOCTYPE svg PUBLIC "-//W3C//DTD SVG 1.1//EN" "http://www.w3.org/Graphics/SVG/1.1/DTD/svg11.dtd"><svg t="1614776687351" class="icon" viewBox="0 0 1028 1024" version="1.1" xmlns="http://www.w3.org/2000/svg" p-id="5062" xmlns:xlink="http://www.w3.org/1999/xlink" width="200.78125" height="200"><defs><style type="text/css">@font-face { font-family: rbicon; src: url("chrome-extension://dipiagiiohfljcicegpgffpbnjmgjcnf/fonts/rbicon.woff2") format("woff2"); font-weight: normal; font-style: normal; }
</style></defs><path d="M478.277632 264.88832C659.364864-28.16 1028.096 88.004608 1028.096 404.086784c0 167.119872-96.451584 299.108352-253.950976 398.988288-53.8112 34.1248-111.1808 62.082048-168.53504 84.415488-20.087808 7.82336-38.781952 14.39744-55.63392 19.781632-10.307584 3.293184-17.855488 5.49376-22.193152 6.651904a45.341696 45.341696 0 0 1-24.087552-0.196608c-4.31104-1.227776-11.83232-3.54816-22.112256-7.001088-16.818176-5.648384-35.478528-12.50304-55.53152-20.606976-57.255936-23.138304-114.526208-51.75296-168.23808-86.290432C100.463616 698.655744 4.096 567.63392 4.096 404.086784 4.096 88.11008 368.360448-26.631168 553.612288 264.40704l-75.334656 0.48128z" p-id="5063"></path></svg>