<?xml version="1.0" standalone="no"?><!DOCTYPE svg PUBLIC "-//W3C//DTD SVG 1.1//EN" "http://www.w3.org/Graphics/SVG/1.1/DTD/svg11.dtd"><svg t="1614610293139" class="icon" viewBox="0 0 1025 1024" version="1.1" xmlns="http://www.w3.org/2000/svg" p-id="20420" xmlns:xlink="http://www.w3.org/1999/xlink" width="200.1953125" height="200"><defs><style type="text/css">@font-face { font-family: rbicon; src: url("chrome-extension://dipiagiiohfljcicegpgffpbnjmgjcnf/fonts/rbicon.woff2") format("woff2"); font-weight: normal; font-style: normal; }
</style></defs><path d="M717.693939 480.477798 111.455384 480.477798 319.978765 273.208041 279.394149 232.611709 0 510.752234 281.901397 791.388291 322.497729 750.803675 111.455384 541.014954 717.693939 541.014954 717.693939 480.477798Z" p-id="20421"></path><path d="M406.431963 56.870013 916.809281 56.870013c29.688631 0 53.89412 25.505978 53.89412 56.870013L970.703402 910.224826c0 31.375751-24.193774 56.905161-53.89412 56.905161L406.431963 967.129987l0 56.870013L916.809281 1024c59.377261 0 107.78824-51.035389 107.78824-113.78689L1024.597522 113.751742c0-62.751502-48.375831-113.751742-107.78824-113.751742L406.431963 0l0 56.870013 0 0Z" p-id="20422"></path></svg>