<?xml version="1.0" standalone="no"?><!DOCTYPE svg PUBLIC "-//W3C//DTD SVG 1.1//EN" "http://www.w3.org/Graphics/SVG/1.1/DTD/svg11.dtd"><svg t="1614515884922" class="icon" viewBox="0 0 1024 1024" version="1.1" xmlns="http://www.w3.org/2000/svg" p-id="16612" xmlns:xlink="http://www.w3.org/1999/xlink" width="200" height="200"><defs><style type="text/css">@font-face { font-family: rbicon; src: url("chrome-extension://dipiagiiohfljcicegpgffpbnjmgjcnf/fonts/rbicon.woff2") format("woff2"); font-weight: normal; font-style: normal; }
</style></defs><path d="M912.3 136.9c-0.1-9.1-3.9-17.8-10.5-24.1-6.4-6.2-14.9-9.6-23.7-9.6h-0.7l-228.2 4.5c-9.1 0.1-17.8 3.9-24 10.5-9.5 9.9-12.2 24.5-6.8 37.2 5.4 12.6 17.8 20.9 31.5 20.9h0.7l147.2-2.9L627 350.9c-57.8-45.1-129.4-68.9-202.7-67.6-176.4 3.7-316.6 149.4-313.4 325.8 3.6 173.9 145.5 313.1 319.5 313.4l6.3-0.1C613.1 918.7 753.2 773 750 596.6c-1.4-72.5-27.4-142.3-73.8-198l169.1-175.7 2.8 143.6c0.4 18.7 15.6 33.6 34.3 33.6h0.8c9.1-0.2 17.8-4 24.1-10.5 6.3-6.6 9.7-15.4 9.6-24.5l-4.6-228.2zM681.4 598c1.5 66.5-23.8 130.9-70.1 178.8-46 48.1-109.4 75.8-175.9 77l-5 0.1c-64.8 0.1-127.2-25.1-173.8-70.2-48.1-46-75.9-109.4-77-175.9-2.5-138.5 107.5-252.9 246-255.8l5-0.1c65 0 126.6 24.8 173.8 70.2 48.2 46 75.9 109.4 77 175.9z" p-id="16613"></path></svg>