<?xml version="1.0" standalone="no"?><!DOCTYPE svg PUBLIC "-//W3C//DTD SVG 1.1//EN" "http://www.w3.org/Graphics/SVG/1.1/DTD/svg11.dtd"><svg t="1614515908695" class="icon" viewBox="0 0 1024 1024" version="1.1" xmlns="http://www.w3.org/2000/svg" p-id="17375" xmlns:xlink="http://www.w3.org/1999/xlink" width="200" height="200"><defs><style type="text/css">@font-face { font-family: rbicon; src: url("chrome-extension://dipiagiiohfljcicegpgffpbnjmgjcnf/fonts/rbicon.woff2") format("woff2"); font-weight: normal; font-style: normal; }
</style></defs><path d="M850.133 171.821c-142.746-142.747-374.263-142.747-517.04 0C199.087 305.887 190.91 518.09 308.586 661.685l-53.035 53.002L126.3 585.467c-14.282-14.282-37.433-14.282-51.714 0-14.282 14.28-14.282 37.37 0 51.714l129.22 129.221-77.538 77.54c-14.281 14.248-14.281 37.432 0 51.712 14.25 14.281 37.4 14.281 51.713 0l77.539-77.54 129.252 129.254c14.283 14.28 37.433 14.28 51.715 0 14.28-14.282 14.28-37.433 0-51.746l-129.254-129.22 53.035-53.036C503.834 831.012 716.13 822.864 850.132 688.83c142.779-142.745 142.779-374.23 0.001-517.008zM798.42 637.15c-114.09 114.153-299.24 114.217-413.457 0.157l-0.284-0.314c-114.027-114.28-114.027-299.304 0.127-413.458 114.216-114.216 299.46-114.216 413.614 0 114.248 114.217 114.248 299.398 0 413.615z" p-id="17376"></path></svg>