<?xml version="1.0" encoding="UTF-8"?>
<svg width="1024px" height="1025px" viewBox="0 0 1024 1025" version="1.1" xmlns="http://www.w3.org/2000/svg" xmlns:xlink="http://www.w3.org/1999/xlink">
    <!-- Generator: Sketch 64 (93537) - https://sketch.com -->
    <title>面性打领带男士</title>
    <desc>Created with Sketch.</desc>
    <g id="面性打领带男士" stroke="none" stroke-width="1" fill="none" fill-rule="evenodd" transform="translate(0.000000, 1.000000)">
        <g id="man" transform="translate(228.000000, 109.000000)">
            <polygon id="Fill-1" fill="#F6CDAE" points="225 737 342 737 342 607 225 607"></polygon>
            <path d="M114,404.490147 C114,440.109991 88.4817639,469 56.9925487,469 C25.5182361,469 0,440.109991 0,404.490147 C0,368.870302 25.5182361,340 56.9925487,340 C88.4817639,340 114,368.870302 114,404.490147 L114,404.490147 Z" id="Fill-3" fill="#FDCC9B"></path>
            <path d="M568,404.490147 C568,440.109991 542.466861,469 510.992549,469 C479.518236,469 454,440.109991 454,404.490147 C454,368.870302 479.518236,340 510.992549,340 C542.466861,340 568,368.870302 568,404.490147 L568,404.490147 Z" id="Fill-4" fill="#FDCC9B"></path>
            <path d="M510.769493,280.552803 C510.769493,184.957475 440.630246,115 283.992556,115 C127.349895,115 57.2305315,184.957475 57.2305315,280.552803 C57.2305315,376.167963 40.8613933,628 283.992556,628 C527.138632,628 510.769493,376.167963 510.769493,280.552803 L510.769493,280.552803 Z" id="Fill-5" fill="#FFDDC3"></path>
            <path d="M198,388 C198,402.912384 187.033404,415 173.5124,415 C159.986436,415 149,402.912384 149,388 C149,373.087616 159.986436,361 173.5124,361 C187.033404,361 198,373.087616 198,388 L198,388 Z" id="Fill-6" fill="#3B2519"></path>
            <path d="M170,376.00237 C170,379.870979 166.852015,383 163.00237,383 C159.129021,383 156,379.870979 156,376.00237 C156,372.147985 159.129021,369 163.00237,369 C166.852015,369 170,372.147985 170,376.00237 L170,376.00237 Z" id="Fill-7" fill="#FFFFFF"></path>
            <path d="M134.385742,322.2101 C145.94893,328.029341 164.51936,302.435639 207.023361,324.701213 C214.778373,328.766711 219.403648,290 173.844193,290 C134.385742,290 127.398308,318.707594 134.385742,322.2101 L134.385742,322.2101 Z" id="Fill-8" fill="#C6692A"></path>
            <path d="M422,388 C422,402.912384 411.028962,415 397.502481,415 C383.971038,415 373,402.912384 373,388 C373,373.087616 383.971038,361 397.502481,361 C411.028962,361 422,373.087616 422,388 L422,388 Z" id="Fill-9" fill="#3B2519"></path>
            <path d="M394,376.00237 C394,379.870979 390.870979,383 386.99763,383 C383.129021,383 380,379.870979 380,376.00237 C380,372.147985 383.129021,369 386.99763,369 C390.870979,369 394,372.147985 394,376.00237 L394,376.00237 Z" id="Fill-10" fill="#FFFFFF"></path>
            <path d="M432.615678,322.2101 C421.045562,328.029341 402.47196,302.435639 359.965653,324.701213 C352.224175,328.766711 347.603063,290 393.165347,290 C432.615678,290 439.599352,318.707594 432.615678,322.2101 L432.615678,322.2101 Z" id="Fill-11" fill="#C6692A"></path>
            <path d="M321.615678,517.2101 C310.045562,523.029341 291.47196,497.435639 248.965653,519.701213 C241.224175,523.766711 236.603063,485 282.165347,485 C321.615678,485 328.599352,513.707594 321.615678,517.2101 L321.615678,517.2101 Z" id="Fill-11备份" fill="#F26D6D" transform="translate(284.000000, 502.500000) scale(1, -1) translate(-284.000000, -502.500000) "></path>
            <path d="M0,805 C0,745.491614 149.591922,658 284,658 L288.036419,658.026132 C421.377648,659.747034 567.980319,746.086698 568,805 L568,805 L0,805 Z" id="形状结合" fill="#7D9CD8"></path>
            <path d="M225,663.805976 C225,663.805976 242.120859,685 283.502488,685 C324.899043,685 342,663.805976 342,663.805976 C342,663.805976 281.303296,641.74253 225,663.805976 L225,663.805976 Z" id="Fill-17" fill="#F6CDAE"></path>
            <path d="M202,806 L189.957489,671.20376 C189.957489,671.20376 164.335549,667.660294 133.562447,690.127164 L108,806 L202,806 Z" id="Fill-18" fill="#FFFFFF"></path>
            <path d="M243.43,805 L251.38,749.782251 L228,725.42235 L284,685 L340,725.42235 L316.637914,749.782251 L324.568622,805 L243.43,805 Z" id="形状结合" fill="#FFCB3D"></path>
            <path d="M366,806 L378.061706,671.20376 C378.061706,671.20376 403.662465,667.660294 434.433943,690.127164 L460,806 L366,806 Z" id="Fill-20" fill="#FFFFFF"></path>
            <path d="M342.237998,649.315177 L284,684.838924 L345.393361,746 L391,675.006989 C391,675.006989 361.185038,645.659777 342.237998,649.315177 L342.237998,649.315177 Z" id="Fill-22" fill="#32C5FF"></path>
            <path d="M225.759744,649.315177 L284,684.838924 L222.604527,746 L177,675.006989 C177,675.006989 206.833395,645.659777 225.759744,649.315177 L225.759744,649.315177 Z" id="Fill-23" fill="#32C5FF"></path>
            <path d="M535.109737,113.607049 C529.619628,102.808804 514.093303,101.376637 505.900372,96.7282874 C497.732283,92.0650711 497.732283,72.2426853 482.533874,64.0907291 C467.355339,55.9437285 465.010243,68.758901 454.372847,66.4149038 C443.755325,64.0907291 433.470688,43.1087337 419.439858,38.4603842 C405.409029,33.7971679 392.580558,43.1087337 382.057436,40.7845589 C371.539283,38.4603842 364.533805,16.3187792 346.07611,17.4783887 C327.618415,18.6379983 327.136478,31.4531708 323.350538,30.2935612 C319.544726,29.1339516 307.282655,0 284.497463,0 C261.732144,0 249.445232,29.1339516 245.659293,30.2935612 C241.858448,31.4531708 241.371543,18.6379983 222.913848,17.4783887 C204.476026,16.3187792 197.470549,38.4603842 186.952395,40.7845589 C176.434241,43.128556 163.605771,33.7971679 149.569973,38.4603842 C135.539144,43.128556 125.254506,64.0907291 114.61711,66.4347262 C103.984683,68.758901 101.654492,55.9437285 86.4560832,64.0907291 C71.2825164,72.2625077 71.2825164,92.0650711 63.0895852,96.7282874 C54.9214962,101.396459 39.3951713,102.808804 33.8802207,113.626871 C14.0263985,152.652194 49.5605667,428 64.8931231,428 C80.2058058,428 71.2825164,287.850776 94.6490143,234.226267 C118.015512,180.626536 207.968828,227.238876 284.497463,227.238876 C361.021129,227.238876 450.994319,180.626536 474.360817,234.226267 C497.732283,287.850776 488.804025,428 504.116708,428 C519.449264,428 554.983433,152.652194 535.109737,113.607049 L535.109737,113.607049 Z" id="Fill-24" fill="#C6692A"></path>
        </g>
    </g>
</svg>