<?xml version="1.0" encoding="UTF-8"?>
<svg width="1024px" height="1024px" viewBox="0 0 1024 1024" version="1.1" xmlns="http://www.w3.org/2000/svg" xmlns:xlink="http://www.w3.org/1999/xlink">
    <!-- Generator: Sketch 64 (93537) - https://sketch.com -->
    <title>面性短发女孩</title>
    <desc>Created with Sketch.</desc>
    <g id="面性短发女孩" stroke="none" stroke-width="1" fill="none" fill-rule="evenodd">
        <g id="user-3" transform="translate(198.425000, 129.775000)">
            <path d="M157.549249,594.465343 C157.549249,594.465343 213.233798,565.383798 231.575,545.225 C224.46985,554.147747 89.1415236,724.34088 141.025644,776.225 L0.575,776.225 L0.575,734.915987 C0.575,734.915987 2.06212446,644.531867 157.549249,594.465343 L157.549249,594.465343 Z" id="Shape" fill="#F6CDAE"></path>
            <path d="M470.600751,594.465343 C627.079292,644.036159 627.575,734.915987 627.575,734.915987 L627.575,776.225 L487.124356,776.225 C539.008476,724.34088 403.68015,554.147747 396.575,545.225 C414.916202,565.383798 470.600751,594.465343 470.600751,594.465343 L470.600751,594.465343 Z" id="Shape" fill="#F6CDAE"></path>
            <path d="M396.381896,544.555 C403.474917,553.465 538.572223,723.415 486.776675,775.225 L140.373325,775.225 C88.5777766,723.415 223.675083,553.465 230.768104,544.555 C230.933058,544.39 231.098012,544.225 231.098012,544.225 C231.098012,544.225 265.078531,585.475 313.575,585.475 C362.071469,585.475 396.051988,544.225 396.051988,544.225 C396.051988,544.225 396.216942,544.39 396.381896,544.555 L396.381896,544.555 Z" id="Shape" fill="#9341DF"></path>
            <path d="M231.575,544.851761 L231.575,492.225 C255.665,504.802465 283.385,511.753169 314.075,511.753169 C344.765,511.753169 372.485,504.802465 396.575,492.225 L396.575,544.851761 C396.575,544.851761 362.585,586.225 314.075,586.225 C265.565,586.225 231.575,544.851761 231.575,544.851761 L231.575,544.851761 Z" id="Shape" fill="#F6CDAE"></path>
            <path d="M495.575,222.825 L495.575,313.465 C495.575,368.1786 477.59,417.6186 445.91,453.3802 C431.885,469.0362 415.385,482.0554 396.575,491.7786 C372.485,504.3034 344.765,511.225 314.075,511.225 C283.385,511.225 255.665,504.3034 231.575,491.7786 C212.765,482.0554 196.265,469.0362 182.24,453.3802 C150.56,417.6186 132.575,368.1786 132.575,313.465 L132.575,222.825 C132.575,222.825 309.95,185.745 396.575,99.225 L495.575,222.825 L495.575,222.825 Z" id="Shape" fill="#FFDDC3"></path>
            <path d="M247.575,318.717419 C247.575,330.043972 238.622677,339.225 227.585122,339.225 C216.543519,339.225 207.575,330.043972 207.575,318.717419 C207.575,307.406028 216.543519,298.225 227.585122,298.225 C238.622677,298.225 247.575,307.406028 247.575,318.717419 L247.575,318.717419 Z" id="Fill-8" fill="#3B2519"></path>
            <path d="M223.575,307.723137 C223.575,310.766483 220.876727,313.225 217.577032,313.225 C214.257018,313.225 211.575,310.766483 211.575,307.723137 C211.575,304.683517 214.257018,302.225 217.577032,302.225 C220.876727,302.225 223.575,304.683517 223.575,307.723137 L223.575,307.723137 Z" id="Fill-9" fill="#FFFFFF"></path>
            <path d="M195.42395,265.074697 C204.385421,269.564171 218.777504,249.818943 251.718105,266.996561 C257.728239,270.117667 261.312827,240.225 226.004249,240.225 C195.42395,240.225 190.008689,262.357182 195.42395,265.074697 L195.42395,265.074697 Z" id="Fill-10" fill="#431C4C"></path>
            <path d="M422.575,318.717419 C422.575,330.043972 413.619051,339.225 402.577025,339.225 C391.530949,339.225 382.575,330.043972 382.575,318.717419 C382.575,307.406028 391.530949,298.225 402.577025,298.225 C413.619051,298.225 422.575,307.406028 422.575,318.717419 L422.575,318.717419 Z" id="Fill-11" fill="#3B2519"></path>
            <path d="M400.575,307.723137 C400.575,310.766483 397.880377,313.225 394.581087,313.225 C391.269623,313.225 388.575,310.766483 388.575,307.723137 C388.575,304.683517 391.269623,302.225 394.581087,302.225 C397.880377,302.225 400.575,304.683517 400.575,307.723137 L400.575,307.723137 Z" id="Fill-12" fill="#FFFFFF"></path>
            <path d="M431.72715,265.074697 C422.760311,269.564171 408.365769,249.818943 375.423381,266.996561 C369.423736,270.117667 365.842374,240.225 401.153144,240.225 C431.72715,240.225 437.139498,262.357182 431.72715,265.074697 L431.72715,265.074697 Z" id="Fill-13" fill="#431C4C"></path>
            <path d="M342.72715,435.074697 C333.760311,439.564171 319.365769,419.818943 286.423381,436.996561 C280.423736,440.117667 276.842374,410.225 312.153144,410.225 C342.72715,410.225 348.139498,432.357182 342.72715,435.074697 L342.72715,435.074697 Z" id="Fill-13备份" fill="#F7945E" transform="translate(313.575000, 423.725000) scale(1, -1) translate(-313.575000, -423.725000) "></path>
            <path d="M445.469116,453.81 C477.163322,418.005 495.156387,368.505 495.156387,313.725 L495.156387,222.975 L396.111994,99.225 C309.44815,185.85 131.993613,222.975 131.993613,222.975 L131.993613,313.725 C131.993613,368.505 149.986678,418.005 181.680884,453.81 L181.51581,453.975 L32.9492208,495.225 C32.9492208,495.225 -46.1212193,0.225 313.575,0.225 C673.271219,0.225 594.200779,495.225 594.200779,495.225 L445.63419,453.975 L445.469116,453.81 L445.469116,453.81 Z" id="Shape" fill="#431C4C"></path>
        </g>
    </g>
</svg>