<?xml version="1.0" encoding="UTF-8"?>
<svg width="1024px" height="1024px" viewBox="0 0 1024 1024" version="1.1" xmlns="http://www.w3.org/2000/svg" xmlns:xlink="http://www.w3.org/1999/xlink">
    <!-- Generator: Sketch 64 (93537) - https://sketch.com -->
    <title>面性戴帽子男士</title>
    <desc>Created with Sketch.</desc>
    <g id="面性戴帽子男士" stroke="none" stroke-width="1" fill="none" fill-rule="evenodd">
        <g id="user-23" transform="translate(198.000000, 124.000000)">
            <path d="M626.87779,733.554848 L626.87779,774.763625 L495.103082,774.763625 L495.103082,602.181266 C626.383634,652.785645 626.87779,733.554848 626.87779,733.554848 L626.87779,733.554848 Z" id="Shape" fill="#6236FF"></path>
            <polygon id="Shape" fill="#254D8D" points="544.412327 165.199332 544.412327 223.010172 494.951268 223.010172 132.23683 223.010172 82.7757705 223.010172 82.7757705 165.199332 156.96736 165.199332 470.220738 165.199332"></polygon>
            <path d="M494.706522,263.817823 C522.210401,263.817823 544.412327,273.999209 544.412327,296.661003 C544.412327,317.680639 518.233936,341.984592 492.552604,345.433126 C494.043778,334.923308 494.706522,324.085059 494.706522,313.082593 L494.706522,263.817823 L494.706522,263.817823 Z" id="Shape" fill="#FDCC9B"></path>
            <path d="M495.103082,602.462426 L495.103082,774.763625 L132.085016,774.763625 L132.085016,602.626993 C139.840402,599.500228 148.090812,596.538029 156.836248,593.740398 C156.836248,593.740398 213.104048,564.447548 231.089943,544.370427 C231.089943,544.370427 265.081635,585.512069 313.594049,585.512069 C362.106463,585.512069 396.098155,544.370427 396.098155,544.370427 C414.08405,564.447548 470.35185,593.740398 470.35185,593.740398 C479.097285,596.538029 487.347696,599.335661 495.103082,602.462426 L495.103082,602.462426 Z" id="Shape" fill="#32C5FF"></path>
            <path d="M492.957975,346.032124 C484.047532,410.42514 449.065791,464.442812 396.098155,491.781023 C372.006956,504.297313 344.285576,511.21421 313.594049,511.21421 C282.902521,511.21421 255.181142,504.297313 231.089943,491.781023 C178.122307,464.442812 143.140566,410.42514 134.230123,346.032124 C132.745049,335.49209 132.085016,324.622681 132.085016,313.588584 L132.085016,264.182177 L132.085016,223.010172 L495.103082,223.010172 L495.103082,264.182177 L495.103082,313.588584 C495.103082,324.622681 494.443049,335.49209 492.957975,346.032124 L492.957975,346.032124 Z" id="Shape" fill="#FFDDC3"></path>
            <path d="M256,326.993343 C256,336.938609 248.390525,345 239.008604,345 C229.623241,345 222,336.938609 222,326.993343 C222,317.061391 229.623241,309 239.008604,309 C248.390525,309 256,317.061391 256,326.993343 L256,326.993343 Z" id="Fill-8" fill="#3B2519"></path>
            <path d="M236,317.998307 C236,320.764985 233.751439,323 231.001693,323 C228.235015,323 226,320.764985 226,317.998307 C226,315.235015 228.235015,313 231.001693,313 C233.751439,313 236,315.235015 236,317.998307 L236,317.998307 Z" id="Fill-9" fill="#FFFFFF"></path>
            <path d="M211.610376,281.08862 C219.415528,285.079263 231.950568,267.52795 260.640769,282.796943 C265.875402,285.57126 268.997462,259 238.24483,259 C211.610376,259 206.893858,278.673051 211.610376,281.08862 L211.610376,281.08862 Z" id="Fill-10" fill="#74482B"></path>
            <path d="M408,326.993343 C408,336.938609 400.387443,345 391.001722,345 C381.612557,345 374,336.938609 374,326.993343 C374,317.061391 381.612557,309 391.001722,309 C400.387443,309 408,317.061391 408,326.993343 L408,326.993343 Z" id="Fill-11" fill="#3B2519"></path>
            <path d="M389,317.998307 C389,320.764985 386.754481,323 384.005073,323 C381.245519,323 379,320.764985 379,317.998307 C379,315.235015 381.245519,313 384.005073,313 C386.754481,313 389,315.235015 389,317.998307 L389,317.998307 Z" id="Fill-12" fill="#FFFFFF"></path>
            <path d="M416.390583,281.08862 C408.580754,285.079263 396.043573,267.52795 367.351816,282.796943 C362.126318,285.57126 359.007068,259 389.761609,259 C416.390583,259 421.104563,278.673051 416.390583,281.08862 L416.390583,281.08862 Z" id="Fill-13" fill="#74482B"></path>
            <path d="M339.390583,428.08862 C331.580754,432.079263 319.043573,414.52795 290.351816,429.796943 C285.126318,432.57126 282.007068,406 312.761609,406 C339.390583,406 344.104563,425.673051 339.390583,428.08862 L339.390583,428.08862 Z" id="Fill-13备份" fill="#F7945E" transform="translate(314.000000, 418.000000) scale(1, -1) translate(-314.000000, -418.000000) "></path>
            <rect id="Rectangle-path" fill="#567ABE" x="157.589798" y="107.388492" width="312.858661" height="57.8108395"></rect>
            <path d="M470.448459,49.7084467 L470.448459,107.388492 L157.589798,107.388492 L157.589798,49.7084467 C157.589798,49.7084467 173.068069,0.268407469 223.454779,0.268407469 L314.019129,0.268407469 L404.583478,0.268407469 C454.970188,0.268407469 470.448459,49.7084467 470.448459,49.7084467 L470.448459,49.7084467 Z" id="Shape" fill="#7D9CD8"></path>
            <path d="M396.484591,491.660543 L396.484591,544.017191 C396.484591,544.017191 362.50882,585.178078 314.019129,585.178078 C265.529437,585.178078 231.553666,544.017191 231.553666,544.017191 L231.553666,491.660543 C255.633581,504.173453 283.341977,511.088482 314.019129,511.088482 C344.696281,511.088482 372.404676,504.173453 396.484591,491.660543 L396.484591,491.660543 Z" id="Shape" fill="#F6CDAE"></path>
            <path d="M132.481576,313.082593 C132.481576,324.085059 133.14432,334.923308 134.635494,345.433126 C108.954161,341.984592 82.7757705,317.680639 82.7757705,296.661003 C82.7757705,273.999209 104.977697,263.817823 132.481576,263.817823 L132.481576,313.082593 L132.481576,313.082593 Z" id="Shape" fill="#FDCC9B"></path>
            <path d="M132.085016,602.181266 L132.085016,774.763625 L0.310308183,774.763625 L0.310308183,733.515452 C0.310308183,733.515452 1.62805526,653.164009 132.085016,602.181266 L132.085016,602.181266 Z" id="Shape" fill="#6236FF"></path>
            <rect id="Rectangle-path" fill="#FFFFFF" x="297.01594" y="712.701989" width="33.1562168" height="24.6546227"></rect>
            <rect id="Rectangle-path" fill="#FFFFFF" x="297.01594" y="663.392743" width="33.1562168" height="24.6546227"></rect>
        </g>
    </g>
</svg>