<?xml version="1.0" encoding="UTF-8"?>
<svg width="1024px" height="1024px" viewBox="0 0 1024 1024" version="1.1" xmlns="http://www.w3.org/2000/svg" xmlns:xlink="http://www.w3.org/1999/xlink">
    <!-- Generator: Sketch 64 (93537) - https://sketch.com -->
    <title>面性大叔</title>
    <desc>Created with Sketch.</desc>
    <g id="面性大叔" stroke="none" stroke-width="1" fill="none" fill-rule="evenodd">
        <g id="boy-1" transform="translate(227.000000, 112.000000)">
            <polygon id="Fill-1" fill="#F6CDAE" points="226 731 343 731 343 600 226 600"></polygon>
            <path d="M114,397.510006 C114,433.667087 88.4817639,463 56.9925487,463 C25.5182361,463 0,433.667087 0,397.510006 C0,361.337916 25.5182361,332 56.9925487,332 C88.4817639,332 114,361.337916 114,397.510006 L114,397.510006 Z" id="Fill-3" fill="#F6CDAE"></path>
            <path d="M570,397.510006 C570,433.667087 544.482284,463 513.002484,463 C481.522685,463 456,433.667087 456,397.510006 C456,361.337916 481.522685,332 513.002484,332 C544.482284,332 570,361.337916 570,397.510006 L570,397.510006 Z" id="Fill-4" fill="#F6CDAE"></path>
            <path d="M511.768986,271.517571 C511.768986,175.362276 441.475247,105 284.49254,105 C127.504851,105 57.2310393,175.362276 57.2310393,271.517571 C57.2310393,367.692813 40.8258457,621 284.49254,621 C528.174179,621 511.768986,367.692813 511.768986,271.517571 L511.768986,271.517571 Z" id="Fill-5" fill="#FFDDC3"></path>
            <path d="M347.946652,545.2101 C328.277456,551.029341 296.702332,525.455568 224.44161,547.701213 C211.281098,551.766711 203.425208,513 280.88109,513 C347.946652,513 359.818899,541.707594 347.946652,545.2101 L347.946652,545.2101 Z" id="Fill-11备份" fill="#F7945E" transform="translate(284.000000, 530.500000) scale(1, -1) translate(-284.000000, -530.500000) "></path>
            <path d="M198,398.997505 C198,413.913502 187.028962,426 173.502481,426 C159.971038,426 149,413.913502 149,398.997505 C149,384.086498 159.971038,372 173.502481,372 C187.028962,372 198,384.086498 198,398.997505 L198,398.997505 Z" id="Fill-6" fill="#3B2519"></path>
            <path d="M171,386.50254 C171,390.647477 167.627159,394 163.50254,394 C159.352523,394 156,390.647477 156,386.50254 C156,382.352523 159.352523,379 163.50254,379 C167.627159,379 171,382.352523 171,386.50254 L171,386.50254 Z" id="Fill-7" fill="#FFFFFF"></path>
            <path d="M134.421881,332.213671 C146.115236,338.029959 164.918872,312.449247 207.971676,334.703521 C215.809032,338.752016 220.492391,300 174.360804,300 C134.421881,300 127.331657,328.693024 134.421881,332.213671 L134.421881,332.213671 Z" id="Fill-8" fill="#B1622E"></path>
            <path d="M423,398.997505 C423,413.913502 412.028962,426 398.502481,426 C384.971038,426 374,413.913502 374,398.997505 C374,384.086498 384.971038,372 398.502481,372 C412.028962,372 423,384.086498 423,398.997505 L423,398.997505 Z" id="Fill-9" fill="#3B2519"></path>
            <path d="M396,386.50254 C396,390.647477 392.652012,394 388.507609,394 C384.368279,394 381,390.647477 381,386.50254 C381,382.352523 384.368279,379 388.507609,379 C392.652012,379 396,382.352523 396,386.50254 L396,386.50254 Z" id="Fill-10" fill="#FFFFFF"></path>
            <path d="M435.585874,332.213671 C423.871132,338.029959 405.085419,312.449247 362.027723,334.703521 C354.189478,338.752016 349.510602,300 395.642414,300 C435.585874,300 442.656844,328.693024 435.585874,332.213671 L435.585874,332.213671 Z" id="Fill-11" fill="#B1622E"></path>
            <path d="M0,801 C0,742.132903 144.979705,656.033702 278.000909,653.078186 L278,653 C279.179417,653 280.359973,653.006418 281.541562,653.01918 L285,653 L285,653 L284.999621,653.074521 C421.328082,655.961666 570,742.108279 570,801 L570,801 L0,801 Z" id="形状结合" fill="#0091FF"></path>
            <path d="M285.465232,653 C256.812911,653 227.457984,656.947719 199,663.724391 C199.194337,663.975744 230.552435,704 285.465232,704 C336.306908,704 370.096716,669.712505 375,664.434094 C345.610193,657.213858 315.163986,653 285.465232,653 L285.465232,653 Z" id="Fill-17" fill="#32C5FF"></path>
            <path d="M226,657.737903 C226,657.737903 243.120859,681 284.502488,681 C325.899043,681 343,657.737903 343,657.737903 C343,657.737903 282.303296,635.827622 226,657.737903 L226,657.737903 Z" id="Fill-18" fill="#F6CDAE"></path>
            <path d="M169,672 C163.947582,673.587338 158.950964,675.249787 154,676.987346 L154,801 L169,801 L169,672 Z" id="Fill-19" fill="#FFFFFF"></path>
            <path d="M112,801 L147,801 L147,680 C134.888636,684.511172 123.180486,689.490391 112,694.783301 L112,801 Z" id="Fill-20" fill="#FFFFFF"></path>
            <path d="M401,672 C406.059262,673.587338 411.057569,675.249787 416,676.987346 L416,801 L401,801 L401,672 Z" id="Fill-21" fill="#FFFFFF"></path>
            <path d="M458,801 L423,801 L423,680 C435.107732,684.511172 446.807561,689.490391 458,694.783301 L458,801 Z" id="Fill-22" fill="#FFFFFF"></path>
            <path d="M28.5823544,215.150973 C41.4880997,65.0942736 163.543712,0 284.995459,0 C406.462179,0 528.522782,65.0942736 541.423536,215.150973 C554.329282,365.182718 515.617036,484.241906 494.736279,469.813665 C473.875484,455.405387 505.770541,259.423862 440.737762,271.68612 C338.040768,291.065179 165.29542,205.67355 165.29542,205.67355 C165.29542,205.67355 165.784501,256.908527 125.255669,282.366312 C46.4787205,331.864511 96.1304066,455.405387 75.2696118,469.813665 C54.393845,484.241906 15.6566465,365.182718 28.5823544,215.150973 L28.5823544,215.150973 Z" id="Fill-23" fill="#B1622E"></path>
            <path d="M286,585 C314.027581,585.21912 326.818685,594.463306 343.622946,600.374638 C360.630931,606.355881 394.636926,589.694203 390.682857,600.374638 C386.728787,611.035119 350.070124,635 285,635 L286,634.996 L286,635 L285.5,634.998 L285,635 L285,634.996 L284.056277,634.992848 C220.195087,634.522033 184.231673,610.928514 180.317144,600.374638 C176.363074,589.694203 210.36907,606.355881 227.372068,600.374638 C244.181458,594.463235 256.972725,585.218899 285.0002,585.003822 C285.167594,585 285.334649,585.00032 285.501169,585.000957 L286,585 L286,585 Z" id="形状结合" fill="#B1622E"></path>
        </g>
    </g>
</svg>