<?xml version="1.0" encoding="UTF-8"?>
<svg width="1024px" height="1024px" viewBox="0 0 1024 1024" version="1.1" xmlns="http://www.w3.org/2000/svg" xmlns:xlink="http://www.w3.org/1999/xlink">
    <!-- Generator: Sketch 64 (93537) - https://sketch.com -->
    <title>面性妇女</title>
    <desc>Created with Sketch.</desc>
    <g id="面性妇女" stroke="none" stroke-width="1" fill="none" fill-rule="evenodd">
        <g id="user-18" transform="translate(199.000000, 122.000000)">
            <path d="M577,651.319872 C554.352536,668.450584 494.675642,719.019129 494.675642,777 L130.993738,777 C130.993738,719.348565 71.812774,668.94474 49,651.814028 C60.7370069,641.601488 75.1189731,631.718385 92.8071384,622.164718 C110.495304,631.22423 200.0933,678.168969 312.83469,678.168969 C425.57608,678.168969 517.323106,630.894793 533.523482,622 C551.211647,631.388948 565.428303,641.436769 577,651.319872 L577,651.319872 Z" id="Shape" fill="#FFD04D"></path>
            <path d="M627,736.715596 L627,778 L495,778 C495,719.87156 554.565,669.174312 577.17,652 L577.335,652 C626.835,694.605505 627,736.715596 627,736.715596 L627,736.715596 Z" id="Shape" fill="#FA6400"></path>
            <path d="M132,779 L0,779 L0,737.552632 C0,737.552632 0.66,695.442105 50.16,653 C72.93,670.242105 132,720.973684 132,779 L132,779 Z" id="Shape" fill="#FA6400"></path>
            <path d="M415.830458,561.625 C439.266317,578.41625 470.459115,594.875 470.459115,594.875 C495.380345,602.855 516.340585,611.8325 534,621.30875 C517.825956,630.28625 426.228057,678 313.669917,678 C201.111778,678 111.659415,630.61875 94,621.475 C111.494374,611.99875 132.289572,602.855 156.88072,594.875 C156.88072,594.875 188.073518,578.41625 211.509377,561.625 C219.596399,555.9725 226.528132,550.15375 231.149287,545 C231.149287,545 265.147787,586.5625 313.669917,586.5625 C362.192048,586.5625 396.190548,545 396.190548,545 C400.811703,550.15375 407.743436,555.9725 415.830458,561.625 L415.830458,561.625 Z" id="Shape" fill="#FA6400"></path>
            <path d="M230,493 C254.09,505.577465 281.81,512.528169 312.5,512.528169 C343.19,512.528169 370.91,505.577465 395,493 L395,545.626761 C395,545.626761 361.01,587 312.5,587 C263.99,587 230,545.626761 230,545.626761 L230,493 L230,493 L230,493 Z" id="Shape" fill="#F6CDAE"></path>
            <path d="M396.727273,493.445714 C372.570909,506.04 344.774545,513 314,513 C283.225455,513 255.429091,506.04 231.272727,493.445714 C169.392727,461.462857 132,393.188571 132,314.142857 L132,223 C132,223 305.727273,214.714286 305.727273,165 C305.727273,165 387.461818,223 496,223 L496,314.142857 C496,393.188571 458.607273,461.462857 396.727273,493.445714 L396.727273,493.445714 Z" id="Shape" fill="#FFDDC3"></path>
            <path d="M247,330.492419 C247,341.818972 238.047677,351 227.010122,351 C215.968519,351 207,341.818972 207,330.492419 C207,319.181028 215.968519,310 227.010122,310 C238.047677,310 247,319.181028 247,330.492419 L247,330.492419 Z" id="Fill-8" fill="#3B2519"></path>
            <path d="M223,319.498137 C223,322.541483 220.301727,325 217.002032,325 C213.682018,325 211,322.541483 211,319.498137 C211,316.458517 213.682018,314 217.002032,314 C220.301727,314 223,316.458517 223,319.498137 L223,319.498137 Z" id="Fill-9" fill="#FFFFFF"></path>
            <path d="M194.84895,276.849697 C203.810421,281.339171 218.202504,261.593943 251.143105,278.771561 C257.153239,281.892667 260.737827,252 225.429249,252 C194.84895,252 189.433689,274.132182 194.84895,276.849697 L194.84895,276.849697 Z" id="Fill-10" fill="#66320F"></path>
            <path d="M422,330.492419 C422,341.818972 413.044051,351 402.002025,351 C390.955949,351 382,341.818972 382,330.492419 C382,319.181028 390.955949,310 402.002025,310 C413.044051,310 422,319.181028 422,330.492419 L422,330.492419 Z" id="Fill-11" fill="#3B2519"></path>
            <path d="M400,319.498137 C400,322.541483 397.305377,325 394.006087,325 C390.694623,325 388,322.541483 388,319.498137 C388,316.458517 390.694623,314 394.006087,314 C397.305377,314 400,316.458517 400,319.498137 L400,319.498137 Z" id="Fill-12" fill="#FFFFFF"></path>
            <path d="M431.15215,276.849697 C422.185311,281.339171 407.790769,261.593943 374.848381,278.771561 C368.848736,281.892667 365.267374,252 400.578144,252 C431.15215,252 436.564498,274.132182 431.15215,276.849697 L431.15215,276.849697 Z" id="Fill-13" fill="#66320F"></path>
            <path d="M342.15215,446.849697 C333.185311,451.339171 318.790769,431.593943 285.848381,448.771561 C279.848736,451.892667 276.267374,422 311.578144,422 C342.15215,422 347.564498,444.132182 342.15215,446.849697 L342.15215,446.849697 Z" id="Fill-13备份" fill="#F7945E" transform="translate(313.000000, 435.500000) scale(1, -1) translate(-313.000000, -435.500000) "></path>
            <path d="M562.331804,248.384684 C562.331804,248.384684 572.596186,428.543349 512.665444,488.485846 C512.665444,488.485846 517.300971,512.827137 554.054078,563 L416.478258,563 C408.366086,557.370042 401.412795,551.574496 396.777268,546.441299 L396.777268,493.784631 C458.694665,461.826338 496.10999,393.604491 496.10999,314.619488 L496.10999,223.546633 C387.506214,223.546633 305.722273,165.59118 305.722273,165.59118 C305.722273,215.267283 131.89001,223.546633 131.89001,223.546633 L131.89001,314.619488 C131.89001,393.604491 169.305335,461.826338 231.222732,493.784631 L231.222732,546.441299 C226.587205,551.574496 219.633914,557.370042 211.521742,563 L73.9459224,563 C110.699029,512.827137 115.334556,488.485846 115.334556,488.485846 C55.4038143,428.543349 65.6681956,248.384684 65.6681956,248.384684 C65.6681956,-4.1355032 314,0.00417200827 314,0.00417200827 C314,0.00417200827 562.331804,-4.1355032 562.331804,248.384684 L562.331804,248.384684 Z" id="Shape" fill="#B1622E"></path>
        </g>
    </g>
</svg>