<?xml version="1.0" encoding="UTF-8"?>
<svg width="1024px" height="1024px" viewBox="0 0 1024 1024" version="1.1" xmlns="http://www.w3.org/2000/svg" xmlns:xlink="http://www.w3.org/1999/xlink">
    <!-- Generator: Sketch 64 (93537) - https://sketch.com -->
    <title>面性卷发女孩</title>
    <desc>Created with Sketch.</desc>
    <g id="面性卷发女孩" stroke="none" stroke-width="1" fill="none" fill-rule="evenodd">
        <g id="user-20" transform="translate(194.000000, 124.000000)">
            <path d="M633,734.223395 L633,776 L0,776 L0,734.223395 C0,734.223395 1.49921053,642.816183 158.25,592.182938 C158.25,592.182938 162.581053,589.843448 169.410789,586 C184.236316,597.363237 257.031316,650.670185 316.5,650.670185 C375.968684,650.670185 448.763684,597.363237 463.589211,586 C470.418947,589.843448 474.75,592.182938 474.75,592.182938 C632.500263,642.314864 633,734.223395 633,734.223395 L633,734.223395 Z" id="Shape" fill="#FFC59E"></path>
            <path d="M400.238958,542 C413.390713,556.756923 446.519819,576.376923 464,586.103077 C449.183465,597.506154 376.432616,651 317,651 C257.567384,651 184.816535,597.506154 170,586.103077 C187.480181,576.376923 220.609287,556.756923 233.761042,542 C233.761042,542 268.055493,583.923077 317,583.923077 C365.944507,583.923077 400.238958,542 400.238958,542 L400.238958,542 Z" id="Shape" fill="#FA6400"></path>
            <path d="M234.095781,489.700065 L234.095781,534.340049 C218.946408,528.843335 185.81756,548.997955 172,541.169301 C158.015964,533.007513 164.009122,496.695884 151.689852,486.368723 C139.370582,476.041563 104.576967,488.034394 94.2554162,475.874996 C84.1003421,463.54903 101.913341,431.401579 93.9224629,417.409942 C85.9315849,403.584872 49.1402509,403.085171 43.4800456,387.927564 C38.1527936,373.103092 65.95439,348.950862 63.1242873,332.96042 C60.4606613,317.469679 26,304.310878 26,287.987301 C26,271.663725 60.4606613,258.504924 63.1242873,243.014183 C65.95439,227.023741 38.1527936,203.038078 43.4800456,188.047039 C49.1402509,172.889432 85.9315849,172.389731 93.9224629,158.564661 C101.913341,144.573024 84.1003421,112.425573 94.2554162,100.266174 C104.576967,87.9402085 139.537058,99.9330401 151.689852,89.7724467 C164.009122,79.4452862 158.015964,42.9670902 172,34.9718692 C185.81756,26.9766481 214.285063,50.1294757 229.434436,44.6327613 C244.417332,39.3026139 251.40935,2.99098505 267.391106,0.159344268 C282.873432,-2.50572941 301.685291,29.1420205 318,29.1420205 C334.314709,29.1420205 353.126568,-2.50572941 368.775371,0.159344268 C384.757127,2.99098505 391.582668,39.3026139 406.565564,44.6327613 C421.714937,50.2960428 450.348917,26.9766481 464.166477,34.9718692 C477.984036,42.9670902 472.157355,79.4452862 484.310148,89.7724467 C496.629418,100.099607 531.423033,87.9402085 541.744584,100.266174 C552.066135,112.425573 534.086659,144.739591 542.077537,158.564661 C550.068415,172.389731 587.026226,172.889432 592.519954,188.047039 C598.013683,203.038078 570.04561,227.023741 572.875713,243.014183 C575.539339,258.504924 610,271.663725 610,287.987301 C610,304.310878 575.539339,317.469679 572.875713,332.96042 C570.04561,348.950862 598.013683,373.103092 592.519954,387.927564 C587.026226,403.085171 550.068415,403.751439 542.077537,417.409942 C534.086659,431.401579 552.066135,463.54903 541.744584,475.874996 C531.423033,488.200961 496.629418,476.041563 484.310148,486.368723 C472.157355,496.695884 477.984036,533.007513 464,541.169301 C450.348917,548.997955 415.721779,528.843335 400.572406,534.340049 L400.572406,489.700065 C462.834664,457.552614 500.458381,388.926967 500.458381,309.474458 L500.458381,217.86255 C391.249715,217.86255 309.010262,159.564064 309.010262,159.564064 C309.010262,209.534195 134.209806,217.86255 134.209806,217.86255 L134.209806,309.474458 C134.209806,388.926967 171.833523,457.552614 234.095781,489.700065 L234.095781,489.700065 Z" id="Shape" fill="#532B51"></path>
            <path d="M400,534.352113 L400,542.626761 C400,542.626761 365.598,584 316.5,584 C267.402,584 233,542.626761 233,542.626761 L233,534.352113 L233,490 C257.382,502.577465 285.438,509.528169 316.5,509.528169 C347.562,509.528169 375.618,502.577465 400,490 L400,534.352113 L400,534.352113 Z" id="Shape" fill="#F6CDAE"></path>
            <path d="M400.909091,490.333333 C376.553636,503 348.528182,510 317.5,510 C286.471818,510 258.446364,503 234.090909,490.333333 C171.700909,458.166667 134,389.5 134,310 L134,218.333333 C134,218.333333 309.159091,210 309.159091,160 C309.159091,160 391.567273,218.333333 501,218.333333 L501,310 C501,389.5 463.299091,458.166667 400.909091,490.333333 L400.909091,490.333333 Z" id="Shape" fill="#FFDDC3"></path>
            <path d="M244,317.993621 C244,330.700287 234.600061,341 222.989371,341 C211.399939,341 202,330.700287 202,317.993621 C202,305.299713 211.399939,295 222.989371,295 C234.600061,295 244,305.299713 244,317.993621 L244,317.993621 Z" id="Fill-12" fill="#333333"></path>
            <path d="M221,307.002032 C221,310.317982 218.314827,313 215,313 C211.701422,313 209,310.317982 209,307.002032 C209,303.682018 211.701422,301 215,301 C218.314827,301 221,303.682018 221,307.002032 L221,307.002032 Z" id="Fill-13" fill="#FFFFFF"></path>
            <path d="M190.085989,268.087268 C200.20842,272.078406 216.458041,254.535238 253.645841,269.795208 C260.431683,272.582315 264.478922,246 224.600185,246 C190.085989,246 183.976131,265.683667 190.085989,268.087268 L190.085989,268.087268 Z" id="Fill-14" fill="#532B51"></path>
            <path d="M437,317.993621 C437,330.700287 427.600061,341 416.006377,341 C404.399939,341 395,330.700287 395,317.993621 C395,305.299713 404.399939,295 416.006377,295 C427.600061,295 437,305.299713 437,317.993621 L437,317.993621 Z" id="Fill-15" fill="#333333"></path>
            <path d="M413,307.002032 C413,310.317982 410.305377,313 406.993913,313 C403.694623,313 401,310.317982 401,307.002032 C401,303.682018 403.694623,301 406.993913,301 C410.305377,301 413,303.682018 413,307.002032 L413,307.002032 Z" id="Fill-16" fill="#FFFFFF"></path>
            <path d="M447.914011,268.087268 C437.79158,272.078406 421.541959,254.535238 384.354159,269.795208 C377.568317,272.582315 373.521078,246 413.399815,246 C447.914011,246 454.023869,265.683667 447.914011,268.087268 L447.914011,268.087268 Z" id="Fill-17" fill="#532B51"></path>
            <path d="M319,440 C340.539105,440 358,425.437205 358,407.473088 C358,389.508971 280,389.508971 280,407.473088 C280,425.437205 297.460895,440 319,440 Z" id="椭圆形" fill="#F26D6D"></path>
        </g>
    </g>
</svg>