<?xml version="1.0" encoding="UTF-8"?>
<svg width="1024px" height="1024px" viewBox="0 0 1024 1024" version="1.1" xmlns="http://www.w3.org/2000/svg" xmlns:xlink="http://www.w3.org/1999/xlink">
    <!-- Generator: Sketch 64 (93537) - https://sketch.com -->
    <title>面性性感女性</title>
    <desc>Created with Sketch.</desc>
    <g id="面性性感女性" stroke="none" stroke-width="1" fill="none" fill-rule="evenodd">
        <g id="user-29" transform="translate(183.000000, 116.000000)">
            <path d="M541.333333,528.653798 C541.333333,528.653798 606.5,582.345199 608,658.173978 C584.666667,635.871396 548.333333,612.577588 491.333333,594.735523 C491.333333,594.735523 434.5,565.329155 416.333333,545.174229 L416.333333,536.914014 L416.333333,492.639258 C478.666667,460.754826 516.333333,392.690649 516.333333,313.888193 L516.333333,223.025821 C407,223.025821 324.666667,165.204312 324.666667,165.204312 C324.666667,214.765605 149.666667,223.025821 149.666667,223.025821 L149.666667,313.888193 C149.666667,392.690649 187.333333,460.754826 249.666667,492.639258 L249.666667,536.914014 L249.666667,545.174229 C231.5,565.329155 174.666667,594.735523 174.666667,594.735523 C117.833333,612.907997 81.3333333,636.367009 58,659 C59,582.840812 124.666667,528.653798 124.666667,528.653798 C124.666667,528.653798 -105.833333,0 333,0 C771.833333,0 541.333333,528.653798 541.333333,528.653798 L541.333333,528.653798 Z" id="Shape" fill="#D0951F"></path>
            <path d="M622.877193,666.137369 C666.823509,708.501746 667,748.053551 667,748.053551 L667,792 L561.105263,792 C580.872281,737.857974 481.684211,677.739232 481.684211,677.739232 C322.842105,677.739232 167.706316,599.338766 164,598.635623 C164,598.635623 224.183509,567.345751 243.421053,545.899884 L243.421053,537.110594 L243.421053,490 C269.188772,503.359721 298.839298,510.742724 331.666667,510.742724 C364.494035,510.742724 394.144561,503.359721 419.912281,490 L419.912281,537.110594 L419.912281,545.899884 C439.149825,567.345751 499.333333,598.635623 499.333333,598.635623 C559.693333,617.620489 598.168421,642.406286 622.877193,666.137369 L622.877193,666.137369 Z" id="Shape" fill="#F6CDAE"></path>
            <path d="M414.909091,505.602857 C389.823636,518.74 360.958182,526 329,526 C297.041818,526 268.176364,518.74 243.090909,505.602857 C178.830909,472.241429 140,401.024286 140,318.571429 L140,223.5 C140,223.5 320.409091,214.857143 320.409091,163 C320.409091,163 405.287273,223.5 518,223.5 L518,318.571429 C518,401.024286 479.169091,472.241429 414.909091,505.602857 L414.909091,505.602857 Z" id="Shape" fill="#FFDDC3"></path>
            <path d="M254,325.993621 C254,338.700287 244.600061,349 232.989371,349 C221.399939,349 212,338.700287 212,325.993621 C212,313.299713 221.399939,303 232.989371,303 C244.600061,303 254,313.299713 254,325.993621 L254,325.993621 Z" id="Fill-12" fill="#333333"></path>
            <path d="M231,315.002032 C231,318.317982 228.314827,321 225,321 C221.701422,321 219,318.317982 219,315.002032 C219,311.682018 221.701422,309 225,309 C228.314827,309 231,311.682018 231,315.002032 L231,315.002032 Z" id="Fill-13" fill="#FFFFFF"></path>
            <path d="M200.085989,276.087268 C210.20842,280.078406 226.458041,262.535238 263.645841,277.795208 C270.431683,280.582315 274.478922,254 234.600185,254 C200.085989,254 193.976131,273.683667 200.085989,276.087268 L200.085989,276.087268 Z" id="Fill-14" fill="#D0951F"></path>
            <path d="M447,325.993621 C447,338.700287 437.600061,349 426.006377,349 C414.399939,349 405,338.700287 405,325.993621 C405,313.299713 414.399939,303 426.006377,303 C437.600061,303 447,313.299713 447,325.993621 L447,325.993621 Z" id="Fill-15" fill="#333333"></path>
            <path d="M423,315.002032 C423,318.317982 420.305377,321 416.993913,321 C413.694623,321 411,318.317982 411,315.002032 C411,311.682018 413.694623,309 416.993913,309 C420.305377,309 423,311.682018 423,315.002032 L423,315.002032 Z" id="Fill-16" fill="#FFFFFF"></path>
            <path d="M457.914011,276.087268 C447.79158,280.078406 431.541959,262.535238 394.354159,277.795208 C387.568317,280.582315 383.521078,254 423.399815,254 C457.914011,254 464.023869,273.683667 457.914011,276.087268 L457.914011,276.087268 Z" id="Fill-17" fill="#D0951F"></path>
            <path d="M329,448 C350.539105,448 368,433.437205 368,415.473088 C368,397.508971 290,397.508971 290,415.473088 C290,433.437205 307.460895,448 329,448 Z" id="椭圆形" fill="#F26D6D"></path>
            <path d="M507.5,599 L534.5,610.5 L507.810476,694.51391 C535.714022,716.097573 576.750163,755.415792 563.400701,792 L0,792 L0,748.136364 C0,748.136364 0.704250877,709.185455 44.0156798,667.251818 C68.6644605,643.214545 107.222196,618.3 167.259583,599 C170.941106,599.69882 324.396561,677.287387 482.141968,677.950273 L481.5,677.5 L507.5,599 Z" id="形状结合" fill="#E34747"></path>
        </g>
    </g>
</svg>