<?xml version="1.0" encoding="UTF-8"?>
<svg width="1024px" height="1024px" viewBox="0 0 1024 1024" version="1.1" xmlns="http://www.w3.org/2000/svg" xmlns:xlink="http://www.w3.org/1999/xlink">
    <!-- Generator: Sketch 64 (93537) - https://sketch.com -->
    <title>面性潮男</title>
    <desc>Created with Sketch.</desc>
    <g id="面性潮男" stroke="none" stroke-width="1" fill="none" fill-rule="evenodd">
        <g id="user-12" transform="translate(195.540000, 124.545000)">
            <polygon id="Shape" fill="#D0951F" points="499.46 27.0809542 499.46 218.455 449.550909 176.851947 183.369091 176.851947 133.46 218.455 133.46 5.44736641 175.050909 18.7603435 208.323636 0.455 241.596364 18.7603435 274.869091 0.455 308.141818 18.7603435 341.414545 0.455 383.005455 18.7603435 424.596364 0.455 457.869091 18.7603435 499.46 5.44736641"></polygon>
            <path d="M548.839618,623.870512 L549.08748,623.455 C631.129518,672.585194 631.46,731.903753 631.46,731.903753 L631.46,773.455 L573.625733,773.455 C573.625733,773.455 581.19376,732.601814 548.839618,698.662756 C516.485477,664.723698 548.839618,623.870512 548.839618,623.870512 L548.839618,623.870512 Z" id="Shape" fill="#F6CDAE"></path>
            <path d="M498.619744,259.455 C526.198019,259.455 548.46,269.684376 548.46,292.452988 C548.46,313.5717 522.210799,337.990211 496.46,341.455 C497.955208,330.895644 498.619744,320.006308 498.619744,308.951982 L498.619744,259.455 L498.619744,259.455 Z" id="Shape" fill="#F6CDAE"></path>
            <path d="M499.46,258.705 L499.46,308.655 C499.46,319.8105 498.794545,330.7995 497.297273,341.4555 C488.313636,406.557 453.044545,461.169 399.641818,488.808 C382.007273,497.9988 362.459545,504.1926 341.231545,506.90655 C333.212818,507.9222 324.944545,508.455 316.46,508.455 C307.975455,508.455 299.707182,507.9222 291.688455,506.90655 C270.460455,504.1926 250.912727,497.9988 233.278182,488.808 C179.875455,461.169 144.606364,406.557 135.622727,341.4555 C134.125455,330.7995 133.46,319.8105 133.46,308.655 L133.46,258.705 L133.46,217.08 L183.369091,175.455 L449.550909,175.455 L499.46,217.08 L499.46,258.705 L499.46,258.705 Z" id="Shape" fill="#FFDDC3"></path>
            <path d="M250.46,321.947419 C250.46,333.273972 241.507677,342.455 230.470122,342.455 C219.428519,342.455 210.46,333.273972 210.46,321.947419 C210.46,310.636028 219.428519,301.455 230.470122,301.455 C241.507677,301.455 250.46,310.636028 250.46,321.947419 L250.46,321.947419 Z" id="Fill-8" fill="#3B2519"></path>
            <path d="M226.46,310.953137 C226.46,313.996483 223.761727,316.455 220.462032,316.455 C217.142018,316.455 214.46,313.996483 214.46,310.953137 C214.46,307.913517 217.142018,305.455 220.462032,305.455 C223.761727,305.455 226.46,307.913517 226.46,310.953137 L226.46,310.953137 Z" id="Fill-9" fill="#FFFFFF"></path>
            <path d="M198.30895,268.304697 C207.270421,272.794171 221.662504,253.048943 254.603105,270.226561 C260.613239,273.347667 264.197827,243.455 228.889249,243.455 C198.30895,243.455 192.893689,265.587182 198.30895,268.304697 L198.30895,268.304697 Z" id="Fill-10" fill="#D0951F"></path>
            <path d="M425.46,321.947419 C425.46,333.273972 416.504051,342.455 405.462025,342.455 C394.415949,342.455 385.46,333.273972 385.46,321.947419 C385.46,310.636028 394.415949,301.455 405.462025,301.455 C416.504051,301.455 425.46,310.636028 425.46,321.947419 L425.46,321.947419 Z" id="Fill-11" fill="#3B2519"></path>
            <path d="M403.46,310.953137 C403.46,313.996483 400.765377,316.455 397.466087,316.455 C394.154623,316.455 391.46,313.996483 391.46,310.953137 C391.46,307.913517 394.154623,305.455 397.466087,305.455 C400.765377,305.455 403.46,307.913517 403.46,310.953137 L403.46,310.953137 Z" id="Fill-12" fill="#FFFFFF"></path>
            <path d="M434.61215,268.304697 C425.645311,272.794171 411.250769,253.048943 378.308381,270.226561 C372.308736,273.347667 368.727374,243.455 404.038144,243.455 C434.61215,243.455 440.024498,265.587182 434.61215,268.304697 L434.61215,268.304697 Z" id="Fill-13" fill="#D0951F"></path>
            <path d="M345.61215,438.304697 C336.645311,442.794171 322.250769,423.048943 289.308381,440.226561 C283.308736,443.347667 279.727374,413.455 315.038144,413.455 C345.61215,413.455 351.024498,435.587182 345.61215,438.304697 L345.61215,438.304697 Z" id="Fill-13备份" fill="#F7945E" transform="translate(316.460000, 426.955000) scale(1, -1) translate(-316.460000, -426.955000) "></path>
            <path d="M482.46,593.455 C509.438515,602.479931 531.588061,612.734778 549.780534,623.455 L549.529025,623.870512 C549.529025,623.870512 516.698737,664.723698 549.529025,698.662756 C582.359313,732.601814 574.67991,773.455 574.67991,773.455 L482.46,773.455 L482.46,593.455 L482.46,593.455 Z" id="Shape" fill="#F6CDAE"></path>
            <path d="M398.46,488.455 L398.46,541.296317 C398.46,541.296317 364.264,599.455 315.46,599.455 C266.656,599.455 232.46,541.296317 232.46,541.296317 L232.46,488.455 C250.026877,497.612274 269.496441,503.788422 290.637442,506.503948 L290.643333,506.455 C298.676667,507.488898 306.96,508.031271 315.46,508.031271 C323.96,508.031271 332.243333,507.488898 340.276667,506.455 L340.282,506.503 L341.374566,506.360406 C362.094358,503.574566 381.196,497.45439 398.46,488.455 Z" id="形状结合" fill="#F6CDAE"></path>
            <path d="M398.46,541.455 C416.554,561.759286 473.16,591.383571 473.16,591.383571 C475.982,592.215714 478.804,593.214286 481.46,594.212857 L481.46,774.455 L149.46,774.455 L149.46,594.212857 C152.116,593.214286 154.938,592.215714 157.76,591.383571 C157.76,591.383571 214.366,561.759286 232.46,541.455 C232.46,541.455 266.656,599.705 315.46,599.705 C364.264,599.705 398.46,541.455 398.46,541.455 L398.46,541.455 Z" id="Shape" fill="#567DF4"></path>
            <path d="M149.46,593.455 L149.46,773.455 L58.2417441,773.455 C58.2417441,773.455 50.5635523,732.601814 83.3338739,698.662756 C116.087467,664.723698 83.3338739,623.870512 83.3338739,623.870512 L83.0662245,623.405139 C101.065646,612.734778 122.929255,602.513172 149.46,593.455 L149.46,593.455 Z" id="Shape" fill="#F6CDAE"></path>
            <path d="M133.300256,308.951982 C133.300256,320.006308 133.964792,330.895644 135.46,341.455 C109.709201,337.990211 83.46,313.5717 83.46,292.452988 C83.46,269.684376 105.721981,259.455 133.300256,259.455 L133.300256,308.951982 L133.300256,308.951982 Z" id="Shape" fill="#F6CDAE"></path>
            <path d="M0.46,731.917561 C0.46,731.917561 1.47027134,672.751633 83.7825425,623.455 L84.0475317,623.920219 C84.0475317,623.920219 116.475585,664.759829 84.0475317,698.68761 C51.6029162,732.61539 59.2047939,773.455 59.2047939,773.455 L0.46,773.455 L0.46,731.917561 L0.46,731.917561 Z" id="Shape" fill="#FFDDC3"></path>
        </g>
    </g>
</svg>