<?xml version="1.0" encoding="UTF-8"?>
<svg width="1024px" height="1024px" viewBox="0 0 1024 1024" version="1.1" xmlns="http://www.w3.org/2000/svg" xmlns:xlink="http://www.w3.org/1999/xlink">
    <!-- Generator: Sketch 64 (93537) - https://sketch.com -->
    <title>面性黄色短发女</title>
    <desc>Created with Sketch.</desc>
    <g id="面性黄色短发女" stroke="none" stroke-width="1" fill="none" fill-rule="evenodd">
        <g id="user-35" transform="translate(198.000000, 123.000000)">
            <path d="M546.575,148.891667 L546.575,446.225 L453.609286,446.225 C453.775,445.89463 454.106429,445.729444 454.272143,445.399074 C481.615,410.545 496.860714,364.458333 496.860714,314.076852 L496.860714,223.225 L314.575,124.113889 C314.575,168.548704 132.289286,223.225 132.289286,223.225 L132.289286,314.076852 C132.289286,364.458333 147.535,410.545 174.877857,445.399074 C175.043571,445.729444 175.375,445.89463 175.540714,446.225 L82.575,446.225 L82.575,148.891667 C82.575,66.7946296 149.357857,0.225 231.717857,0.225 L397.432143,0.225 C479.792143,0.225 546.575,66.7946296 546.575,148.891667 L546.575,148.891667 Z" id="Shape" fill="#E0B329"></path>
            <polygon id="Shape" fill="#F87884" points="265.812453 777.225 265.812453 777.225 264.322566 774.915 202.575 678.225 423.078371 678.225 423.575 678.555 365.138296 777.225"></polygon>
            <path d="M629.575,735.861364 L629.575,777.225 L364.575,777.225 L423.040625,678.283182 L472.23125,595.225 C629.078125,644.861364 629.575,735.861364 629.575,735.861364 L629.575,735.861364 Z" id="Shape" fill="#DE4444"></path>
            <path d="M265.575,778.225 L0.575,778.225 L0.575,736.788536 C0.575,736.788536 2.065625,648.777486 151.128125,598.225 L265.575,778.225 L265.575,778.225 Z" id="Shape" fill="#DE4444"></path>
            <path d="M158.355526,595.305357 C158.355526,595.305357 214.749652,565.903571 232.775927,545.751786 L232.775927,493.225 C233.106685,493.555357 233.602821,493.720536 233.933578,493.885714 C257.748107,505.94375 285.200966,512.716071 315.465263,512.716071 C345.72956,512.716071 373.182419,505.94375 396.996947,493.885714 C397.327705,493.720536 397.823841,493.555357 398.154598,493.225 L398.154598,545.751786 C416.180873,565.903571 472.575,595.305357 472.575,595.305357 L423.457535,678.225 L422.961399,677.894643 L202.677009,677.894643 L151.575,597.617857 C153.724923,596.791964 156.040224,595.966071 158.355526,595.305357 L158.355526,595.305357 Z" id="Shape" fill="#F6CDAE"></path>
            <path d="M453.391364,447.012234 C438.169545,466.379468 419.307727,482.436064 397.302273,493.692234 C396.971364,494.023298 396.475,494.18883 396.144091,494.354362 C372.318636,506.438191 344.853182,513.225 314.575,513.225 C284.296818,513.225 256.831364,506.438191 233.005909,494.354362 C232.675,494.18883 232.178636,494.023298 231.847727,493.692234 C209.842273,482.436064 190.980455,466.379468 175.758636,447.012234 C175.593182,446.68117 175.262273,446.515638 175.096818,446.184574 C147.796818,411.25734 132.575,365.073936 132.575,314.586702 L132.575,223.544149 C132.575,223.544149 314.575,168.753085 314.575,124.225 L496.575,223.544149 L496.575,314.586702 C496.575,365.073936 481.353182,411.25734 454.053182,446.184574 C453.887727,446.515638 453.556818,446.68117 453.391364,447.012234 L453.391364,447.012234 Z" id="Shape" fill="#FFDDC3"></path>
            <path d="M240,321.49376 C240,333.924193 230.823869,344 219.489624,344 C208.176131,344 199,333.924193 199,321.49376 C199,309.075807 208.176131,299 219.489624,299 C230.823869,299 240,309.075807 240,321.49376 L240,321.49376 Z" id="Fill-12" fill="#333333"></path>
            <path d="M218,311.501863 C218,314.541483 215.538592,317 212.5,317 C209.476303,317 207,314.541483 207,311.501863 C207,308.458517 209.476303,306 212.5,306 C215.538592,306 218,308.458517 218,311.501863 L218,311.501863 Z" id="Fill-13" fill="#FFFFFF"></path>
            <path d="M188.056189,273.087268 C198.034014,277.078406 214.051498,259.535238 250.708044,274.795208 C257.396945,277.582315 261.386366,251 222.077325,251 C188.056189,251 182.033615,270.683667 188.056189,273.087268 L188.056189,273.087268 Z" id="Fill-14" fill="#E0B329"></path>
            <path d="M430,321.49376 C430,333.924193 420.823869,344 409.506225,344 C398.176131,344 389,333.924193 389,321.49376 C389,309.075807 398.176131,299 409.506225,299 C420.823869,299 430,309.075807 430,321.49376 L430,321.49376 Z" id="Fill-15" fill="#333333"></path>
            <path d="M405,311.501863 C405,314.541483 402.529929,317 399.49442,317 C396.470071,317 394,314.541483 394,311.501863 C394,308.458517 396.470071,306 399.49442,306 C402.529929,306 405,308.458517 405,311.501863 L405,311.501863 Z" id="Fill-16" fill="#FFFFFF"></path>
            <path d="M439.943811,273.087268 C429.965986,277.078406 413.948502,259.535238 377.291956,274.795208 C370.603055,277.582315 366.613634,251 405.922675,251 C439.943811,251 445.966385,270.683667 439.943811,273.087268 L439.943811,273.087268 Z" id="Fill-17" fill="#E0B329"></path>
            <path d="M315,441 C335.98682,441 353,426.753788 353,409.180195 C353,391.606602 277,391.606602 277,409.180195 C277,426.753788 294.01318,441 315,441 Z" id="椭圆形" fill="#F26D6D"></path>
        </g>
    </g>
</svg>