<?xml version="1.0" encoding="UTF-8"?>
<svg width="1024px" height="1024px" viewBox="0 0 1024 1024" version="1.1" xmlns="http://www.w3.org/2000/svg" xmlns:xlink="http://www.w3.org/1999/xlink">
    <!-- Generator: Sketch 64 (93537) - https://sketch.com -->
    <title>面性平头男</title>
    <desc>Created with Sketch.</desc>
    <g id="面性平头男" stroke="none" stroke-width="1" fill="none" fill-rule="evenodd">
        <g id="user-27" transform="translate(197.425000, 122.775000)">
            <path d="M629.575,736.796429 L629.575,778.225 L0.575,778.225 L0.575,736.796429 C0.575,736.796429 2.06473684,646.150714 157.825,595.939286 C157.825,595.939286 214.269474,566.442143 232.311842,546.225 C232.311842,546.225 266.410263,587.653571 315.075,587.653571 C363.739737,587.653571 397.838158,546.225 397.838158,546.225 C415.880526,566.442143 472.325,595.939286 472.325,595.939286 C629.078421,645.653571 629.575,736.796429 629.575,736.796429 L629.575,736.796429 Z" id="Shape" fill="#567DF4"></path>
            <path d="M231.575,493.225 C255.811,505.802465 283.699,512.753169 314.575,512.753169 C345.451,512.753169 373.339,505.802465 397.575,493.225 L397.575,545.851761 C397.575,545.851761 363.379,587.225 314.575,587.225 C265.771,587.225 231.575,545.851761 231.575,545.851761 L231.575,493.225 L231.575,493.225 Z" id="Shape" fill="#F6CDAE"></path>
            <path d="M315.075,0.225 C415.868738,0.225 461.383151,46.4980983 481.575,82.3597494 L480.581958,82.8555326 C480.581958,82.8555326 373.002435,59.0579392 373.002435,115.907746 C373.002435,158.214578 315.075,157.223012 315.075,157.223012 C315.075,157.223012 257.147565,158.214578 257.147565,115.907746 C257.147565,59.0579392 149.402535,82.8555326 149.402535,82.8555326 L148.575,82.3597494 C168.766849,46.4980983 214.281262,0.225 315.075,0.225 L315.075,0.225 Z" id="Shape" fill="#66320F"></path>
            <path d="M133.415256,314.721982 C133.415256,325.776308 134.079792,336.665644 135.575,347.225 C109.824201,343.760211 83.575,319.3417 83.575,298.222988 C83.575,275.454376 105.836981,265.225 133.415256,265.225 L133.415256,314.721982 L133.415256,314.721982 Z" id="Shape" fill="#F6CDAE"></path>
            <path d="M496.734744,265.225 C524.313019,265.225 546.575,275.454376 546.575,298.222988 C546.575,319.3417 520.325799,343.760211 494.575,347.225 C496.070208,336.665644 496.734744,325.776308 496.734744,314.721982 L496.734744,265.225 L496.734744,265.225 Z" id="Shape" fill="#F6CDAE"></path>
            <path d="M496.575,265.116981 L496.575,314.738584 C496.575,325.820743 495.913182,336.737495 494.424091,347.323438 C485.489545,411.996928 450.413182,466.249882 397.302273,493.707169 C373.145909,506.277975 345.349545,513.225 314.575,513.225 C283.800455,513.225 256.004091,506.277975 231.847727,493.707169 C178.736818,466.249882 143.660455,411.996928 134.725909,347.323438 C133.236818,336.737495 132.575,325.820743 132.575,314.738584 L132.575,265.116981 L132.575,124.522436 C132.575,124.522436 135.222273,105.666227 148.127727,82.6748835 L148.955,83.1710996 C148.955,83.1710996 256.665909,59.3527297 256.665909,116.252169 C256.665909,158.595937 314.575,157.603505 314.575,157.603505 C314.575,157.603505 372.484091,158.595937 372.484091,116.252169 C372.484091,59.3527297 480.029545,83.1710996 480.029545,83.1710996 L481.022273,82.6748835 C493.927727,105.666227 496.575,124.522436 496.575,124.522436 L496.575,265.116981 L496.575,265.116981 Z" id="Shape" fill="#FFDDC3"></path>
            <path d="M248.575,306.717419 C248.575,318.043972 239.622677,327.225 228.585122,327.225 C217.543519,327.225 208.575,318.043972 208.575,306.717419 C208.575,295.406028 217.543519,286.225 228.585122,286.225 C239.622677,286.225 248.575,295.406028 248.575,306.717419 L248.575,306.717419 Z" id="Fill-8" fill="#3B2519"></path>
            <path d="M224.575,295.723137 C224.575,298.766483 221.876727,301.225 218.577032,301.225 C215.257018,301.225 212.575,298.766483 212.575,295.723137 C212.575,292.683517 215.257018,290.225 218.577032,290.225 C221.876727,290.225 224.575,292.683517 224.575,295.723137 L224.575,295.723137 Z" id="Fill-9" fill="#FFFFFF"></path>
            <path d="M196.42395,253.074697 C205.385421,257.564171 219.777504,237.818943 252.718105,254.996561 C258.728239,258.117667 262.312827,228.225 227.004249,228.225 C196.42395,228.225 191.008689,250.357182 196.42395,253.074697 L196.42395,253.074697 Z" id="Fill-10" fill="#66320F"></path>
            <path d="M423.575,306.717419 C423.575,318.043972 414.619051,327.225 403.577025,327.225 C392.530949,327.225 383.575,318.043972 383.575,306.717419 C383.575,295.406028 392.530949,286.225 403.577025,286.225 C414.619051,286.225 423.575,295.406028 423.575,306.717419 L423.575,306.717419 Z" id="Fill-11" fill="#3B2519"></path>
            <path d="M401.575,295.723137 C401.575,298.766483 398.880377,301.225 395.581087,301.225 C392.269623,301.225 389.575,298.766483 389.575,295.723137 C389.575,292.683517 392.269623,290.225 395.581087,290.225 C398.880377,290.225 401.575,292.683517 401.575,295.723137 L401.575,295.723137 Z" id="Fill-12" fill="#FFFFFF"></path>
            <path d="M432.72715,253.074697 C423.760311,257.564171 409.365769,237.818943 376.423381,254.996561 C370.423736,258.117667 366.842374,228.225 402.153144,228.225 C432.72715,228.225 438.139498,250.357182 432.72715,253.074697 L432.72715,253.074697 Z" id="Fill-13" fill="#66320F"></path>
            <path d="M343.72715,423.074697 C334.760311,427.564171 320.365769,407.818943 287.423381,424.996561 C281.423736,428.117667 277.842374,398.225 313.153144,398.225 C343.72715,398.225 349.139498,420.357182 343.72715,423.074697 L343.72715,423.074697 Z" id="Fill-13备份" fill="#F7945E" transform="translate(314.575000, 411.725000) scale(1, -1) translate(-314.575000, -411.725000) "></path>
        </g>
    </g>
</svg>