<?xml version="1.0" encoding="UTF-8"?>
<svg width="1024px" height="1024px" viewBox="0 0 1024 1024" version="1.1" xmlns="http://www.w3.org/2000/svg" xmlns:xlink="http://www.w3.org/1999/xlink">
    <!-- Generator: Sketch 64 (93537) - https://sketch.com -->
    <title>面性学姐</title>
    <desc>Created with Sketch.</desc>
    <g id="面性学姐" stroke="none" stroke-width="1" fill="none" fill-rule="evenodd">
        <g id="user-9" transform="translate(196.000000, 123.000000)">
            <path d="M133.840256,315.100604 C133.840256,326.289738 134.504792,337.311871 136,348 C110.249201,344.492958 84,319.77666 84,298.400402 C84,275.354125 106.261981,265 133.840256,265 L133.840256,315.100604 L133.840256,315.100604 Z" id="Shape" fill="#F6CDAE"></path>
            <path d="M498.159744,265 C525.738019,265 548,275.354125 548,298.400402 C548,319.77666 521.750799,344.492958 496,348 C497.495208,337.311871 498.159744,326.289738 498.159744,315.100604 L498.159744,265 L498.159744,265 Z" id="Shape" fill="#F6CDAE"></path>
            <path d="M441.533947,577.817143 C458.471316,587.925714 473.25,595.714286 473.25,595.714286 C630.501842,645.428571 631,736.571429 631,736.571429 L631,778 L0,778 L0,736.571429 C0,736.571429 1.49447368,645.925714 157.75,595.714286 C157.75,595.714286 172.528684,587.925714 189.466053,577.817143 C205.573158,568.04 223.672895,555.942857 232.473684,546 C232.473684,546 266.680526,620.571429 315.5,620.571429 C364.319474,620.571429 398.526316,546 398.526316,546 C407.327105,555.942857 425.426842,568.04 441.533947,577.817143 L441.533947,577.817143 Z" id="Shape" fill="#F87884"></path>
            <path d="M482.072857,399 L515,553.531105 C515,553.531105 465.86,554.522748 441.29,577 C425.077143,567.248839 406.858571,555.183844 398,545.267409 L398,492.710306 C436.442857,473.042711 465.358571,439.822656 482.072857,399 L482.072857,399 Z" id="Shape" fill="#431C4C"></path>
            <path d="M234,492.710306 L234,545.267409 C225.141429,555.183844 206.922857,567.248839 190.71,577 C166.14,554.522748 117,553.531105 117,553.531105 L149.927143,399 C166.641429,439.822656 195.557143,473.042711 234,492.710306 L234,492.710306 Z" id="Shape" fill="#431C4C"></path>
            <path d="M233,545.585938 L233,493 C257.236,505.567708 285.124,512.513021 316,512.513021 C346.876,512.513021 374.764,505.567708 399,493 L399,545.585938 C399,545.585938 364.804,620 316,620 C267.196,620 233,545.585938 233,545.585938 L233,545.585938 Z" id="Shape" fill="#F6CDAE"></path>
            <path d="M499,264.869565 L499,314.695652 C499,325.823478 498.334545,336.785217 496.837273,347.414783 C494.341818,366.016522 489.517273,383.787826 482.862727,400.230435 C466.226364,441.253913 437.445455,474.637391 399.181818,494.401739 C374.892727,507.024348 346.943636,514 316,514 C285.056364,514 257.107273,507.024348 232.818182,494.401739 C194.554545,474.637391 165.773636,441.253913 149.137273,400.230435 C142.482727,383.787826 137.658182,366.016522 135.162727,347.414783 C133.665455,336.785217 133,325.823478 133,314.695652 L133,264.869565 L133,223.347826 C133,223.347826 209.527273,196.773913 274.409091,132 C274.409091,132 310.51,206.73913 499,206.73913 L499,223.347826 L499,264.869565 L499,264.869565 L499,264.869565 Z" id="Shape" fill="#FFDDC3"></path>
            <path d="M242,321.49376 C242,333.924193 232.823869,344 221.489624,344 C210.176131,344 201,333.924193 201,321.49376 C201,309.075807 210.176131,299 221.489624,299 C232.823869,299 242,309.075807 242,321.49376 L242,321.49376 Z" id="Fill-12" fill="#333333"></path>
            <path d="M220,311.501863 C220,314.541483 217.538592,317 214.5,317 C211.476303,317 209,314.541483 209,311.501863 C209,308.458517 211.476303,306 214.5,306 C217.538592,306 220,308.458517 220,311.501863 L220,311.501863 Z" id="Fill-13" fill="#FFFFFF"></path>
            <path d="M190.056189,273.087268 C200.034014,277.078406 216.051498,259.535238 252.708044,274.795208 C259.396945,277.582315 263.386366,251 224.077325,251 C190.056189,251 184.033615,270.683667 190.056189,273.087268 L190.056189,273.087268 Z" id="Fill-14" fill="#431C4C"></path>
            <path d="M432,321.49376 C432,333.924193 422.823869,344 411.506225,344 C400.176131,344 391,333.924193 391,321.49376 C391,309.075807 400.176131,299 411.506225,299 C422.823869,299 432,309.075807 432,321.49376 L432,321.49376 Z" id="Fill-15" fill="#333333"></path>
            <path d="M407,311.501863 C407,314.541483 404.529929,317 401.49442,317 C398.470071,317 396,314.541483 396,311.501863 C396,308.458517 398.470071,306 401.49442,306 C404.529929,306 407,308.458517 407,311.501863 L407,311.501863 Z" id="Fill-16" fill="#FFFFFF"></path>
            <path d="M441.943811,273.087268 C431.965986,277.078406 415.948502,259.535238 379.291956,274.795208 C372.603055,277.582315 368.613634,251 407.922675,251 C441.943811,251 447.966385,270.683667 441.943811,273.087268 L441.943811,273.087268 Z" id="Fill-17" fill="#431C4C"></path>
            <path d="M317,441 C337.98682,441 355,426.753788 355,409.180195 C355,391.606602 279,391.606602 279,409.180195 C279,426.753788 296.01318,441 317,441 Z" id="椭圆形" fill="#F26D6D"></path>
            <path d="M499,91.2592593 L499,207.407407 C310.51,207.407407 274.409091,132.740741 274.409091,132.740741 C209.527273,197.451852 133,224 133,224 L133,91.2592593 C133,91.2592593 150.967273,0 316,0 C481.032727,0 499,91.2592593 499,91.2592593 L499,91.2592593 Z" id="Shape" fill="#431C4C"></path>
        </g>
    </g>
</svg>