<?xml version="1.0" encoding="UTF-8"?>
<svg width="1024px" height="1024px" viewBox="0 0 1024 1024" version="1.1" xmlns="http://www.w3.org/2000/svg" xmlns:xlink="http://www.w3.org/1999/xlink">
    <!-- Generator: Sketch 64 (93537) - https://sketch.com -->
    <title>面性蘑菇头女孩</title>
    <desc>Created with Sketch.</desc>
    <g id="面性蘑菇头女孩" stroke="none" stroke-width="1" fill="none" fill-rule="evenodd">
        <g id="user-21" transform="translate(198.425000, 123.775000)">
            <path d="M627.575,733.993267 L627.575,775.225 L528.575,775.225 L528.575,617.225 C627.245,667.362787 627.575,733.993267 627.575,733.993267 L627.575,733.993267 Z" id="Shape" fill="#FFD04D"></path>
            <path d="M99.575,618.225 L99.575,776.225 L0.575,776.225 L0.575,734.907008 C0.575,734.907008 1.73,668.63295 99.575,618.225 L99.575,618.225 Z" id="Shape" fill="#FFD04D"></path>
            <path d="M528.575,617.897819 L528.575,776.225 L99.575,776.225 L99.575,618.228356 C115.91,609.634396 135.05,601.70151 157.325,594.429698 C157.325,594.429698 169.535,588.149497 184.385,579.225 L314.075,652.273658 L443.765,579.225 C458.615,588.149497 470.825,594.429698 470.825,594.429698 C493.1,601.536242 512.24,609.469128 528.575,617.897819 L528.575,617.897819 Z" id="Shape" fill="#F88233"></path>
            <path d="M443.575,579.465 L314.075,652.225 L184.575,579.465 C201.545102,569.258846 222.139885,555.925 231.695865,545.225 L314.075,594.609615 L396.454135,545.225 C406.010115,555.925 426.604898,569.258846 443.575,579.465 L443.575,579.465 Z" id="Shape" fill="#FFD151"></path>
            <path d="M314.075,0.225 C568.485989,0.225 561.556507,206.227983 561.556507,206.227983 C561.556507,383.225746 481.702474,431.018438 454.809483,442.225 C480.877535,407.616499 495.561438,362.625447 495.561438,313.349534 L495.561438,222.708221 L132.588562,222.708221 L132.588562,313.349534 C132.588562,362.625447 147.272465,407.616499 173.340517,442.225 C146.447526,431.018438 66.5934935,383.225746 66.5934935,206.227983 C66.5934935,206.227983 59.6640113,0.225 314.075,0.225 L314.075,0.225 Z" id="Shape" fill="#431C4C"></path>
            <path d="M396.355293,528.205583 C396.355293,528.205583 396.849634,544.215291 396.355293,544.710437 L313.965146,594.225 L231.575,544.710437 L231.575,528.205583 L231.575,492.225 C255.632923,504.768689 283.316012,511.700728 313.965146,511.700728 C344.614281,511.700728 372.29737,504.768689 396.355293,492.225 L396.355293,528.205583 L396.355293,528.205583 Z" id="Shape" fill="#F6CDAE"></path>
            <path d="M454.82,443.195286 C439.31,463.838143 419.675,480.847857 396.575,492.738143 C372.485,505.289 344.765,512.225 314.075,512.225 C283.385,512.225 255.665,505.289 231.575,492.738143 C208.475,480.847857 188.84,463.838143 173.33,443.195286 C147.26,408.515286 132.575,363.431286 132.575,314.053571 L132.575,223.225 L495.575,223.225 L495.575,314.053571 C495.575,363.431286 480.89,408.515286 454.82,443.195286 L454.82,443.195286 Z" id="Shape" fill="#FFDDC3"></path>
            <path d="M244.575,337.717049 C244.575,349.596117 235.619051,359.225 224.577025,359.225 C213.530949,359.225 204.575,349.596117 204.575,337.717049 C204.575,325.853883 213.530949,316.225 224.577025,316.225 C235.619051,316.225 244.575,325.853883 244.575,337.717049 L244.575,337.717049 Z" id="Fill-6" fill="#3B2519"></path>
            <path d="M222.575,329.722799 C222.575,333.31948 219.892982,336.225 216.577032,336.225 C213.257018,336.225 210.575,333.31948 210.575,329.722799 C210.575,326.13052 213.257018,323.225 216.577032,323.225 C219.892982,323.225 222.575,326.13052 222.575,329.722799 L222.575,329.722799 Z" id="Fill-7" fill="#FFFFFF"></path>
            <path d="M189.608184,283.076022 C199.424828,287.562958 215.210596,267.828888 251.353691,284.996799 C257.9332,288.116142 261.864908,258.225 223.137157,258.225 C189.608184,258.225 183.655897,280.360042 189.608184,283.076022 L189.608184,283.076022 Z" id="Fill-8" fill="#431C4C"></path>
            <path d="M427.575,337.717049 C427.575,349.596117 418.619051,359.225 407.577025,359.225 C396.530949,359.225 387.575,349.596117 387.575,337.717049 C387.575,325.853883 396.530949,316.225 407.577025,316.225 C418.619051,316.225 427.575,325.853883 427.575,337.717049 L427.575,337.717049 Z" id="Fill-9" fill="#3B2519"></path>
            <path d="M404.575,329.722799 C404.575,333.31948 401.892982,336.225 398.572968,336.225 C395.257018,336.225 392.575,333.31948 392.575,329.722799 C392.575,326.13052 395.257018,323.225 398.572968,323.225 C401.892982,323.225 404.575,326.13052 404.575,329.722799 L404.575,329.722799 Z" id="Fill-10" fill="#FFFFFF"></path>
            <path d="M439.548326,283.076022 C429.730568,287.562958 413.943006,267.828888 377.795805,284.996799 C371.215549,288.116142 367.287604,258.225 406.015545,258.225 C439.548326,258.225 445.484449,280.360042 439.548326,283.076022 L439.548326,283.076022 Z" id="Fill-11" fill="#431C4C"></path>
            <path d="M348.548326,449.076022 C338.730568,453.562958 322.943006,433.828888 286.795805,450.996799 C280.215549,454.116142 276.287604,424.225 315.015545,424.225 C348.548326,424.225 354.484449,446.360042 348.548326,449.076022 L348.548326,449.076022 Z" id="Fill-11备份" fill="#ED9292" transform="translate(316.575000, 437.725000) scale(1, -1) translate(-316.575000, -437.725000) "></path>
        </g>
    </g>
</svg>