<?xml version="1.0" encoding="UTF-8"?>
<svg width="1024px" height="1024px" viewBox="0 0 1024 1024" version="1.1" xmlns="http://www.w3.org/2000/svg" xmlns:xlink="http://www.w3.org/1999/xlink">
    <!-- Generator: Sketch 64 (93537) - https://sketch.com -->
    <title>面性卷发女</title>
    <desc>Created with Sketch.</desc>
    <g id="面性卷发女" stroke="none" stroke-width="1" fill="none" fill-rule="evenodd">
        <g id="girl-3" transform="translate(144.000000, 111.000000)">
            <path d="M685.510825,438.932822 C685.510825,438.932822 734.879122,474.324623 704.187933,528.107818 C704.187933,528.107818 760.867868,566.790969 717.548378,630.100465 C717.548378,630.100465 759.064527,690.270445 717.548378,729.433584 C717.548378,729.433584 727.50852,776.193274 671.899779,778.392405 C671.899779,778.392405 669.580496,802 621.057361,802 L368,743.265087 L368,429 L685.510825,438.932822 Z" id="Fill-1" fill="#B1622E"></path>
            <path d="M50.3376795,438.932822 C50.3376795,438.932822 1.10697483,474.324623 31.735275,528.107818 C31.735275,528.107818 -24.8119179,566.790969 18.4107393,630.100465 C18.4107393,630.100465 -23.0134242,690.270445 18.4107393,729.433584 C18.4107393,729.433584 8.45776688,776.193274 63.9121421,778.392405 C63.9121421,778.392405 66.249694,802 114.642408,802 L367,743.265087 L367,429 L50.3376795,438.932822 Z" id="Fill-3" fill="#B1622E"></path>
            <path d="M194.633989,547.900034 C194.633989,547.900034 162.53499,596.540842 199.371033,615.501432 C199.371033,615.501432 168.135992,644.072385 190.530186,669.664027 C190.530186,669.664027 130.573438,687.191406 168.671058,740.470516 C206.75395,793.734901 368,769.497937 368,769.497937 L368,515 L194.633989,547.900034 Z" id="Fill-5" fill="#8D4D24"></path>
            <path d="M540.354077,547.900034 C540.354077,547.900034 572.451775,596.540842 535.617224,615.501432 C535.617224,615.501432 566.850999,644.072385 544.477347,669.664027 C544.477347,669.664027 604.41694,687.191406 566.33559,740.470516 C528.234606,793.734901 367,769.497937 367,769.497937 L367,515 L540.354077,547.900034 Z" id="Fill-6" fill="#8D4D24"></path>
            <polygon id="Fill-7" fill="#F6CDAE" points="309 734 424 734 424 605 309 605"></polygon>
            <path d="M199,403.992667 C199,439.337738 173.705608,468 142.492614,468 C111.294392,468 86,439.337738 86,403.992667 C86,368.642707 111.294392,340 142.492614,340 C173.705608,340 199,368.642707 199,403.992667 L199,403.992667 Z" id="Fill-9" fill="#FCBC85"></path>
            <path d="M649,403.992667 C649,439.337738 623.706123,468 592.502462,468 C561.298801,468 536,439.337738 536,403.992667 C536,368.642707 561.298801,340 592.502462,340 C623.706123,340 649,368.642707 649,403.992667 L649,403.992667 Z" id="Fill-10" fill="#FCBC85"></path>
            <path d="M590.772547,281.939228 C590.772547,187.275628 521.562435,118 366.999726,118 C212.432112,118 143.226906,187.275628 143.226906,281.939228 C143.226906,376.622467 127.089325,626 366.999726,626 C606.924843,626 590.772547,376.622467 590.772547,281.939228 L590.772547,281.939228 Z" id="Fill-11" fill="#FFDDC3"></path>
            <path d="M368,556 C389.539105,556 407,541.437205 407,523.473088 C407,505.508971 329,505.508971 329,523.473088 C329,541.437205 346.460895,556 368,556 Z" id="椭圆形" fill="#F26D6D"></path>
            <path d="M283,402.5 C283,417.136229 272.252861,429 259.00243,429 C245.747139,429 235,417.136229 235,402.5 C235,387.863771 245.747139,376 259.00243,376 C272.252861,376 283,387.863771 283,402.5 L283,402.5 Z" id="Fill-12" fill="#3B2519"></path>
            <path d="M255,390.49746 C255,394.627159 251.631721,398 247.512682,398 C243.368279,398 240,394.627159 240,390.49746 C240,386.352523 243.368279,383 247.512682,383 C251.631721,383 255,386.352523 255,390.49746 L255,390.49746 Z" id="Fill-13" fill="#FFFFFF"></path>
            <path d="M220.355921,344.866525 C231.774569,349.334768 250.112868,329.609233 292.085569,346.769294 C299.743643,349.907105 304.311102,320 259.32114,320 C220.355921,320 213.45583,342.140395 220.355921,344.866525 L220.355921,344.866525 Z" id="Fill-14" fill="#B1622E"></path>
            <path d="M503,402.5 C503,417.136229 492.252861,429 479.00243,429 C465.747139,429 455,417.136229 455,402.5 C455,387.863771 465.747139,376 479.00243,376 C492.252861,376 503,387.863771 503,402.5 L503,402.5 Z" id="Fill-15" fill="#3B2519"></path>
            <path d="M477,390.507609 C477,394.652012 473.652012,398 469.507609,398 C465.368279,398 462,394.652012 462,390.507609 C462,386.368279 465.368279,383 469.507609,383 C473.652012,383 477,386.368279 477,390.507609 L477,390.507609 Z" id="Fill-16" fill="#FFFFFF"></path>
            <path d="M514.645618,344.866525 C503.22079,349.334768 484.899982,329.609233 442.907869,346.769294 C435.263602,349.907105 430.680955,320 475.69067,320 C514.645618,320 521.541598,342.140395 514.645618,344.866525 L514.645618,344.866525 Z" id="Fill-17" fill="#B1622E"></path>
            <path d="M115,802 C115,743.466211 234.535015,657.433371 366.999271,657.001631 C367.166858,657 367.333695,657.000136 367.500512,657.000408 L368,657 L368,657 C500.454868,657.43348 620,743.466248 620,802 L620,802 L115,802 Z" id="形状结合" fill="#FFE7A5"></path>
            <path d="M366.968952,657 C338.474313,657 309.288866,660.962888 281,667.740215 C281.191075,667.971876 312.390156,708 366.968952,708 C417.535177,708 451.139842,673.728907 456,668.454914 C426.75576,661.233981 396.502254,657 366.968952,657 L366.968952,657 Z" id="Fill-25" fill="#FFFFFF"></path>
            <path d="M309,661.805976 C309,661.805976 325.828195,683 366.502445,683 C407.191367,683 424,661.805976 424,661.805976 C424,661.805976 364.360408,639.74253 309,661.805976 L309,661.805976 Z" id="Fill-26" fill="#F6CDAE"></path>
            <path d="M676.471105,294.419268 C741.004335,349.602022 689.593516,404.171852 689.593516,404.171852 C711.027767,468.371941 638.388654,484.234408 638.388654,484.234408 C638.388654,484.234408 611.859416,545.619951 575.522696,527.40876 C539.205592,509.192665 558.227202,448.75838 558.227202,448.75838 C535.066834,423.687345 559.96803,396.870704 559.96803,396.870704 C532.291317,370.936673 556.501086,319.048997 556.501086,319.048997 C528.819469,310.394513 520.183981,274.075101 520.183981,274.075101 C476.928083,272.334398 464.825651,213.532942 464.825651,213.532942 C464.825651,213.532942 450.992198,263.694624 395.633867,246.400367 C395.633867,246.400367 345.468599,291.374262 309.151494,256.780844 C309.151494,256.780844 257.260108,293.095352 229.578491,253.314147 C229.578491,253.314147 229.578491,294.821346 172.494044,303.480733 C172.494044,303.480733 194.9826,362.282189 165.579769,388.21622 C165.579769,388.21622 200.175661,450.484373 170.772831,476.438018 C170.772831,476.438018 222.664217,519.666307 194.9826,547.345945 C167.305886,575.020679 122.328775,554.259725 120.602658,514.47852 C120.602658,514.47852 54.8827237,523.133004 58.3300535,450.484373 C58.3300535,450.484373 9.90561271,386.490227 49.6896622,334.602551 C49.6896622,334.602551 16.8198873,272.334398 63.5231151,225.639412 C63.5231151,225.639412 58.3300535,135.711235 122.328775,116.67137 C122.328775,116.67137 148.284276,38.8496633 217.471155,50.9561339 C217.471155,50.9561339 262.448266,-14.7640059 333.361262,18.0838055 C333.361262,18.0838055 411.208148,-26.8851867 456.165644,25.0024892 C456.165644,25.0024892 501.505632,-4.39823891 535.047219,50.9561339 C535.047219,50.9561339 592.81819,61.9103077 598.011252,117.838377 C598.011252,117.838377 678.73173,135.137538 656.816912,204.319471 C656.836527,204.319471 717.196673,225.237334 676.471105,294.419268 L676.471105,294.419268 Z" id="Fill-28" fill="#B1622E"></path>
            <path d="M243.898167,681 C168.735342,710.970226 115,762.620518 115,802 L277,802 L243.898167,681 Z" id="Fill-30" fill="#FA6400"></path>
            <path d="M290,802 C290,802 257.365475,707.307106 253.882014,670 C253.882014,670 236.112897,671.063965 216,687.804333 C216,687.804333 241.627963,768.143459 257.945226,801.428973 L290,802 Z" id="Fill-31" fill="#F7B500"></path>
            <path d="M491.081228,681 C566.261383,710.970226 620,762.620518 620,802 L458,802 L491.081228,681 Z" id="Fill-32" fill="#FA6400"></path>
            <path d="M445,802 C445,802 477.614705,707.307106 481.122941,670 C481.122941,670 498.887103,671.063965 519,687.804333 C519,687.804333 493.352216,768.143459 477.034954,801.428973 L445,802 Z" id="Fill-33" fill="#F7B500"></path>
        </g>
    </g>
</svg>