<?xml version="1.0" encoding="UTF-8"?>
<svg width="1024px" height="1025px" viewBox="0 0 1024 1025" version="1.1" xmlns="http://www.w3.org/2000/svg" xmlns:xlink="http://www.w3.org/1999/xlink">
    <!-- Generator: Sketch 64 (93537) - https://sketch.com -->
    <title>面性戴眼镜教师</title>
    <desc>Created with Sketch.</desc>
    <g id="面性戴眼镜教师" stroke="none" stroke-width="1" fill="none" fill-rule="evenodd" transform="translate(0.000000, 1.000000)">
        <g id="user-38" transform="translate(203.000000, 126.000000)">
            <path d="M464.481481,588 C619.508889,637.363636 620,727.863636 620,727.863636 L620,769 L399,769 L464.481481,588 Z M154.923077,588 L212,769 L0,769 L0,727.863636 C0,727.863636 1.46769231,637.857273 154.923077,588 Z" id="形状结合" fill="#F87884"></path>
            <path d="M391.818182,488.670476 C391.490909,488.998095 391,489.161905 390.672727,489.325714 C367.109091,501.28381 339.945455,508 310,508 C280.054545,508 252.890909,501.28381 229.327273,489.325714 C229,489.161905 228.509091,488.998095 228.181818,488.670476 C166.981818,457.055238 130,389.565714 130,311.428571 L130,303.238095 L130,237.714286 C130,237.714286 310,197.253333 310,164 C310,164 408.672727,237.714286 490,237.714286 L490,303.238095 L490,311.428571 C490,389.565714 453.018182,457.055238 391.818182,488.670476 L391.818182,488.670476 Z" id="Shape" fill="#FFDDC3"></path>
            <path d="M309.5,449 C330.210678,449 347,435.07037 347,417.887302 C347,400.704233 272,400.704233 272,417.887302 C272,435.07037 288.789322,449 309.5,449 Z" id="椭圆形" fill="#F26D6D"></path>
            <rect id="矩形" fill="#532B51" x="130" y="298" width="360" height="15"></rect>
            <path d="M449,300.666667 L449,321.111111 C449,343.6 430.7,362 408.333333,362 L367.666667,362 C345.3,362 327,343.6 327,321.111111 L327,270 L449,270 L449,300.666667 L449,300.666667 Z" id="Shape" fill="#532B51"></path>
            <path d="M294,300.666667 L294,321.111111 C294,343.6 275.7,362 253.333333,362 L212.666667,362 C190.3,362 172,343.6 172,321.111111 L172,270 L294,270 L294,300.666667 L294,300.666667 Z" id="Shape备份" fill="#532B51"></path>
            <path d="M212.473684,769 L155,588.701987 C155,588.701987 166.823158,582.637417 181.437895,573.950331 C183.08,572.966887 184.722105,571.983444 186.528421,571 L310,694.243 L433.471579,571 C443.488421,577.06457 452.848421,582.145695 458.76,585.259934 C462.701053,587.554636 465,588.701987 465,588.701987 L399.315789,769 L212.473684,769 Z" id="形状结合" fill="#F7B500"></path>
            <path d="M392.794195,539 C401.300792,548.688421 418.968338,560.511579 434.672823,570.2 C434.836412,570.2 434.836412,570.364211 435,570.528421 L311,695 L311,580.052632 C359.094987,580.052632 392.794195,539 392.794195,539 Z M228.205805,539 C228.205805,539 261.905013,580.052632 310,580.052632 L310,695 L186,570.528421 C201.868074,560.675789 219.53562,548.852632 228.205805,539 Z" id="形状结合" fill="#FFECC6"></path>
            <path d="M230.141,488.647887 C253.613,500.471831 280.671,507.112676 310.5,507.112676 C340.329,507.112676 367.387,500.471831 390.859,488.647887 C391.185,488.485915 391.674,488.323944 392,488 L392,539.507042 C392,539.507042 358.422,580 310.5,580 C262.578,580 229,539.507042 229,539.507042 L229,488 C229.326,488.323944 229.815,488.485915 230.141,488.647887 L230.141,488.647887 Z" id="Shape" fill="#F6CDAE"></path>
            <path d="M539,179.666667 L539,539 L391.785714,539 L391.785714,487.06 C452.961429,455.536667 489.928571,388.243333 489.928571,310.333333 L489.928571,236.833333 C408.633571,236.833333 310,163.333333 310,163.333333 C310,196.49 130.071429,236.833333 130.071429,236.833333 L130.071429,310.333333 C130.071429,388.243333 167.038571,455.536667 228.214286,487.06 L228.214286,539 L81,539 L81,179.666667 C81,98.49 146.919286,0 228.214286,0 L391.785714,0 C473.080714,0 539,98.49 539,179.666667 L539,179.666667 Z" id="Shape" fill="#4A2929"></path>
        </g>
    </g>
</svg>