<?xml version="1.0" encoding="UTF-8"?>
<svg width="1024px" height="1024px" viewBox="0 0 1024 1024" version="1.1" xmlns="http://www.w3.org/2000/svg" xmlns:xlink="http://www.w3.org/1999/xlink">
    <!-- Generator: Sketch 64 (93537) - https://sketch.com -->
    <title>面性书生</title>
    <desc>Created with Sketch.</desc>
    <g id="面性书生" stroke="none" stroke-width="1" fill="none" fill-rule="evenodd">
        <g id="user-30" transform="translate(198.000000, 123.000000)">
            <path d="M629,736.571429 L629,778 L0,778 L0,736.571429 C0,736.571429 1.48973684,645.925714 157.25,595.714286 C157.25,595.714286 213.694474,566.217143 231.736842,546 C231.736842,546 265.835263,587.428571 314.5,587.428571 C363.164737,587.428571 397.263158,546 397.263158,546 C415.305526,566.217143 471.75,595.714286 471.75,595.714286 C628.503421,645.428571 629,736.571429 629,736.571429 L629,736.571429 Z" id="Shape" fill="#567DF4"></path>
            <path d="M190.068182,149.04 C190.068182,198.0576 132,207 132,207 L132,124.2 C132,124.2 139.631818,0 314.5,0 C489.368182,0 497,124.2 497,124.2 L497,207 C497,207 438.931818,199.3824 438.931818,149.04 L314.5,198.72 L190.068182,149.04 L190.068182,149.04 Z" id="Shape" fill="#D0951F"></path>
            <path d="M233,494 C257.09,506.711268 284.81,513.735915 315.5,513.735915 C346.19,513.735915 373.91,506.711268 398,494 L398,547.18662 C398,547.18662 364.01,589 315.5,589 C266.99,589 233,547.18662 233,547.18662 L233,494 L233,494 Z" id="Shape" fill="#F6CDAE"></path>
            <path d="M131.881789,314.496982 C131.881789,325.551308 132.533546,336.440644 134,347 C108.744409,343.535211 83,319.1167 83,297.997988 C83,275.229376 104.833866,265 131.881789,265 L131.881789,314.496982 L131.881789,314.496982 Z" id="Shape" fill="#F6CDAE"></path>
            <path d="M498.118211,265 C525.166134,265 547,275.229376 547,297.997988 C547,319.1167 521.255591,343.535211 496,347 C497.466454,336.440644 498.118211,325.551308 498.118211,314.496982 L498.118211,265 L498.118211,265 Z" id="Shape" fill="#F6CDAE"></path>
            <path d="M497,264.818182 L497,314.454545 C497,325.54 496.336364,336.46 494.843182,347.049091 C485.884091,411.741818 450.711364,466.010909 397.454545,493.476364 C373.231818,506.050909 345.359091,513 314.5,513 C283.640909,513 255.768182,506.050909 231.545455,493.476364 C178.288636,466.010909 143.115909,411.741818 134.156818,347.049091 C132.663636,336.46 132,325.54 132,314.454545 L132,264.818182 L132,206.909091 C132,206.909091 190.068182,197.974545 190.068182,149 L314.5,198.636364 L438.931818,149 C438.931818,199.298182 497,206.909091 497,206.909091 L497,264.818182 L497,264.818182 Z" id="Shape" fill="#FFDDC3"></path>
            <path d="M240,314.491679 C240,326.923262 230.596253,337 219.002127,337 C207.403747,337 198,326.923262 198,314.491679 C198,302.076738 207.403747,292 219.002127,292 C230.596253,292 240,302.076738 240,314.491679 L240,314.491679 Z" id="Fill-6" fill="#3B2519"></path>
            <path d="M217,306.497799 C217,310.09448 213.870979,313 210.00237,313 C206.129021,313 203,310.09448 203,306.497799 C203,302.90552 206.129021,300 210.00237,300 C213.870979,300 217,302.90552 217,306.497799 L217,306.497799 Z" id="Fill-7" fill="#FFFFFF"></path>
            <path d="M184.092984,258.691838 C194.198352,263.511141 210.448408,242.315288 247.654535,260.754896 C254.427558,264.105301 258.474906,232 218.608102,232 C184.092984,232 177.96563,255.774675 184.092984,258.691838 L184.092984,258.691838 Z" id="Fill-8" fill="#D0951F"></path>
            <path d="M431,314.491679 C431,326.923262 421.596253,337 410.002127,337 C398.403747,337 389,326.923262 389,314.491679 C389,302.076738 398.403747,292 410.002127,292 C421.596253,292 431,302.076738 431,314.491679 L431,314.491679 Z" id="Fill-9" fill="#3B2519"></path>
            <path d="M408,306.497799 C408,310.09448 404.870979,313 400.99763,313 C397.129021,313 394,310.09448 394,306.497799 C394,302.90552 397.129021,300 400.99763,300 C404.870979,300 408,302.90552 408,306.497799 L408,306.497799 Z" id="Fill-10" fill="#FFFFFF"></path>
            <path d="M441.913718,258.691838 C431.807202,263.511141 415.5553,242.315288 378.344946,260.754896 C371.571154,264.105301 367.52768,232 407.394679,232 C441.913718,232 448.024433,255.774675 441.913718,258.691838 L441.913718,258.691838 Z" id="Fill-11" fill="#D0951F"></path>
            <path d="M347.913718,430.691838 C337.807202,435.511141 321.5553,414.315288 284.344946,432.754896 C277.571154,436.105301 273.52768,404 313.394679,404 C347.913718,404 354.024433,427.774675 347.913718,430.691838 L347.913718,430.691838 Z" id="Fill-11备份" fill="#ED9292" transform="translate(315.000000, 418.500000) scale(1, -1) translate(-315.000000, -418.500000) "></path>
            <rect id="Rectangle-path" fill="#FFFFFF" x="307" y="625" width="33" height="25"></rect>
            <rect id="Rectangle-path" fill="#FFFFFF" x="307" y="667" width="33" height="25"></rect>
        </g>
    </g>
</svg>