<?xml version="1.0" encoding="UTF-8"?>
<svg width="1024px" height="1024px" viewBox="0 0 1024 1024" version="1.1" xmlns="http://www.w3.org/2000/svg" xmlns:xlink="http://www.w3.org/1999/xlink">
    <!-- Generator: Sketch 64 (93537) - https://sketch.com -->
    <title>面性绅士</title>
    <desc>Created with Sketch.</desc>
    <g id="面性绅士" stroke="none" stroke-width="1" fill="none" fill-rule="evenodd">
        <g id="user-4" transform="translate(200.000000, 124.000000)">
            <path d="M495,0 L495,222.569735 L346.090909,156.623147 C247.48,244.496975 131,222.569735 131,222.569735 L131,131.893176 C131,131.893176 156.810909,0 313,0 L495,0 L495,0 Z" id="Shape" fill="#66320F"></path>
            <path d="M337.75,585.461144 L379,684.350982 L329.5,775 L296.5,775 L247,684.350982 L288.25,585.461144 L289.075,582 C296.5,584.142613 304.585,585.461144 313,585.461144 C321.415,585.461144 329.5,584.142613 336.925,582 L337.75,585.461144 L337.75,585.461144 Z" id="Shape" fill="#FFD151"></path>
            <path d="M395.882353,544 C413.835294,564.13 470,593.5 470,593.5 C470,593.5 469.011765,724.015 346.470588,775 L330,775 L379.411765,684.25 L338.235294,585.25 L337.411765,581.785 C372.823529,572.05 395.882353,544 395.882353,544 Z M230.117647,544 C230.117647,544 253.176471,572.05 288.588235,581.785 L287.764706,585.25 L246.588235,684.25 L296,775 L279.529412,775 C156.988235,724.015 156,593.5 156,593.5 C156,593.5 212.164706,564.13 230.117647,544 Z" id="形状结合" fill="#567DF4"></path>
            <path d="M470.75,594 L545,692.727273 L479,725.636364 L520.25,775 L347,775 C469.76,724.155455 470.75,594 470.75,594 L470.75,594 Z" id="Shape" fill="#32C5FF"></path>
            <path d="M280,775 L106.75,775 L148,725.636364 L82,692.727273 L156.25,594 C156.25,594 157.24,724.155455 280,775 L280,775 Z" id="Shape" fill="#32C5FF"></path>
            <path d="M626,733.863636 L626,775 L519.263158,775 L478.210526,725.636364 L543.894737,692.727273 L470,594 C625.507368,643.363636 626,733.863636 626,733.863636 L626,733.863636 Z" id="Shape" fill="#6236FF"></path>
            <path d="M494.159744,264 C521.738019,264 544,274.229376 544,296.997988 C544,318.1167 517.750799,342.535211 492,346 C493.495208,335.440644 494.159744,324.551308 494.159744,313.496982 L494.159744,264 L494.159744,264 Z" id="Shape" fill="#F6CDAE"></path>
            <path d="M492.849091,346.854884 C483.914545,411.233488 448.838182,465.23907 395.727273,492.571163 C371.570909,505.084651 343.774545,512 313,512 C282.225455,512 254.429091,505.084651 230.272727,492.571163 C177.161818,465.23907 142.085455,411.233488 133.150909,346.854884 C131.661818,336.317209 131,325.450233 131,314.418605 L131,265.023256 L131,223.860465 C131,223.860465 247.48,245.75907 346.090909,158 L495,223.860465 L495,265.023256 L495,314.418605 C495,325.450233 494.338182,336.317209 492.849091,346.854884 L492.849091,346.854884 Z" id="Shape" fill="#FFDDC3"></path>
            <path d="M242,329.492049 C242,341.371117 233.044051,351 222.002025,351 C210.955949,351 202,341.371117 202,329.492049 C202,317.628883 210.955949,308 222.002025,308 C233.044051,308 242,317.628883 242,329.492049 L242,329.492049 Z" id="Fill-6" fill="#3B2519"></path>
            <path d="M220,321.497799 C220,325.09448 217.317982,328 214.002032,328 C210.682018,328 208,325.09448 208,321.497799 C208,317.90552 210.682018,315 214.002032,315 C217.317982,315 220,317.90552 220,321.497799 L220,321.497799 Z" id="Fill-7" fill="#FFFFFF"></path>
            <path d="M187.033184,274.851022 C196.849828,279.337958 212.635596,259.603888 248.778691,276.771799 C255.3582,279.891142 259.289908,250 220.562157,250 C187.033184,250 181.080897,272.135042 187.033184,274.851022 L187.033184,274.851022 Z" id="Fill-8" fill="#66320F"></path>
            <path d="M425,329.492049 C425,341.371117 416.044051,351 405.002025,351 C393.955949,351 385,341.371117 385,329.492049 C385,317.628883 393.955949,308 405.002025,308 C416.044051,308 425,317.628883 425,329.492049 L425,329.492049 Z" id="Fill-9" fill="#3B2519"></path>
            <path d="M402,321.497799 C402,325.09448 399.317982,328 395.997968,328 C392.682018,328 390,325.09448 390,321.497799 C390,317.90552 392.682018,315 395.997968,315 C399.317982,315 402,317.90552 402,321.497799 L402,321.497799 Z" id="Fill-10" fill="#FFFFFF"></path>
            <path d="M436.973326,274.851022 C427.155568,279.337958 411.368006,259.603888 375.220805,276.771799 C368.640549,279.891142 364.712604,250 403.440545,250 C436.973326,250 442.909449,272.135042 436.973326,274.851022 L436.973326,274.851022 Z" id="Fill-11" fill="#66320F"></path>
            <path d="M345.973326,440.851022 C336.155568,445.337958 320.368006,425.603888 284.220805,442.771799 C277.640549,445.891142 273.712604,416 312.440545,416 C345.973326,416 351.909449,438.135042 345.973326,440.851022 L345.973326,440.851022 Z" id="Fill-11备份" fill="#ED9292" transform="translate(314.000000, 429.500000) scale(1, -1) translate(-314.000000, -429.500000) "></path>
            <path d="M395,492 L395,544.626761 C395,544.626761 371.9,572.760563 336.425,582.524648 C329,584.676056 320.915,586 312.5,586 C304.085,586 296,584.676056 288.575,582.524648 C253.1,572.760563 230,544.626761 230,544.626761 L230,492 C254.09,504.577465 281.81,511.528169 312.5,511.528169 C343.19,511.528169 370.91,504.577465 395,492 L395,492 Z" id="Shape" fill="#F6CDAE"></path>
            <path d="M156,594 L82.1052632,692.727273 L147.789474,725.636364 L106.736842,775 L0,775 L0,733.863636 C0,733.863636 1.47789474,643.857273 156,594 L156,594 Z" id="Shape" fill="#6236FF"></path>
            <path d="M131.840256,313.496982 C131.840256,324.551308 132.504792,335.440644 134,346 C108.249201,342.535211 82,318.1167 82,296.997988 C82,274.229376 104.261981,264 131.840256,264 L131.840256,313.496982 L131.840256,313.496982 Z" id="Shape" fill="#F6CDAE"></path>
        </g>
    </g>
</svg>