<?xml version="1.0" encoding="UTF-8"?>
<svg width="1024px" height="1024px" viewBox="0 0 1024 1024" version="1.1" xmlns="http://www.w3.org/2000/svg" xmlns:xlink="http://www.w3.org/1999/xlink">
    <!-- Generator: Sketch 64 (93537) - https://sketch.com -->
    <title>面性大学生</title>
    <desc>Created with Sketch.</desc>
    <g id="面性大学生" stroke="none" stroke-width="1" fill="none" fill-rule="evenodd">
        <g id="user-34" transform="translate(196.000000, 120.000000)">
            <path d="M632.075,741.117857 L632.075,782.725 L0.075,782.725 L0.075,741.117857 C0.075,741.117857 1.57184211,650.081429 158.075,599.653571 C158.075,599.653571 214.788684,570.029286 232.917105,549.725 C232.917105,549.725 267.178158,591.332143 316.075,591.332143 C364.971842,591.332143 399.232895,549.725 399.232895,549.725 C417.361316,570.029286 474.075,599.653571 474.075,599.653571 C631.576053,649.582143 632.075,741.117857 632.075,741.117857 L632.075,741.117857 Z" id="Shape" fill="#6236FF"></path>
            <path d="M499.234744,266.725 C526.813019,266.725 549.075,277.079125 549.075,300.125402 C549.075,321.50166 522.825799,346.217958 497.075,349.725 C498.570208,339.036871 499.234744,328.014738 499.234744,316.825604 L499.234744,266.725 L499.234744,266.725 Z" id="Shape" fill="#F6CDAE"></path>
            <path d="M496.912273,349.713837 C487.928636,414.819884 452.659545,469.435698 399.256818,497.076628 C374.967727,509.731512 347.018636,516.725 316.075,516.725 C285.131364,516.725 257.182273,509.731512 232.893182,497.076628 C179.490455,469.435698 144.221364,414.819884 135.237727,349.713837 C133.740455,339.057093 133.075,328.067326 133.075,316.911047 L133.075,266.957558 L133.075,225.329651 C133.075,225.329651 231.895,214.339884 299.438636,158.725 C299.438636,158.725 417.390455,241.980814 499.075,241.980814 L499.075,266.957558 L499.075,316.911047 C499.075,328.067326 498.409545,339.057093 496.912273,349.713837 L496.912273,349.713837 Z" id="Shape" fill="#FFDDC3"></path>
            <path d="M250,326.492419 C250,337.818972 241.047677,347 230.010122,347 C218.968519,347 210,337.818972 210,326.492419 C210,315.181028 218.968519,306 230.010122,306 C241.047677,306 250,315.181028 250,326.492419 L250,326.492419 Z" id="Fill-8" fill="#3B2519"></path>
            <path d="M226,315.498137 C226,318.541483 223.301727,321 220.002032,321 C216.682018,321 214,318.541483 214,315.498137 C214,312.458517 216.682018,310 220.002032,310 C223.301727,310 226,312.458517 226,315.498137 L226,315.498137 Z" id="Fill-9" fill="#FFFFFF"></path>
            <path d="M197.84895,272.849697 C206.810421,277.339171 221.202504,257.593943 254.143105,274.771561 C260.153239,277.892667 263.737827,248 228.429249,248 C197.84895,248 192.433689,270.132182 197.84895,272.849697 L197.84895,272.849697 Z" id="Fill-10" fill="#D0951F"></path>
            <path d="M425,326.492419 C425,337.818972 416.044051,347 405.002025,347 C393.955949,347 385,337.818972 385,326.492419 C385,315.181028 393.955949,306 405.002025,306 C416.044051,306 425,315.181028 425,326.492419 L425,326.492419 Z" id="Fill-11" fill="#3B2519"></path>
            <path d="M403,315.498137 C403,318.541483 400.305377,321 397.006087,321 C393.694623,321 391,318.541483 391,315.498137 C391,312.458517 393.694623,310 397.006087,310 C400.305377,310 403,312.458517 403,315.498137 L403,315.498137 Z" id="Fill-12" fill="#FFFFFF"></path>
            <path d="M434.15215,272.849697 C425.185311,277.339171 410.790769,257.593943 377.848381,274.771561 C371.848736,277.892667 368.267374,248 403.578144,248 C434.15215,248 439.564498,270.132182 434.15215,272.849697 L434.15215,272.849697 Z" id="Fill-13" fill="#D0951F"></path>
            <path d="M345.15215,442.849697 C336.185311,447.339171 321.790769,427.593943 288.848381,444.771561 C282.848736,447.892667 279.267374,418 314.578144,418 C345.15215,418 350.564498,440.132182 345.15215,442.849697 L345.15215,442.849697 Z" id="Fill-13备份" fill="#F7945E" transform="translate(316.000000, 431.500000) scale(1, -1) translate(-316.000000, -431.500000) "></path>
            <path d="M299.438636,158.621552 C231.895,214.134655 133.075,225.10431 133.075,225.10431 L133.075,108.759483 C133.075,108.759483 191.302273,0.725 316.075,0.725 C440.847727,0.725 499.075,108.759483 499.075,108.759483 L499.075,241.725 C417.390455,241.725 299.438636,158.621552 299.438636,158.621552 L299.438636,158.621552 Z" id="Shape" fill="#D0951F"></path>
            <path d="M399.075,497.725 L399.075,550.351761 C399.075,550.351761 364.879,591.725 316.075,591.725 C267.271,591.725 233.075,550.351761 233.075,550.351761 L233.075,497.725 C257.311,510.302465 285.199,517.253169 316.075,517.253169 C346.951,517.253169 374.839,510.302465 399.075,497.725 L399.075,497.725 Z" id="Shape" fill="#F6CDAE"></path>
            <path d="M133.915256,316.825604 C133.915256,328.014738 134.579792,339.036871 136.075,349.725 C110.324201,346.217958 84.075,321.50166 84.075,300.125402 C84.075,277.079125 106.336981,266.725 133.915256,266.725 L133.915256,316.825604 L133.915256,316.825604 Z" id="Shape" fill="#F6CDAE"></path>
            <rect id="Rectangle-path" fill="#FFFFFF" x="299.075" y="661.725" width="33" height="25"></rect>
            <rect id="Rectangle-path" fill="#FFFFFF" x="299.075" y="711.725" width="33" height="25"></rect>
        </g>
    </g>
</svg>