<?xml version="1.0" encoding="UTF-8"?>
<svg width="1024px" height="1024px" viewBox="0 0 1024 1024" version="1.1" xmlns="http://www.w3.org/2000/svg" xmlns:xlink="http://www.w3.org/1999/xlink">
    <!-- Generator: Sketch 64 (93537) - https://sketch.com -->
    <title>面性短发男</title>
    <desc>Created with Sketch.</desc>
    <g id="面性短发男" stroke="none" stroke-width="1" fill="none" fill-rule="evenodd">
        <g id="user-16" transform="translate(196.425000, 120.775000)">
            <path d="M465.575,594.225 C470.69,597.045763 473.825,598.705035 473.825,598.705035 C496.1,605.839907 515.24,613.804414 531.575,622.266704 L531.575,781.225 L465.575,781.225 L465.575,781.225 L166.575,781.225 L166.575,781.225 L100.575,781.225 L100.575,622.598558 C116.91,613.970342 136.05,606.005834 158.325,598.705035 C158.325,598.705035 161.46,597.045763 166.575,594.225 L166.575,690.225 L465.575,690.225 L465.575,594.225 Z" id="形状结合" fill="#32C5FF"></path>
            <path d="M631.575,739.732307 L631.575,781.225 L531.575,781.225 L531.575,622.225 C631.241667,672.680115 631.575,739.732307 631.575,739.732307 L631.575,739.732307 Z" id="Shape" fill="#FFCB3D"></path>
            <path d="M100.575,622.225 L100.575,781.225 L0.575,781.225 L0.575,739.645502 C0.575,739.645502 1.74166667,672.951987 100.575,622.225 L100.575,622.225 Z" id="Shape" fill="#FFCB3D"></path>
            <path d="M465.575,594.510882 L465.575,690.225 L166.575,690.225 L166.575,594.510882 C182.853889,585.553235 219.232222,564.652059 233.019444,549.225 L316.075,590.695588 L399.130556,549.225 C412.917778,564.652059 449.296111,585.553235 465.575,594.510882 L465.575,594.510882 Z" id="Shape" fill="#FFCB3D"></path>
            <path d="M315.575,515.753169 C346.451,515.753169 374.339,508.802465 398.575,496.225 L398.575,532.302465 L398.575,548.851761 L315.575,590.225 L232.575,548.851761 L232.575,532.302465 L232.575,496.225 C256.811,508.802465 284.699,515.753169 315.575,515.753169 L315.575,515.753169 Z" id="Shape" fill="#F6CDAE"></path>
            <path d="M133.415256,316.325604 C133.415256,327.514738 134.079792,338.536871 135.575,349.225 C109.824201,345.717958 83.575,321.00166 83.575,299.625402 C83.575,276.579125 105.836981,266.225 133.415256,266.225 L133.415256,316.325604 L133.415256,316.325604 Z" id="Shape" fill="#F6CDAE"></path>
            <path d="M498.734744,266.225 C526.313019,266.225 548.575,276.579125 548.575,299.625402 C548.575,321.00166 522.325799,345.717958 496.575,349.225 C498.070208,338.536871 498.734744,327.514738 498.734744,316.325604 L498.734744,266.225 L498.734744,266.225 Z" id="Shape" fill="#F6CDAE"></path>
            <path d="M498.575,266.225 L498.575,316.025 C498.575,327.147 497.911364,338.103 496.418182,348.727 C487.459091,413.633 452.286364,468.081 399.029545,495.637 C374.806818,508.253 346.934091,515.225 316.075,515.225 C285.215909,515.225 257.343182,508.253 233.120455,495.637 C179.863636,468.081 144.690909,413.633 135.731818,348.727 C134.238636,338.103 133.575,327.147 133.575,316.025 L133.575,266.225 L133.575,224.725 L175.052273,183.225 L208.234091,224.725 L241.415909,183.225 L282.893182,224.725 L316.075,183.225 L357.552273,224.725 L390.734091,183.225 L432.211364,224.725 L457.097727,183.225 L498.575,224.725 L498.575,266.225 L498.575,266.225 Z" id="Shape" fill="#FFDDC3"></path>
            <path d="M244.575,335.225 C244.575,347.928142 235.398869,358.225 224.085376,358.225 C212.767732,358.225 203.575,347.928142 203.575,335.225 C203.575,322.521858 212.767732,312.225 224.085376,312.225 C235.398869,312.225 244.575,322.521858 244.575,335.225 L244.575,335.225 Z" id="Fill-6" fill="#3B2519"></path>
            <path d="M220.575,325.227032 C220.575,328.542982 218.101583,331.225 215.076863,331.225 C212.033517,331.225 209.575,328.542982 209.575,325.227032 C209.575,321.923273 212.033517,319.225 215.076863,319.225 C218.101583,319.225 220.575,321.923273 220.575,325.227032 L220.575,325.227032 Z" id="Fill-7" fill="#FFFFFF"></path>
            <path d="M191.573059,280.833657 C201.257229,285.821578 216.809964,263.88412 252.407065,282.968897 C258.901887,286.453609 262.775555,253.225 224.619511,253.225 C191.573059,253.225 185.721083,277.831509 191.573059,280.833657 L191.573059,280.833657 Z" id="Fill-8" fill="#C6692A"></path>
            <path d="M431.575,335.225 C431.575,347.928142 422.395152,358.225 411.077076,358.225 C399.754848,358.225 390.575,347.928142 390.575,335.225 C390.575,322.521858 399.754848,312.225 411.077076,312.225 C422.395152,312.225 431.575,322.521858 431.575,335.225 L431.575,335.225 Z" id="Fill-9" fill="#3B2519"></path>
            <path d="M407.575,325.227032 C407.575,328.542982 405.116483,331.225 402.073137,331.225 C399.033517,331.225 396.575,328.542982 396.575,325.227032 C396.575,321.923273 399.033517,319.225 402.073137,319.225 C405.116483,319.225 407.575,321.923273 407.575,325.227032 L407.575,325.227032 Z" id="Fill-10" fill="#FFFFFF"></path>
            <path d="M440.57813,280.833657 C430.888158,285.821578 415.332767,263.88412 379.733734,282.968897 C373.250247,286.453609 369.380066,253.225 407.538478,253.225 C440.57813,253.225 446.426957,277.831509 440.57813,280.833657 L440.57813,280.833657 Z" id="Fill-11" fill="#C6692A"></path>
            <path d="M347.57813,442.833657 C337.888158,447.821578 322.332767,425.88412 286.733734,444.968897 C280.250247,448.453609 276.380066,415.225 314.538478,415.225 C347.57813,415.225 353.426957,439.831509 347.57813,442.833657 L347.57813,442.833657 Z" id="Fill-11备份" fill="#F26D6D" transform="translate(316.075000, 430.225000) scale(1, -1) translate(-316.075000, -430.225000) "></path>
            <path d="M315.575,0.225 C509.434708,0.225 498.461517,149.558333 498.461517,149.558333 L498.461517,224.225 L456.896399,182.743519 L431.957329,224.225 L390.392211,182.743519 L357.140117,224.225 L315.575,182.743519 L282.322906,224.225 L240.757789,182.743519 L207.505695,224.225 L174.253601,182.743519 L132.688483,224.225 L132.688483,149.558333 C132.688483,149.558333 121.715292,0.225 315.575,0.225 L315.575,0.225 Z" id="Shape" fill="#C6692A"></path>
        </g>
    </g>
</svg>