<?xml version="1.0" encoding="UTF-8"?>
<svg width="1024px" height="1024px" viewBox="0 0 1024 1024" version="1.1" xmlns="http://www.w3.org/2000/svg" xmlns:xlink="http://www.w3.org/1999/xlink">
    <!-- Generator: Sketch 64 (93537) - https://sketch.com -->
    <title>面性乖小孩</title>
    <desc>Created with Sketch.</desc>
    <g id="面性乖小孩" stroke="none" stroke-width="1" fill="none" fill-rule="evenodd">
        <g id="boy-2" transform="translate(219.000000, 111.000000)">
            <polygon id="Fill-1" fill="#F6CDAE" points="234 731 354 731 354 595 234 595"></polygon>
            <path d="M117,385.510312 C117,422.792049 90.8102314,453 58.5127457,453 C26.1897686,453 0,422.792049 0,385.510312 C0,348.233731 26.1897686,318 58.5127457,318 C90.8102314,318 117,348.233731 117,385.510312 L117,385.510312 Z" id="Fill-3" fill="#F6CDAE"></path>
            <path d="M586,385.510312 C586,422.792049 559.794937,453 527.492353,453 C495.189769,453 469,422.792049 469,385.510312 C469,348.233731 495.189769,318 527.492353,318 C559.794937,318 586,348.233731 586,385.510312 L586,385.510312 Z" id="Fill-4" fill="#F6CDAE"></path>
            <path d="M528.761878,257.001952 C528.761878,157.679711 456.305255,85 294.49231,85 C132.674231,85 60.2381482,157.679711 60.2381482,257.001952 C60.2381482,356.34995 43.3281794,618 294.49231,618 C545.671846,618 528.761878,356.34995 528.761878,257.001952 L528.761878,257.001952 Z" id="Fill-5" fill="#FFDDC3"></path>
            <path d="M205,380.987057 C205,396.461218 193.581165,409 179.502582,409 C165.418835,409 154,396.461218 154,380.987057 C154,365.538782 165.418835,353 179.502582,353 C193.581165,353 205,365.538782 205,380.987057 L205,380.987057 Z" id="Fill-6" fill="#3B2519"></path>
            <path d="M176,368.50254 C176,372.647477 172.647477,376 168.50254,376 C164.352523,376 161,372.647477 161,368.50254 C161,364.352523 164.352523,361 168.50254,361 C172.647477,361 176,364.352523 176,368.50254 L176,368.50254 Z" id="Fill-7" fill="#FFFFFF"></path>
            <path d="M139.481681,312.134062 C151.46376,318.096042 170.731683,291.80494 214.84752,314.69505 C222.878391,318.859216 227.677388,279 180.40675,279 C139.481681,279 132.216389,308.512825 139.481681,312.134062 L139.481681,312.134062 Z" id="Fill-8" fill="#BF904B"></path>
            <path d="M436,380.987057 C436,396.461218 424.581165,409 410.502582,409 C396.418835,409 385,396.461218 385,380.987057 C385,365.538782 396.418835,353 410.502582,353 C424.581165,353 436,365.538782 436,380.987057 L436,380.987057 Z" id="Fill-9" fill="#3B2519"></path>
            <path d="M407,368.50254 C407,372.647477 403.647477,376 399.49746,376 C395.352523,376 392,372.647477 392,368.50254 C392,364.352523 395.352523,361 399.49746,361 C403.647477,361 407,364.352523 407,368.50254 L407,368.50254 Z" id="Fill-10" fill="#FFFFFF"></path>
            <path d="M447.526266,312.134062 C435.522271,318.096042 416.252159,291.80494 372.151865,314.69505 C364.120082,318.859216 359.325678,279 406.596548,279 C447.526266,279 454.771828,308.512825 447.526266,312.134062 L447.526266,312.134062 Z" id="Fill-11" fill="#A77428"></path>
            <path d="M296.992326,511.240527 C272.031016,511.240527 257,492.351139 257,501.503034 C257,510.634201 264.21366,528 296.992326,528 C329.78634,528 337,510.634201 337,501.503034 C337,492.351139 321.968984,511.240527 296.992326,511.240527 L296.992326,511.240527 Z" id="Fill-12" fill="#F7945E"></path>
            <path d="M0,802 C0,740.626946 154.118999,650.432855 293.000875,650.001553 C293.166492,650 293.333007,650.00013 293.499543,650.000388 L294,650 L294,650 C432.894212,650.432855 587,740.626946 587,802 L587,802 L0,802 Z" id="形状结合" fill="#567DF4"></path>
            <path d="M231.193195,802 L158,674.041228 C173.168242,668.605747 188.871229,663.858105 204.862155,660 L204.862155,660 L293.5,782.843 L382.127736,660 C398.132272,663.858105 413.838619,668.605747 429,674.041228 L355.815106,802 L231.193195,802 Z" id="形状结合" fill="#32C5FF"></path>
            <path d="M295,650 C328.598349,650.212113 363.052451,655.588148 396,664.446387 C368.956042,708.504703 320.6208,783.475198 294.998759,800.744247 L295,802 C294.669985,801.810467 294.33563,801.610129 293.997041,801.399201 C293.658383,801.610071 293.327042,801.810439 293,802 L293.001931,800.757059 C267.146967,783.512312 218.322512,708.515608 191,664.446387 C224.284087,655.58642 259.080098,650.210015 293.00076,650.006021 L293,650 L293.995,650.002 L295,650 Z" id="形状结合" fill="#FFFFFF"></path>
            <path d="M294.911562,650 C265.44859,650 235.263136,654.123019 206,661.144956 C206.199836,661.406165 238.465632,703 294.911562,703 C347.191683,703 381.957989,667.367897 387,661.882489 C356.758181,654.384229 325.450572,650 294.911562,650 L294.911562,650 Z" id="Fill-21" fill="#FFC400"></path>
            <path d="M234,655.036083 C234,655.036083 251.559855,679 294.002552,679 C336.460557,679 354,655.036083 354,655.036083 C354,655.036083 291.74697,632.454896 234,655.036083 L234,655.036083 Z" id="Fill-22" fill="#F6CDAE"></path>
            <path d="M292.49272,0 C-54.8744129,0 3.61270469,397 63.38435,397 C78.6394016,397 68.19876,197.216234 96.1603601,200.853999 C124.116822,204.491764 173.488931,216.670814 292.513272,216.670814 C411.511923,216.670814 460.884032,204.491764 488.840494,200.853999 C516.802094,197.23167 506.36659,397 521.616504,397 C581.388149,397 639.875267,0 292.49272,0 L292.49272,0 Z" id="Fill-24" fill="#A77428"></path>
        </g>
    </g>
</svg>