<?xml version="1.0" encoding="UTF-8"?>
<svg width="1024px" height="1024px" viewBox="0 0 1024 1024" version="1.1" xmlns="http://www.w3.org/2000/svg" xmlns:xlink="http://www.w3.org/1999/xlink">
    <!-- Generator: Sketch 64 (93537) - https://sketch.com -->
    <title>面性戴帽子男孩</title>
    <desc>Created with Sketch.</desc>
    <g id="面性戴帽子男孩" stroke="none" stroke-width="1" fill="none" fill-rule="evenodd">
        <g id="user-26" transform="translate(189.000000, 122.000000)">
            <path d="M647,199 L647,224 L497,224 L497,174 L622,174 C635.833333,174 647,185.166667 647,199 L647,199 Z" id="Shape" fill="#567DF4"></path>
            <path d="M497.983412,174.222222 L497.983412,224 C497.983412,224 436.436734,190.814815 307.205299,190.814815 C206.507635,190.814815 133.016588,224 133.016588,224 L133.016588,124.444444 C133.016588,124.444444 127.542086,0 315.5,0 C503.457914,0 497.983412,116.148148 497.983412,116.148148 L497.983412,174.222222 L497.983412,174.222222 Z" id="Shape" fill="#6DAEF2"></path>
            <path d="M561,639.474286 C550.051817,642.291429 496.637954,662.011429 496.637954,780 L131.69852,780 C131.69852,664.331429 80.4411171,643.12 68,639.805714 C89.8963661,624.56 118.759758,609.977143 156.580754,597.714286 C156.580754,597.714286 213.146366,568.217143 231.227456,548 C231.227456,548 234.876851,606 314.168237,606 C393.459623,606 397.109017,548 397.109017,548 C415.190108,568.217143 471.75572,597.714286 471.75572,597.714286 C510.074361,609.811429 539.103634,624.394286 561,639.474286 L561,639.474286 Z" id="Shape" fill="#40CBD2"></path>
            <path d="M630,738.431604 L630,780 L498,780 C498,661.613208 551.13,641.826651 562.02,639 C629.67,686.221698 630,738.431604 630,738.431604 L630,738.431604 Z" id="Shape" fill="#F6CDAE"></path>
            <path d="M132,779 L0,779 L0,737.628842 C0,737.628842 0.825,685.832151 68.64,639 C81.015,642.309693 132,663.491726 132,779 L132,779 Z" id="Shape" fill="#F6CDAE"></path>
            <path d="M398,531.224551 L398,547.841317 C398,547.841317 394.348,606 315,606 C235.652,606 232,547.841317 232,547.841317 L232,531.224551 L232,495 C256.236,507.628743 284.124,514.607784 315,514.607784 C345.876,514.607784 373.764,507.628743 398,495 L398,531.224551 L398,531.224551 Z" id="Shape" fill="#F6CDAE"></path>
            <path d="M497.159744,266 C524.738019,266 547,276.354125 547,299.400402 C547,320.77666 520.750799,345.492958 495,349 C496.495208,338.311871 497.159744,327.289738 497.159744,316.100604 L497.159744,266 L497.159744,266 Z" id="Shape" fill="#F6CDAE"></path>
            <path d="M131.840256,316.100604 C131.840256,327.289738 132.504792,338.311871 134,349 C108.249201,345.492958 82,320.77666 82,299.400402 C82,276.354125 104.261981,266 131.840256,266 L131.840256,316.100604 L131.840256,316.100604 Z" id="Shape" fill="#F6CDAE"></path>
            <path d="M498,265.769231 L498,315.615385 C498,326.747692 497.336364,337.713846 495.843182,348.347692 C486.884091,413.313846 451.711364,467.812308 398.454545,495.393846 C374.231818,508.021538 346.359091,515 315.5,515 C284.640909,515 256.768182,508.021538 232.545455,495.393846 C179.288636,467.812308 144.115909,413.313846 135.156818,348.347692 C133.663636,337.713846 133,326.747692 133,315.615385 L133,265.769231 L133,224.230769 C133,224.230769 206.497727,191 307.204545,191 C436.447727,191 498,224.230769 498,224.230769 L498,265.769231 L498,265.769231 Z" id="Shape" fill="#FFDDC3"></path>
            <path d="M241,318.993621 C241,331.700287 231.600061,342 219.989371,342 C208.399939,342 199,331.700287 199,318.993621 C199,306.299713 208.399939,296 219.989371,296 C231.600061,296 241,306.299713 241,318.993621 L241,318.993621 Z" id="Fill-12" fill="#333333"></path>
            <path d="M218,308.002032 C218,311.317982 215.314827,314 212,314 C208.701422,314 206,311.317982 206,308.002032 C206,304.682018 208.701422,302 212,302 C215.314827,302 218,304.682018 218,308.002032 L218,308.002032 Z" id="Fill-13" fill="#FFFFFF"></path>
            <path d="M187.085989,269.087268 C197.20842,273.078406 213.458041,255.535238 250.645841,270.795208 C257.431683,273.582315 261.478922,247 221.600185,247 C187.085989,247 180.976131,266.683667 187.085989,269.087268 L187.085989,269.087268 Z" id="Fill-14" fill="#C2912E"></path>
            <path d="M434,318.993621 C434,331.700287 424.600061,342 413.006377,342 C401.399939,342 392,331.700287 392,318.993621 C392,306.299713 401.399939,296 413.006377,296 C424.600061,296 434,306.299713 434,318.993621 L434,318.993621 Z" id="Fill-15" fill="#333333"></path>
            <path d="M410,308.002032 C410,311.317982 407.305377,314 403.993913,314 C400.694623,314 398,311.317982 398,308.002032 C398,304.682018 400.694623,302 403.993913,302 C407.305377,302 410,304.682018 410,308.002032 L410,308.002032 Z" id="Fill-16" fill="#FFFFFF"></path>
            <path d="M444.914011,269.087268 C434.79158,273.078406 418.541959,255.535238 381.354159,270.795208 C374.568317,273.582315 370.521078,247 410.399815,247 C444.914011,247 451.023869,266.683667 444.914011,269.087268 L444.914011,269.087268 Z" id="Fill-17" fill="#C2912E"></path>
            <path d="M316,441 C337.539105,441 355,426.437205 355,408.473088 C355,390.508971 277,390.508971 277,408.473088 C277,426.437205 294.460895,441 316,441 Z" id="椭圆形" fill="#ED9292"></path>
            <path d="M381,82.5 L381,132 L315,132 L249,132 L249,82.5 C249,82.5 254.115,66 315,66 C375.885,66 381,82.5 381,82.5 L381,82.5 Z" id="Shape" fill="#FFFFFF"></path>
        </g>
    </g>
</svg>