<?xml version="1.0" encoding="UTF-8"?>
<svg width="1024px" height="1024px" viewBox="0 0 1024 1024" version="1.1" xmlns="http://www.w3.org/2000/svg" xmlns:xlink="http://www.w3.org/1999/xlink">
    <!-- Generator: Sketch 64 (93537) - https://sketch.com -->
    <title>面性学妹</title>
    <desc>Created with Sketch.</desc>
    <g id="面性学妹" stroke="none" stroke-width="1" fill="none" fill-rule="evenodd">
        <g id="user-17" transform="translate(200.000000, 125.000000)">
            <path d="M584.847353,453.75 C558.81591,410.355 542.834581,295.515 534.432026,215.49 C529.489347,167.475 527.182763,132 527.182763,132 C527.182763,59.07 468.200125,0 395.377986,0 L313,0 L230.622014,0 C157.799875,0 98.8172367,59.07 98.8172367,132 C98.8172367,132 96.3458971,170.445 90.9089501,221.595 L90.9089501,221.595 C82.3416395,301.125 66.5250662,411.345 41.1526466,453.75 C-7.94463301,535.92 156.481827,594 156.481827,594 C156.481827,594 212.663613,564.63 230.622014,544.5 L230.622014,528 L230.622014,492.03 C169.003281,460.185 131.768431,392.205 131.768431,313.5 L131.768431,222.75 L313,165 C313,165 439.36783,132.66 494.231569,222.75 L494.231569,313.5 C494.231569,392.205 456.996719,460.185 395.377986,492.03 L395.377986,528 L395.377986,544.5 C413.336387,564.63 469.518173,594 469.518173,594 C469.518173,594 633.944633,535.92 584.847353,453.75 L584.847353,453.75 Z" id="Shape" fill="#66320F"></path>
            <path d="M625,733.025471 L625,774 L0,774 L0,733.025471 C0,733.025471 0.986842105,674.841639 82.2368421,626.327796 L82.2368421,626.491694 C217.927632,626.491694 176.809211,692.050941 312.5,692.050941 C448.190789,692.050941 407.072368,626.491694 542.763158,626.491694 L543.092105,626 C624.671053,674.513843 625,733.025471 625,733.025471 L625,733.025471 Z" id="Shape" fill="#F7B500"></path>
            <path d="M469.634547,592.985222 C499.907209,602.55665 524.256959,613.778325 544,625.495074 L543.670949,625.990148 C407.937545,625.990148 449.068879,692 313.335475,692 C177.60207,692 218.733405,625.990148 83,625.990148 L83,625.825123 C102.578515,614.108374 126.928266,602.721675 157.036403,592.985222 C157.036403,592.985222 213.139543,563.610837 231.072805,543.477833 L231.072805,526.975369 L231.072805,491 C255.093505,503.541872 282.733762,510.472906 313.335475,510.472906 C343.937188,510.472906 371.577445,503.541872 395.598144,491 L395.598144,526.975369 L395.598144,543.477833 C413.531406,563.610837 469.634547,592.985222 469.634547,592.985222 L469.634547,592.985222 Z" id="Shape" fill="#F6CDAE"></path>
            <path d="M395.272727,491.538191 C371.249091,504.072916 343.605455,511 313,511 C282.394545,511 254.750909,504.072916 230.727273,491.538191 C169.187273,459.706589 132,391.755189 132,313.083301 L132,222.371481 L313,164.645777 C313,164.645777 439.206364,132.319383 494,222.371481 L494,313.083301 C494,391.755189 456.812727,459.706589 395.272727,491.538191 L395.272727,491.538191 Z" id="Shape" fill="#FFDDC3"></path>
            <path d="M238,310.49376 C238,322.924193 228.823869,333 217.489624,333 C206.176131,333 197,322.924193 197,310.49376 C197,298.075807 206.176131,288 217.489624,288 C228.823869,288 238,298.075807 238,310.49376 L238,310.49376 Z" id="Fill-12" fill="#333333"></path>
            <path d="M216,300.501863 C216,303.541483 213.538592,306 210.5,306 C207.476303,306 205,303.541483 205,300.501863 C205,297.458517 207.476303,295 210.5,295 C213.538592,295 216,297.458517 216,300.501863 L216,300.501863 Z" id="Fill-13" fill="#FFFFFF"></path>
            <path d="M186.056189,262.087268 C196.034014,266.078406 212.051498,248.535238 248.708044,263.795208 C255.396945,266.582315 259.386366,240 220.077325,240 C186.056189,240 180.033615,259.683667 186.056189,262.087268 L186.056189,262.087268 Z" id="Fill-14" fill="#66320F"></path>
            <path d="M428,310.49376 C428,322.924193 418.823869,333 407.506225,333 C396.176131,333 387,322.924193 387,310.49376 C387,298.075807 396.176131,288 407.506225,288 C418.823869,288 428,298.075807 428,310.49376 L428,310.49376 Z" id="Fill-15" fill="#333333"></path>
            <path d="M403,300.501863 C403,303.541483 400.529929,306 397.49442,306 C394.470071,306 392,303.541483 392,300.501863 C392,297.458517 394.470071,295 397.49442,295 C400.529929,295 403,297.458517 403,300.501863 L403,300.501863 Z" id="Fill-16" fill="#FFFFFF"></path>
            <path d="M437.943811,262.087268 C427.965986,266.078406 411.948502,248.535238 375.291956,263.795208 C368.603055,266.582315 364.613634,240 403.922675,240 C437.943811,240 443.966385,259.683667 437.943811,262.087268 L437.943811,262.087268 Z" id="Fill-17" fill="#66320F"></path>
            <path d="M313,430 C333.98682,430 351,415.753788 351,398.180195 C351,380.606602 275,380.606602 275,398.180195 C275,415.753788 292.01318,430 313,430 Z" id="椭圆形" fill="#F26D6D"></path>
        </g>
    </g>
</svg>