<?xml version="1.0" encoding="UTF-8"?>
<svg width="1024px" height="1024px" viewBox="0 0 1024 1024" version="1.1" xmlns="http://www.w3.org/2000/svg" xmlns:xlink="http://www.w3.org/1999/xlink">
    <!-- Generator: Sketch 64 (93537) - https://sketch.com -->
    <title>面性戴口罩的人</title>
    <desc>Created with Sketch.</desc>
    <g id="面性戴口罩的人" stroke="none" stroke-width="1" fill="none" fill-rule="evenodd">
        <g id="user-5" transform="translate(200.000000, 124.000000)">
            <path d="M627,733.690987 L627,775 L537,775 L537,621 C626.672727,670.570815 627,733.690987 627,733.690987 L627,733.690987 Z" id="Shape" fill="#567DF4"></path>
            <path d="M469,593 C495.07,601.272727 516.85,610.703636 535,620.796364 L535,775 L157,775 L157,701 L469,701 L469,593 Z M156,593 L156,775 L90,775 L90,621.127273 C108.15,611.034545 129.93,601.438182 156,593 Z" id="形状结合" fill="#32C5FF"></path>
            <path d="M494.318471,264 C521.808917,264 544,274.229376 544,296.997988 C544,318.1167 517.834395,342.700201 492,346 C493.490446,335.605634 494.318471,324.716298 494.318471,313.496982 L494.318471,264 L494.318471,264 Z" id="Shape" fill="#F6CDAE"></path>
            <path d="M492.683636,345.891943 C488.381818,376.72767 477.792727,404.265459 461.909091,428.835103 L461.081818,429 C452.809091,385.302311 379.181818,362.876327 379.181818,362.876327 L313,362.876327 L246.818182,362.876327 C246.818182,362.876327 173.190909,385.302311 164.918182,429 L164.090909,428.835103 C148.207273,404.265459 137.618182,376.72767 133.316364,345.891943 C131.827273,335.503435 131,324.620237 131,313.407245 L131,263.938164 L131,206.224235 C131,206.224235 188.909091,206.718926 188.909091,165 L437.090909,165 C437.090909,205.729544 495,206.224235 495,206.224235 L495,263.938164 L495,313.407245 C495,324.620237 494.172727,335.503435 492.683636,345.891943 L492.683636,345.891943 Z" id="Shape" fill="#FFDDC3"></path>
            <path d="M246,322.492419 C246,333.818972 237.047677,343 226.010122,343 C214.968519,343 206,333.818972 206,322.492419 C206,311.181028 214.968519,302 226.010122,302 C237.047677,302 246,311.181028 246,322.492419 L246,322.492419 Z" id="Fill-8" fill="#3B2519"></path>
            <path d="M421,322.492419 C421,333.818972 412.044051,343 401.002025,343 C389.955949,343 381,333.818972 381,322.492419 C381,311.181028 389.955949,302 401.002025,302 C412.044051,302 421,311.181028 421,322.492419 L421,322.492419 Z" id="Fill-11" fill="#3B2519"></path>
            <path d="M193.84895,268.849697 C202.810421,273.339171 217.202504,253.593943 250.143105,270.771561 C256.153239,273.892667 259.737827,244 224.429249,244 C193.84895,244 188.433689,266.132182 193.84895,268.849697 L193.84895,268.849697 Z" id="Fill-10" fill="#D0951F"></path>
            <path d="M430.15215,268.849697 C421.185311,273.339171 406.790769,253.593943 373.848381,270.771561 C367.848736,273.892667 364.267374,244 399.578144,244 C430.15215,244 435.564498,266.132182 430.15215,268.849697 L430.15215,268.849697 Z" id="Fill-13" fill="#D0951F"></path>
            <path d="M495,74.1599514 L495,205.999865 C495,205.999865 437.090909,205.505465 437.090909,164.799892 L188.909091,164.799892 C188.909091,206.494265 131,205.999865 131,205.999865 L131,74.1599514 C131,74.1599514 164.587273,0 313,0 C461.412727,0 495,74.1599514 495,74.1599514 L495,74.1599514 Z" id="Shape" fill="#B1622E"></path>
            <path d="M470,593.691903 L470,701 L157,701 L157,593.691903 C157,593.691903 213.175263,564.305994 231.131579,544.165089 L231.461053,544 C256.501053,570.744479 285.659474,598.809674 313.5,626.709779 C341.340526,598.809674 370.498947,570.744479 395.538947,544 L395.868421,544.165089 C413.824737,564.305994 470,593.691903 470,593.691903 L470,593.691903 Z" id="Shape" fill="#567DF4"></path>
            <path d="M460.175,429.914375 C460.67,432.544375 461,435.174375 461,437.96875 C461,467.2275 432.62,504.540625 394.67,544.648125 C369.59,571.276875 340.385,599.220625 312.5,627 C284.615,599.220625 255.41,571.276875 230.33,544.648125 C192.38,504.540625 164,467.2275 164,437.96875 C164,435.174375 164.33,432.544375 164.825,429.914375 C173.075,386.355 246.5,364 246.5,364 L312.5,364 L378.5,364 C378.5,364 451.925,386.355 460.175,429.914375 L460.175,429.914375 Z" id="Shape" fill="#B0E1F5"></path>
            <path d="M131.681529,313.496982 C131.681529,324.716298 132.509554,335.605634 134,346 C108.165605,342.700201 82,318.1167 82,296.997988 C82,274.229376 104.191083,264 131.681529,264 L131.681529,313.496982 L131.681529,313.496982 Z" id="Shape" fill="#F6CDAE"></path>
            <path d="M90,621 L90,775 L0,775 L0,733.602151 C0,733.602151 0.981818182,671.008602 90,621 L90,621 Z" id="Shape" fill="#567DF4"></path>
        </g>
    </g>
</svg>