<?xml version="1.0" encoding="UTF-8"?>
<svg width="1024px" height="1024px" viewBox="0 0 1024 1024" version="1.1" xmlns="http://www.w3.org/2000/svg" xmlns:xlink="http://www.w3.org/1999/xlink">
    <!-- Generator: Sketch 64 (93537) - https://sketch.com -->
    <title>面性帅男</title>
    <desc>Created with Sketch.</desc>
    <g id="面性帅男" stroke="none" stroke-width="1" fill="none" fill-rule="evenodd">
        <g id="user-2" transform="translate(198.000000, 124.000000)">
            <path d="M313.5,585.25 C361.932632,585.25 395.868421,544 395.868421,544 C413.824737,564.13 470,593.5 470,593.5 L470,775 L157,775 L157,593.5 C157,593.5 213.175263,564.13 231.131579,544 C231.131579,544 265.067368,585.25 313.5,585.25 L313.5,585.25 Z" id="Shape" fill="#567DF4"></path>
            <path d="M156,594 L156,775 L0,775 L0,733.863636 C0,733.863636 1.47789474,643.857273 156,594 L156,594 Z" id="Shape" fill="#6236FF"></path>
            <path d="M626,733.863636 L626,775 L470,775 L470,594 C625.507368,643.363636 626,733.863636 626,733.863636 L626,733.863636 Z" id="Shape" fill="#6236FF"></path>
            <path d="M494,223 C386.058182,223 304.772727,165.355982 304.772727,165.355982 C304.772727,214.76514 132,223 132,223 L132,107.711965 C132,107.711965 148.948182,0.658788774 313,0.658788774 C313,-0.823485968 494,0.658788774 494,0.658788774 L494,223 L494,223 Z" id="Shape" fill="#867469"></path>
            <path d="M231,492 C254.944,504.577465 282.496,511.528169 313,511.528169 C343.504,511.528169 371.056,504.577465 395,492 L395,544.626761 C395,544.626761 361.216,586 313,586 C264.784,586 231,544.626761 231,544.626761 L231,492 L231,492 L231,492 Z" id="Shape" fill="#F6CDAE"></path>
            <path d="M132.881789,313.496982 C132.881789,324.551308 133.533546,335.440644 135,346 C109.744409,342.535211 84,318.1167 84,296.997988 C84,274.229376 105.833866,264 132.881789,264 L132.881789,313.496982 L132.881789,313.496982 Z" id="Shape" fill="#F6CDAE"></path>
            <path d="M495.118211,264 C522.166134,264 544,274.229376 544,296.997988 C544,318.1167 518.255591,342.535211 493,346 C494.466454,335.440644 495.118211,324.551308 495.118211,313.496982 L495.118211,264 L495.118211,264 Z" id="Shape" fill="#F6CDAE"></path>
            <path d="M494,264.571429 L494,313.857143 C494,324.864286 493.341818,335.707143 491.860909,346.221429 C482.975455,410.457143 448.091818,464.342857 395.272727,491.614286 C371.249091,504.1 343.605455,511 313,511 C282.394545,511 254.750909,504.1 230.727273,491.614286 C177.908182,464.342857 143.024545,410.457143 134.139091,346.221429 C132.658182,335.707143 132,324.864286 132,313.857143 L132,264.571429 L132,223.5 C132,223.5 304.772727,215.285714 304.772727,166 C304.772727,166 386.058182,223.5 494,223.5 L494,264.571429 L494,264.571429 Z" id="Shape" fill="#FFDDC3"></path>
            <path d="M240,320.491679 C240,332.923262 230.596253,343 219.002127,343 C207.403747,343 198,332.923262 198,320.491679 C198,308.076738 207.403747,298 219.002127,298 C230.596253,298 240,308.076738 240,320.491679 L240,320.491679 Z" id="Fill-6" fill="#3B2519"></path>
            <path d="M217,312.497799 C217,316.09448 213.870979,319 210.00237,319 C206.129021,319 203,316.09448 203,312.497799 C203,308.90552 206.129021,306 210.00237,306 C213.870979,306 217,308.90552 217,312.497799 L217,312.497799 Z" id="Fill-7" fill="#FFFFFF"></path>
            <path d="M184.092984,264.691838 C194.198352,269.511141 210.448408,248.315288 247.654535,266.754896 C254.427558,270.105301 258.474906,238 218.608102,238 C184.092984,238 177.96563,261.774675 184.092984,264.691838 L184.092984,264.691838 Z" id="Fill-8" fill="#867469"></path>
            <path d="M431,320.491679 C431,332.923262 421.596253,343 410.002127,343 C398.403747,343 389,332.923262 389,320.491679 C389,308.076738 398.403747,298 410.002127,298 C421.596253,298 431,308.076738 431,320.491679 L431,320.491679 Z" id="Fill-9" fill="#3B2519"></path>
            <path d="M408,312.497799 C408,316.09448 404.870979,319 400.99763,319 C397.129021,319 394,316.09448 394,312.497799 C394,308.90552 397.129021,306 400.99763,306 C404.870979,306 408,308.90552 408,312.497799 L408,312.497799 Z" id="Fill-10" fill="#FFFFFF"></path>
            <path d="M441.913718,264.691838 C431.807202,269.511141 415.5553,248.315288 378.344946,266.754896 C371.571154,270.105301 367.52768,238 407.394679,238 C441.913718,238 448.024433,261.774675 441.913718,264.691838 L441.913718,264.691838 Z" id="Fill-11" fill="#867469"></path>
            <path d="M347.913718,436.691838 C337.807202,441.511141 321.5553,420.315288 284.344946,438.754896 C277.571154,442.105301 273.52768,410 313.394679,410 C347.913718,410 354.024433,433.774675 347.913718,436.691838 L347.913718,436.691838 Z" id="Fill-11备份" fill="#ED9292" transform="translate(315.000000, 424.500000) scale(1, -1) translate(-315.000000, -424.500000) "></path>
        </g>
    </g>
</svg>