<?xml version="1.0" encoding="UTF-8"?>
<svg width="1024px" height="1024px" viewBox="0 0 1024 1024" version="1.1" xmlns="http://www.w3.org/2000/svg" xmlns:xlink="http://www.w3.org/1999/xlink">
    <!-- Generator: Sketch 64 (93537) - https://sketch.com -->
    <title>面性胡子大叔</title>
    <desc>Created with Sketch.</desc>
    <g id="面性胡子大叔" stroke="none" stroke-width="1" fill="none" fill-rule="evenodd">
        <g id="man-1" transform="translate(220.000000, 112.000000)">
            <polygon id="Fill-1" fill="#F6CDAE" points="230 730 351 730 351 596 230 596"></polygon>
            <path d="M116,387.010235 C116,424.010694 90.0340756,454 58.0126367,454 C25.9659244,454 0,424.010694 0,387.010235 C0,350.004659 25.9659244,320 58.0126367,320 C90.0340756,320 116,350.004659 116,387.010235 L116,387.010235 Z" id="Fill-3" fill="#F6CDAE"></path>
            <path d="M582,387.010235 C582,424.010694 556.034604,454 524.002528,454 C491.970451,454 466,424.010694 466,387.010235 C466,350.004659 491.970451,320 524.002528,320 C556.034604,320 582,350.004659 582,387.010235 L582,387.010235 Z" id="Fill-4" fill="#F6CDAE"></path>
            <path d="M524.763401,261.091187 C524.763401,162.866646 452.770253,91 291.992359,91 C131.229773,91 59.2366248,162.866646 59.2366248,261.091187 C59.2366248,359.295354 42.4348222,618 291.992359,618 C541.565203,618 524.763401,359.295354 524.763401,261.091187 L524.763401,261.091187 Z" id="Fill-5" fill="#FFDDC3"></path>
            <path d="M204,369.990015 C204,384.907914 192.581165,397 178.502582,397 C164.418835,397 153,384.907914 153,369.990015 C153,355.092086 164.418835,343 178.502582,343 C192.581165,343 204,355.092086 204,369.990015 L204,369.990015 Z" id="Fill-6" fill="#3B2519"></path>
            <path d="M176,359.997291 C176,364.423976 172.423976,368 168.002709,368 C163.576024,368 160,364.423976 160,359.997291 C160,355.576024 163.576024,352 168.002709,352 C172.423976,352 176,355.576024 176,359.997291 L176,359.997291 Z" id="Fill-7" fill="#FFFFFF"></path>
            <path d="M136.481681,303.214288 C148.46376,309.030687 167.731683,283.449485 211.84752,305.704185 C219.878391,309.747777 224.677388,271 177.40675,271 C136.481681,271 129.216389,299.693573 136.481681,303.214288 L136.481681,303.214288 Z" id="Fill-8" fill="#B1622E"></path>
            <path d="M433,369.990015 C433,384.907914 421.581165,397 407.502582,397 C393.418835,397 382,384.907914 382,369.990015 C382,355.092086 393.418835,343 407.502582,343 C421.581165,343 433,355.092086 433,369.990015 L433,369.990015 Z" id="Fill-9" fill="#3B2519"></path>
            <path d="M404,359.997291 C404,364.423976 400.423976,368 395.997291,368 C391.576024,368 388,364.423976 388,359.997291 C388,355.576024 391.576024,352 395.997291,352 C400.423976,352 404,355.576024 404,359.997291 L404,359.997291 Z" id="Fill-10" fill="#FFFFFF"></path>
            <path d="M445.526266,303.214288 C433.542825,309.030687 414.272713,283.449485 370.151865,305.704185 C362.120082,309.747777 357.325678,271 404.596548,271 C445.526266,271 452.771828,299.693573 445.526266,303.214288 L445.526266,303.214288 Z" id="Fill-11" fill="#B1622E"></path>
            <path d="M332.526266,509.214288 C320.542825,515.030687 301.272713,489.449485 257.151865,511.704185 C249.120082,515.747777 244.325678,477 291.596548,477 C332.526266,477 339.771828,505.693573 332.526266,509.214288 L332.526266,509.214288 Z" id="Fill-11备份" fill="#ED9292" transform="translate(293.500000, 494.500000) scale(1, -1) translate(-293.500000, -494.500000) "></path>
            <path d="M0,800 C0,738.879375 153.805779,649 292,649 L296.150127,649.026845 C433.247846,650.794712 584,739.490581 584,800 L584,800 L0,800 Z" id="形状结合" fill="#40CBD2"></path>
            <path d="M291.409966,648 C262.106455,648 232.084371,652.118295 203,659.14091 C203.178369,659.402146 235.269536,701 291.409966,701 C343.407135,701 377.985277,665.384942 383,659.883638 C352.921857,652.37953 321.788788,648 291.409966,648 L291.409966,648 Z" id="Fill-17" fill="#0091FF"></path>
            <path d="M230,653.489654 C230,653.489654 247.706188,674 290.502573,674 C333.314395,674 351,653.489654 351,653.489654 C351,653.489654 288.228195,632.137932 230,653.489654 L230,653.489654 Z" id="Fill-18" fill="#F6CDAE"></path>
            <path d="M350.572688,584.887955 C411.407691,584.887955 480.378147,522.098747 471.167614,536.012557 C458.752519,554.75591 416.819267,622 289.804878,622 L291.999,621.988 L292,622 L290.908,621.994 L289.804878,622 L289.804,621.988 L288.260231,621.979943 C165.676698,620.659968 124.968819,554.568477 112.825106,536.012557 C103.709584,522.098747 171.848746,584.887955 231.955013,584.887955 C257.819081,584.887955 257.226224,566.691417 289.803542,565.908838 L289.804878,565.882852 C290.177326,565.882852 290.545704,565.884973 290.910088,565.889172 C291.268589,565.884972 291.632285,565.882852 292,565.882852 L292.000784,565.908174 C325.01631,566.68106 324.412888,584.887955 350.572688,584.887955 Z" id="形状结合" fill="#EBA87A"></path>
            <path d="M294.098712,0 L294.098,0.008 L298.045879,0.0229651964 C499.164095,1.53835198 537.058971,78.0184324 546.614404,220.166682 C556.26123,363.745685 534.476421,413.177608 520.062566,412.999521 C505.623081,412.801081 513.373348,248.370609 493.572237,212.992312 C457.672969,148.842974 393.697981,195.54525 294.100305,196.229286 C293.731366,196.236848 293.364501,196.236214 292.998115,196.234952 L291.901288,196.236848 L291.901288,196.236848 C192.288471,195.54525 128.317854,148.842974 92.4210372,212.992312 C72.6212797,248.370609 80.3710165,412.801081 65.9376442,412.999521 C51.5196484,413.177608 29.7363272,363.745685 39.3876199,220.166682 C49.0389125,76.5825915 87.5979536,0 294.098712,0 L291.901,0.008 L291.901288,0 L292.999,0.004 L294.098712,0 Z" id="形状结合" fill="#B1622E"></path>
            <path d="M164,673 C73.2159282,703.216287 0,758.359501 0,800 L164,800 L164,673 Z" id="Fill-23" fill="#6236FF"></path>
            <path d="M171,800 L171,661 C171,661 148.199779,670.051474 140.287873,674.286802 L117,800 L171,800 Z" id="Fill-24" fill="#FFFFFF"></path>
            <path d="M420,673 C510.784072,703.216287 584,758.359501 584,800 L420,800 L420,673 Z" id="Fill-25" fill="#6236FF"></path>
            <path d="M412,800 L412,661 C412,661 434.811717,670.051474 442.720707,674.286802 L466,800 L412,800 Z" id="Fill-26" fill="#FFFFFF"></path>
        </g>
    </g>
</svg>