<?xml version="1.0" encoding="UTF-8"?>
<svg width="1024px" height="1024px" viewBox="0 0 1024 1024" version="1.1" xmlns="http://www.w3.org/2000/svg" xmlns:xlink="http://www.w3.org/1999/xlink">
    <!-- Generator: Sketch 64 (93537) - https://sketch.com -->
    <title>面性衬衣男士</title>
    <desc>Created with Sketch.</desc>
    <g id="面性衬衣男士" stroke="none" stroke-width="1" fill="none" fill-rule="evenodd">
        <g id="boy-4" transform="translate(224.000000, 110.000000)">
            <path d="M338,607 L338,663 L332.402365,663.001104 C336.003574,664.07323 338,664.812013 338,664.812013 C338,664.812013 321.191367,686 280.502445,686 C239.828195,686 223,664.812013 223,664.812013 C224.60638,664.171182 226.216399,663.567554 227.828491,662.99951 L223,663 L223,607 L338,607 Z" id="形状结合" fill="#F6CDAE"></path>
            <path d="M223,622.199509 C223,622.199509 271.367,653.083775 338,645.922703 L338,607 L223,607 L223,622.199509 Z" id="Fill-2" fill="#FCBC85"></path>
            <path d="M113,407.009777 C113,442.353498 87.7056081,471 56.4926141,471 C25.2943919,471 0,442.353498 0,407.009777 C0,371.661167 25.2943919,343 56.4926141,343 C87.7056081,343 113,371.661167 113,407.009777 L113,407.009777 Z" id="Fill-4" fill="#FDCC9B"></path>
            <path d="M561,407.009777 C561,442.353498 535.706123,471 504.502462,471 C473.298801,471 448,442.353498 448,407.009777 C448,371.661167 473.298801,343 504.502462,343 C535.706123,343 561,371.661167 561,407.009777 L561,407.009777 Z" id="Fill-6" fill="#FDCC9B"></path>
            <path d="M503.77254,283.952529 C503.77254,189.292588 434.560243,120 279.992655,120 C125.420161,120 56.2274848,189.27295 56.2274848,283.952529 C56.2274848,378.612469 40.0746788,628 279.992655,628 C519.925346,627.980362 503.77254,378.612469 503.77254,283.952529 L503.77254,283.952529 Z" id="Fill-7" fill="#FFDDC3"></path>
            <path d="M196,392.4902 C196,407.131842 185.033404,419 171.5124,419 C157.986436,419 147,407.131842 147,392.4902 C147,377.868158 157.986436,366 171.5124,366 C185.033404,366 196,377.868158 196,392.4902 L196,392.4902 Z" id="Fill-8" fill="#3B2519"></path>
            <path d="M168,379.99763 C168,383.870979 164.852015,387 161.00237,387 C157.129021,387 154,383.870979 154,379.99763 C154,376.129021 157.129021,373 161.00237,373 C164.852015,373 168,376.129021 168,379.99763 L168,379.99763 Z" id="Fill-9" fill="#FFFFFF"></path>
            <path d="M132.355921,326.292211 C143.774569,331.945622 162.112868,307.081262 204.085569,328.712336 C211.743643,332.642618 216.311102,295 171.32114,295 C132.355921,295 125.45583,322.870155 132.355921,326.292211 L132.355921,326.292211 Z" id="Fill-10" fill="#74482B"></path>
            <path d="M416,392.4902 C416,407.131842 405.028962,419 391.502481,419 C377.971038,419 367,407.131842 367,392.4902 C367,377.868158 377.971038,366 391.502481,366 C405.028962,366 416,377.868158 416,392.4902 L416,392.4902 Z" id="Fill-11" fill="#3B2519"></path>
            <path d="M388,379.99763 C388,383.870979 384.856273,387 381.007102,387 C377.143727,387 374,383.870979 374,379.99763 C374,376.129021 377.143727,373 381.007102,373 C384.856273,373 388,376.129021 388,379.99763 L388,379.99763 Z" id="Fill-12" fill="#FFFFFF"></path>
            <path d="M427.645482,326.292211 C416.219993,331.945622 397.878561,307.081262 355.903582,328.712336 C348.258873,332.642618 343.695525,295 388.68828,295 C427.645482,295 434.54186,322.870155 427.645482,326.292211 L427.645482,326.292211 Z" id="Fill-13" fill="#74482B"></path>
            <path d="M280.502441,530.333543 C242.746379,530.333543 220,489.26124 220,499.698713 C220,510.071033 230.92412,551 280.502441,551 C330.07588,551 341,510.071033 341,499.698713 C341,489.26124 318.253621,530.333543 280.502441,530.333543 L280.502441,530.333543 Z" id="Fill-16" fill="#F7945E"></path>
            <path d="M226.976644,663.303064 C225.64921,663.781402 224.32337,664.284083 223,664.812013 C223,664.812013 239.828195,686 280.502445,686 C321.191367,686 338,664.812013 338,664.812013 C338,664.812013 336.52745,664.267092 333.830445,663.434083 C448.16277,681.639354 557.471512,752.203553 559.956793,803.236761 L560,805 L0,805 C0,754.176784 109.079901,682.787899 223.909238,663.795147 Z" id="形状结合" fill="#347091"></path>
            <path d="M56.1349236,391.974438 C75.9854736,391.974438 93.2579028,332.522285 91.513015,294.432451 C89.792634,256.322977 113.647604,228.612353 160.499803,207.839204 C160.499803,207.839204 294.728732,245.929038 388.565468,245.929038 C511.633977,245.929038 478.99085,390.825557 501.370507,391.994077 C523.755066,393.142958 547.953131,226.884121 522.010178,131.625167 C522.010178,131.625167 561.779897,110.852018 573.876479,84.8647157 C585.997568,58.8970521 542.649848,83.1413937 503.806488,84.8647157 C503.806488,84.8647157 572.827586,39.8374057 575.944857,8.67031781 C579.06703,-22.4967701 449.141504,41.5803667 304.497163,25.9870032 C159.847921,10.3936398 40.3574124,91.2719384 34.4806693,214.76195 C29.2901181,323.62091 38.0390642,391.974438 56.1349236,391.974438 L56.1349236,391.974438 Z" id="Fill-23" fill="#74482B"></path>
            <path d="M222.304046,650.31175 L280,685.47114 L219.178317,746 L174,675.759658 C174,675.759658 203.554578,646.693843 222.304046,650.31175 Z M337.693718,650.31175 C356.463682,646.693843 386,675.759658 386,675.759658 L386,675.759658 L340.819592,746 L280,685.47114 Z" id="形状结合" fill="#80CEF3"></path>
            <polygon id="Fill-27" fill="#65C8F2" points="280 686 280 805 289 695.031599"></polygon>
            <path d="M276,718.992593 C276,723.97037 271.965432,728 267.012346,728 C262.034568,728 258,723.97037 258,718.992593 C258,714.034568 262.034568,710 267.012346,710 C271.965432,710 276,714.034568 276,718.992593 L276,718.992593 Z" id="Fill-28" fill="#FFFFFF"></path>
            <path d="M276,791.012346 C276,795.965432 271.965432,800 267.012346,800 C262.034568,800 258,795.965432 258,791.012346 C258,786.034568 262.034568,782 267.012346,782 C271.965432,782 276,786.034568 276,791.012346 L276,791.012346 Z" id="Fill-29" fill="#FFFFFF"></path>
        </g>
    </g>
</svg>