<?xml version="1.0" encoding="UTF-8"?>
<svg width="1024px" height="1024px" viewBox="0 0 1024 1024" version="1.1" xmlns="http://www.w3.org/2000/svg" xmlns:xlink="http://www.w3.org/1999/xlink">
    <!-- Generator: Sketch 64 (93537) - https://sketch.com -->
    <title>面性淑女</title>
    <desc>Created with Sketch.</desc>
    <g id="面性淑女" stroke="none" stroke-width="1" fill="none" fill-rule="evenodd">
        <g id="user-24" transform="translate(197.000000, 123.000000)">
            <path d="M472,595.5 C472,595.5 463.241053,678 389.368421,678 C315.495789,678 315,612 315,612 C363.587368,612 397.631579,546 397.631579,546 C415.645263,566.13 472,595.5 472,595.5 L472,595.5 Z" id="Shape" fill="#FFF6DE"></path>
            <path d="M315,612 C315,612 314.504211,678 240.631579,678 C166.758947,678 158,595.5 158,595.5 C158,595.5 214.354737,566.13 232.368421,546 C232.368421,546 266.412632,612 315,612 L315,612 Z" id="Shape" fill="#FFF6DE"></path>
            <path d="M507.027368,608.236364 C627.504211,659.196364 628,735.636364 628,735.636364 L628,777 L0,777 L0,735.636364 C0,735.636364 1.32210526,659.692727 121.137895,608.401818 C132.045263,603.769091 143.944211,599.136364 157,595 C157,595 165.758947,677.727273 239.631579,677.727273 C313.504211,677.727273 314,611.545455 314,611.545455 C314,611.545455 314.495789,677.727273 388.368421,677.727273 C462.241053,677.727273 471,595 471,595 C484.055789,599.136364 496.12,603.603636 507.027368,608.236364 L507.027368,608.236364 Z" id="Shape" fill="#FF9854"></path>
            <path d="M546,132.138006 L546,330.345015 L546,495.517522 C546,495.517522 543.519643,568.358598 507.637143,607.834827 C496.723571,603.209997 484.6525,598.75034 471.589286,594.621027 C471.589286,594.621027 415.2025,565.220321 397.178571,545.069275 L397.178571,492.544417 C459.022143,460.666123 496.392857,392.61505 496.392857,313.827764 L496.392857,222.982885 L430.25,140.396631 C342.445357,239.004618 132.607143,222.982885 132.607143,222.982885 L132.607143,313.827764 C132.607143,392.61505 169.977857,460.666123 231.821429,492.544417 L231.821429,545.069275 C213.7975,565.220321 157.410714,594.621027 157.410714,594.621027 C144.3475,598.75034 132.441786,603.37517 121.528214,608 C85.4803571,568.523771 83,495.517522 83,495.517522 L83,330.345015 L83,132.138006 C83,132.138006 116.5675,0 314.5,0 C512.4325,0 546,132.138006 546,132.138006 L546,132.138006 Z" id="Shape" fill="#66320F"></path>
            <path d="M232,493 C256.236,505.490251 284.124,512.392758 315,512.392758 C345.876,512.392758 373.764,505.490251 398,493 L398,545.261838 C398,545.261838 363.804,611 315,611 C266.196,611 232,545.261838 232,545.261838 L232,493 L232,493 Z" id="Shape" fill="#F6CDAE"></path>
            <path d="M397.727273,492.543111 C373.570909,505.074667 345.774545,512 315,512 C284.225455,512 256.429091,505.074667 232.272727,492.543111 C170.392727,460.719556 133,392.785333 133,314.133333 L133,223.444444 C133,223.444444 342.961818,239.438667 430.818182,141 L497,223.444444 L497,314.133333 C497,392.785333 459.607273,460.719556 397.727273,492.543111 L397.727273,492.543111 Z" id="Shape" fill="#FFDDC3"></path>
            <g id="编组" transform="translate(187.000000, 251.000000)">
                <path d="M54,70.4937598 C54,82.9241934 44.8238688,93 33.4896245,93 C22.1761312,93 13,82.9241934 13,70.4937598 C13,58.0758066 22.1761312,48 33.4896245,48 C44.8238688,48 54,58.0758066 54,70.4937598 L54,70.4937598 Z" id="Fill-12" fill="#333333"></path>
                <path d="M32,60.5018625 C32,63.5414832 29.5385917,66 26.5,66 C23.4763033,66 21,63.5414832 21,60.5018625 C21,57.4585168 23.4763033,55 26.5,55 C29.5385917,55 32,57.4585168 32,60.5018625 L32,60.5018625 Z" id="Fill-13" fill="#FFFFFF"></path>
                <path d="M2.05618928,22.0872684 C12.0340139,26.0784062 28.0514979,8.53523758 64.7080437,23.7952078 C71.396945,26.5823152 75.3863664,0 36.0773251,0 C2.05618928,0 -3.96638467,19.683667 2.05618928,22.0872684 L2.05618928,22.0872684 Z" id="Fill-14" fill="#66320F"></path>
                <path d="M244,70.4937598 C244,82.9241934 234.823869,93 223.506225,93 C212.176131,93 203,82.9241934 203,70.4937598 C203,58.0758066 212.176131,48 223.506225,48 C234.823869,48 244,58.0758066 244,70.4937598 L244,70.4937598 Z" id="Fill-15" fill="#333333"></path>
                <path d="M219,60.5018625 C219,63.5414832 216.529929,66 213.49442,66 C210.470071,66 208,63.5414832 208,60.5018625 C208,57.4585168 210.470071,55 213.49442,55 C216.529929,55 219,57.4585168 219,60.5018625 L219,60.5018625 Z" id="Fill-16" fill="#FFFFFF"></path>
                <path d="M253.943811,22.0872684 C243.965986,26.0784062 227.948502,8.53523758 191.291956,23.7952078 C184.603055,26.5823152 180.613634,0 219.922675,0 C253.943811,0 259.966385,19.683667 253.943811,22.0872684 L253.943811,22.0872684 Z" id="Fill-17" fill="#66320F"></path>
                <path d="M129,190 C149.98682,190 167,175.753788 167,158.180195 C167,140.606602 91,140.606602 91,158.180195 C91,175.753788 108.01318,190 129,190 Z" id="椭圆形" fill="#F26D6D"></path>
            </g>
        </g>
    </g>
</svg>