<?xml version="1.0" encoding="UTF-8"?>
<svg width="1024px" height="1024px" viewBox="0 0 1024 1024" version="1.1" xmlns="http://www.w3.org/2000/svg" xmlns:xlink="http://www.w3.org/1999/xlink">
    <!-- Generator: Sketch 64 (93537) - https://sketch.com -->
    <title>面性蓝发小伙</title>
    <desc>Created with Sketch.</desc>
    <g id="面性蓝发小伙" stroke="none" stroke-width="1" fill="none" fill-rule="evenodd">
        <g id="user-1" transform="translate(197.425000, 121.775000)">
            <path d="M629.575,737.861364 L629.575,779.225 L0.575,779.225 L0.575,737.861364 C0.575,737.861364 2.06473684,647.357727 157.825,597.225 C157.825,597.225 191.426842,671.679545 315.075,671.679545 C438.723158,671.679545 472.325,597.225 472.325,597.225 C629.078421,646.861364 629.575,737.861364 629.575,737.861364 L629.575,737.861364 Z" id="Shape" fill="#44D7B6"></path>
            <path d="M496.575,74.745 L496.575,207.225 C430.889545,207.225 438.665909,149.265 438.665909,149.265 L190.484091,149.265 C190.484091,149.265 198.260455,207.225 132.575,207.225 L132.575,74.745 C132.575,74.745 141.344091,0.225 314.575,0.225 C487.805909,0.225 496.575,74.745 496.575,74.745 L496.575,74.745 Z" id="Shape" fill="#3652A6"></path>
            <path d="M133.415256,315.721982 C133.415256,326.776308 134.245927,337.665644 135.575,348.225 C109.824201,344.760211 83.575,320.3417 83.575,299.222988 C83.575,276.454376 105.836981,266.225 133.415256,266.225 L133.415256,315.721982 L133.415256,315.721982 Z" id="Shape" fill="#F6CDAE"></path>
            <path d="M496.734744,266.225 C524.313019,266.225 546.575,276.454376 546.575,299.222988 C546.575,320.3417 520.325799,344.760211 494.575,348.225 C495.904073,337.665644 496.734744,326.776308 496.734744,315.721982 L496.734744,266.225 L496.734744,266.225 Z" id="Shape" fill="#F6CDAE"></path>
            <path d="M397.969737,547.927247 C416.040789,568.146348 472.575,597.646348 472.575,597.646348 C472.575,597.646348 438.919737,672.225 315.075,672.225 C191.230263,672.225 157.575,597.646348 157.575,597.646348 C157.575,597.646348 214.109211,568.146348 232.180263,547.927247 L232.180263,531.354213 L232.180263,495.225 C232.511842,495.556461 233.009211,495.722191 233.340789,495.887921 C257.214474,507.986236 284.735526,514.78118 315.075,514.78118 C345.414474,514.78118 372.935526,507.986236 396.809211,495.887921 C397.140789,495.722191 397.638158,495.556461 397.969737,495.225 L397.969737,531.354213 L397.969737,547.927247 L397.969737,547.927247 Z" id="Shape" fill="#F6CDAE"></path>
            <path d="M496.575,223.884091 L496.575,265.361364 L496.575,315.134091 C496.575,326.25 495.747727,337.2 494.424091,347.818182 L494.424091,347.984091 C485.489545,412.854545 450.413182,467.106818 397.302273,494.647727 C396.971364,494.979545 396.475,495.145455 396.144091,495.311364 C372.318636,507.422727 344.853182,514.225 314.575,514.225 C284.296818,514.225 256.831364,507.422727 233.005909,495.311364 C232.675,495.145455 232.178636,494.979545 231.847727,494.647727 C178.736818,467.106818 143.660455,412.854545 134.725909,347.984091 L134.725909,347.818182 C133.402273,337.2 132.575,326.25 132.575,315.134091 L132.575,265.361364 L132.575,223.884091 L132.575,207.293182 C198.260455,207.293182 190.484091,149.225 190.484091,149.225 L438.665909,149.225 C438.665909,149.225 430.889545,207.293182 496.575,207.293182 L496.575,223.884091 L496.575,223.884091 Z" id="Shape" fill="#FFDDC3"></path>
            <path d="M248.575,326.717419 C248.575,338.043972 239.622677,347.225 228.585122,347.225 C217.543519,347.225 208.575,338.043972 208.575,326.717419 C208.575,315.406028 217.543519,306.225 228.585122,306.225 C239.622677,306.225 248.575,315.406028 248.575,326.717419 L248.575,326.717419 Z" id="Fill-8" fill="#3B2519"></path>
            <path d="M224.575,315.723137 C224.575,318.766483 221.876727,321.225 218.577032,321.225 C215.257018,321.225 212.575,318.766483 212.575,315.723137 C212.575,312.683517 215.257018,310.225 218.577032,310.225 C221.876727,310.225 224.575,312.683517 224.575,315.723137 L224.575,315.723137 Z" id="Fill-9" fill="#FFFFFF"></path>
            <path d="M196.42395,273.074697 C205.385421,277.564171 219.777504,257.818943 252.718105,274.996561 C258.728239,278.117667 262.312827,248.225 227.004249,248.225 C196.42395,248.225 191.008689,270.357182 196.42395,273.074697 L196.42395,273.074697 Z" id="Fill-10" fill="#3652A6"></path>
            <path d="M423.575,326.717419 C423.575,338.043972 414.619051,347.225 403.577025,347.225 C392.530949,347.225 383.575,338.043972 383.575,326.717419 C383.575,315.406028 392.530949,306.225 403.577025,306.225 C414.619051,306.225 423.575,315.406028 423.575,326.717419 L423.575,326.717419 Z" id="Fill-11" fill="#3B2519"></path>
            <path d="M401.575,315.723137 C401.575,318.766483 398.880377,321.225 395.581087,321.225 C392.269623,321.225 389.575,318.766483 389.575,315.723137 C389.575,312.683517 392.269623,310.225 395.581087,310.225 C398.880377,310.225 401.575,312.683517 401.575,315.723137 L401.575,315.723137 Z" id="Fill-12" fill="#FFFFFF"></path>
            <path d="M432.72715,273.074697 C423.760311,277.564171 409.365769,257.818943 376.423381,274.996561 C370.423736,278.117667 366.842374,248.225 402.153144,248.225 C432.72715,248.225 438.139498,270.357182 432.72715,273.074697 L432.72715,273.074697 Z" id="Fill-13" fill="#3652A6"></path>
            <path d="M343.72715,443.074697 C334.760311,447.564171 320.365769,427.818943 287.423381,444.996561 C281.423736,448.117667 277.842374,418.225 313.153144,418.225 C343.72715,418.225 349.139498,440.357182 343.72715,443.074697 L343.72715,443.074697 Z" id="Fill-13备份" fill="#F7945E" transform="translate(314.575000, 431.725000) scale(1, -1) translate(-314.575000, -431.725000) "></path>
        </g>
    </g>
</svg>