<?xml version="1.0" encoding="UTF-8"?>
<svg width="1024px" height="1024px" viewBox="0 0 1024 1024" version="1.1" xmlns="http://www.w3.org/2000/svg" xmlns:xlink="http://www.w3.org/1999/xlink">
    <!-- Generator: Sketch 64 (93537) - https://sketch.com -->
    <title>面性大爷</title>
    <desc>Created with Sketch.</desc>
    <g id="面性大爷" stroke="none" stroke-width="1" fill="none" fill-rule="evenodd">
        <g id="user-37" transform="translate(199.000000, 123.000000)">
            <polygon id="Shape" fill="#FFCB3D" points="350.72 554 368 595.342079 341 638.228052 359 689.691221 359.18 690.034309 314 724 268.82 690.034309 269 689.691221 287 639.257316 260 595.342079 277.28 554 314 561.0333"></polygon>
            <path d="M470,597.408451 L354.665,692 L354.5,691.657277 L338,640.248826 L362.75,597.408451 L346.91,556.110329 L395.75,546 C413.735,566.906103 470,597.408451 470,597.408451 L470,597.408451 Z" id="Shape" fill="#32C5FF"></path>
            <path d="M289,641.276995 L272.5,691.657277 L272.335,692 L157,597.408451 C157,597.408451 213.265,566.906103 231.25,546 L280.09,556.110329 L264.25,597.408451 L289,641.276995 L289,641.276995 Z" id="Shape" fill="#32C5FF"></path>
            <path d="M628,736.863636 L628,778 L0,778 L0,736.863636 C0,736.863636 1.48736842,646.857273 157,597 L272.518947,687.829091 L314,720.409091 L355.481053,687.829091 L471,597 C627.504211,646.363636 628,736.863636 628,736.863636 L628,736.863636 Z" id="Shape" fill="#254D8D"></path>
            <path d="M494,91.2592593 L494,224 C494,224 395.272727,161.777778 395.272727,99.5555556 C395.272727,99.5555556 355.123636,124.444444 313,124.444444 C270.876364,124.444444 230.727273,99.5555556 230.727273,99.5555556 C230.727273,161.777778 132,224 132,224 L132,91.2592593 C132,91.2592593 174.617273,0 313,0 C451.382727,0 494,91.2592593 494,91.2592593 L494,91.2592593 Z" id="Shape" fill="#F2F2F2"></path>
            <path d="M314.5,513.478469 C344.695,513.478469 372.085,506.710526 395.845,494.660287 C396.175,494.495215 396.67,494.330144 397,494 L397,538.239234 L397,546.492823 L348.16,556.232057 L314.5,563 L280.84,556.232057 L232,546.492823 L232,538.239234 L232,494 C232.33,494.330144 232.825,494.495215 233.155,494.660287 C256.915,506.710526 284.305,513.478469 314.5,513.478469 L314.5,513.478469 Z" id="Shape" fill="#F6CDAE"></path>
            <path d="M131.881789,314.89336 C131.881789,325.812877 132.696486,336.569416 134,347 C108.744409,343.577465 83,319.45674 83,298.595573 C83,276.104628 104.833866,266 131.881789,266 L131.881789,314.89336 L131.881789,314.89336 Z" id="Shape" fill="#F6CDAE"></path>
            <path d="M496.118211,266 C523.166134,266 545,276.104628 545,298.595573 C545,319.45674 519.255591,343.577465 494,347 C495.303514,336.569416 496.118211,325.812877 496.118211,314.89336 L496.118211,266 L496.118211,266 Z" id="Shape" fill="#F6CDAE"></path>
            <path d="M134.139091,347.3044 C132.822727,336.7316 132,325.8284 132,314.76 L132,265.2 L132,223.9 C132,223.9 230.727273,161.95 230.727273,100 C230.727273,100 270.876364,124.78 313,124.78 C355.123636,124.78 395.272727,100 395.272727,100 C395.272727,161.95 494,223.9 494,223.9 L494,265.2 L494,314.76 C494,325.8284 493.177273,336.7316 491.860909,347.3044 L491.860909,347.4696 C482.975455,412.0628 448.091818,466.0832 395.272727,493.5064 C394.943636,493.8368 394.45,494.002 394.120909,494.1672 C370.426364,506.2268 343.111818,513 313,513 C282.888182,513 255.573636,506.2268 231.879091,494.1672 C231.55,494.002 231.056364,493.8368 230.727273,493.5064 C177.908182,466.0832 143.024545,412.0628 134.139091,347.4696 L134.139091,347.3044 L134.139091,347.3044 L134.139091,347.3044 Z" id="Shape" fill="#FFDDC3"></path>
            <path d="M245,318.490062 C245,330.372007 236.267949,340 225.501975,340 C214.732051,340 206,330.372007 206,318.490062 C206,306.627993 214.732051,297 225.501975,297 C236.267949,297 245,306.627993 245,318.490062 L245,318.490062 Z" id="Fill-6" fill="#3B2519"></path>
            <path d="M222,308.501863 C222,311.541483 219.541483,314 216.501863,314 C213.458517,314 211,311.541483 211,308.501863 C211,305.458517 213.458517,303 216.501863,303 C219.541483,303 222,305.458517 222,308.501863 L222,308.501863 Z" id="Fill-7" fill="#FFFFFF"></path>
            <path d="M194.883686,264.850546 C203.978517,269.322031 218.603567,249.603705 252.089082,266.771287 C258.184803,269.894412 261.827415,240 225.947292,240 C194.883686,240 189.369067,262.134619 194.883686,264.850546 L194.883686,264.850546 Z" id="Fill-8" fill="#F2F2F2"></path>
            <path d="M422,318.490062 C422,330.372007 413.267949,340 402.501975,340 C391.732051,340 383,330.372007 383,318.490062 C383,306.627993 391.732051,297 402.501975,297 C413.267949,297 422,306.627993 422,318.490062 L422,318.490062 Z" id="Fill-9" fill="#3B2519"></path>
            <path d="M399,308.501863 C399,311.541483 396.541483,314 393.498137,314 C390.458517,314 388,311.541483 388,308.501863 C388,305.458517 390.458517,303 393.498137,303 C396.541483,303 399,305.458517 399,308.501863 L399,308.501863 Z" id="Fill-10" fill="#FFFFFF"></path>
            <path d="M430.122346,264.850546 C421.01088,269.322031 406.384169,249.603705 372.910452,266.771287 C366.814038,269.894412 363.174912,240 399.055211,240 C430.122346,240 435.62199,262.134619 430.122346,264.850546 L430.122346,264.850546 Z" id="Fill-11" fill="#F2F2F2"></path>
            <path d="M315.492038,417.708004 C289.594679,417.708004 274,402.726766 274,409.985165 C274,417.227125 281.484172,431 315.492038,431 C349.515828,431 357,417.227125 357,409.985165 C357,402.726766 341.405321,417.708004 315.492038,417.708004 L315.492038,417.708004 Z" id="Fill-12" fill="#F7945E"></path>
        </g>
    </g>
</svg>