<?xml version="1.0" encoding="UTF-8"?>
<svg width="1024px" height="1024px" viewBox="0 0 1024 1024" version="1.1" xmlns="http://www.w3.org/2000/svg" xmlns:xlink="http://www.w3.org/1999/xlink">
    <!-- Generator: Sketch 64 (93537) - https://sketch.com -->
    <title>面性学霸</title>
    <desc>Created with Sketch.</desc>
    <g id="面性学霸" stroke="none" stroke-width="1" fill="none" fill-rule="evenodd">
        <g id="user-28" transform="translate(199.000000, 123.000000)">
            <path d="M395.631579,546 C413.645263,566.170667 470,595.6 470,595.6 L314,669.526 L314,670 L313.5,669.763 L313,670 L313,669.526 L157,595.6 C157,595.6 213.354737,566.170667 231.368421,546 C231.368421,546 265.178892,587.049549 313.499272,587.33187 L313,587.333333 C361.587368,587.333333 395.631579,546 395.631579,546 Z" id="形状结合" fill="#FFD04D"></path>
            <path d="M470.25,596 L313.5,670.454545 L156.75,596 C1.485,646.132727 0,736.636364 0,736.636364 L0,778 L627,778 L627,736.636364 C627,736.636364 626.505,645.636364 470.25,596 L470.25,596 Z" id="Shape" fill="#44D7B6"></path>
            <path d="M495,149 L132,149 C132,149 141.735,0 313.5,0 C485.265,0 495,149 495,149 L495,149 Z" id="Shape" fill="#532B51"></path>
            <path d="M545,149 L545,173.428571 C545,191.342857 530.15,206 512,206 L495.5,206 L132.5,206 L116,206 C106.925,206 98.675,202.417143 92.735,196.391429 C86.63,190.528571 83,182.385714 83,173.428571 L83,149 L132.5,149 L495.5,149 L545,149 L545,149 Z" id="Shape" fill="#431C4C"></path>
            <path d="M232,493 C256.09,505.577465 283.81,512.528169 314.5,512.528169 C345.19,512.528169 372.91,505.577465 397,493 L397,545.626761 C397,545.626761 363.01,587 314.5,587 C265.99,587 232,545.626761 232,545.626761 L232,493 L232,493 Z" id="Shape" fill="#F6CDAE"></path>
            <path d="M131.881789,314.496982 C131.881789,325.551308 132.533546,336.440644 134,347 C108.744409,343.535211 83,319.1167 83,297.997988 C83,275.229376 104.833866,265 131.881789,265 L131.881789,314.496982 L131.881789,314.496982 Z" id="Shape" fill="#F6CDAE"></path>
            <path d="M496.118211,265 C523.166134,265 545,275.229376 545,297.997988 C545,319.1167 519.255591,343.535211 494,347 C495.466454,336.440644 496.118211,325.551308 496.118211,314.496982 L496.118211,265 L496.118211,265 Z" id="Shape" fill="#F6CDAE"></path>
            <path d="M492.855,348.098378 C483.945,412.771892 448.965,467.024865 396,494.482162 C371.91,507.052973 344.19,514 313.5,514 C282.81,514 255.09,507.052973 231,494.482162 C178.035,467.024865 143.055,412.771892 134.145,348.098378 C132.66,337.512432 132,326.595676 132,315.513514 L132,265.891892 L132,224.540541 L132,208 L495,208 L495,224.540541 L495,265.891892 L495,315.513514 C495,326.595676 494.34,337.512432 492.855,348.098378 L492.855,348.098378 Z" id="Shape" fill="#FFDDC3"></path>
            <path d="M244,338.492049 C244,350.371117 235.044051,360 224.002025,360 C212.955949,360 204,350.371117 204,338.492049 C204,326.628883 212.955949,317 224.002025,317 C235.044051,317 244,326.628883 244,338.492049 L244,338.492049 Z" id="Fill-6" fill="#3B2519"></path>
            <path d="M222,330.497799 C222,334.09448 219.317982,337 216.002032,337 C212.682018,337 210,334.09448 210,330.497799 C210,326.90552 212.682018,324 216.002032,324 C219.317982,324 222,326.90552 222,330.497799 L222,330.497799 Z" id="Fill-7" fill="#FFFFFF"></path>
            <path d="M189.033184,283.851022 C198.849828,288.337958 214.635596,268.603888 250.778691,285.771799 C257.3582,288.891142 261.289908,259 222.562157,259 C189.033184,259 183.080897,281.135042 189.033184,283.851022 L189.033184,283.851022 Z" id="Fill-8" fill="#431C4C"></path>
            <path d="M427,338.492049 C427,350.371117 418.044051,360 407.002025,360 C395.955949,360 387,350.371117 387,338.492049 C387,326.628883 395.955949,317 407.002025,317 C418.044051,317 427,326.628883 427,338.492049 L427,338.492049 Z" id="Fill-9" fill="#3B2519"></path>
            <path d="M404,330.497799 C404,334.09448 401.317982,337 397.997968,337 C394.682018,337 392,334.09448 392,330.497799 C392,326.90552 394.682018,324 397.997968,324 C401.317982,324 404,326.90552 404,330.497799 L404,330.497799 Z" id="Fill-10" fill="#FFFFFF"></path>
            <path d="M438.973326,283.851022 C429.155568,288.337958 413.368006,268.603888 377.220805,285.771799 C370.640549,288.891142 366.712604,259 405.440545,259 C438.973326,259 444.909449,281.135042 438.973326,283.851022 L438.973326,283.851022 Z" id="Fill-11" fill="#431C4C"></path>
            <path d="M347.973326,449.851022 C338.155568,454.337958 322.368006,434.603888 286.220805,451.771799 C279.640549,454.891142 275.712604,425 314.440545,425 C347.973326,425 353.909449,447.135042 347.973326,449.851022 L347.973326,449.851022 Z" id="Fill-11备份" fill="#ED9292" transform="translate(316.000000, 438.500000) scale(1, -1) translate(-316.000000, -438.500000) "></path>
        </g>
    </g>
</svg>