<?xml version="1.0" encoding="UTF-8"?>
<svg width="1024px" height="1024px" viewBox="0 0 1024 1024" version="1.1" xmlns="http://www.w3.org/2000/svg" xmlns:xlink="http://www.w3.org/1999/xlink">
    <!-- Generator: Sketch 64 (93537) - https://sketch.com -->
    <title>面性乖乖女</title>
    <desc>Created with Sketch.</desc>
    <g id="面性乖乖女" stroke="none" stroke-width="1" fill="none" fill-rule="evenodd">
        <g id="girl-5" transform="translate(229.000000, 111.000000)">
            <path d="M284,261 L284,778 L521.052557,778 C521.052557,778 566.095838,544.416018 564.979591,403.767899 C563.88793,263.114861 284,261 284,261 L284,261 Z" id="Fill-1" fill="#8C4F27"></path>
            <path d="M283,261 L283,778 L45.9466736,778 C45.9466736,778 0.904181254,544.416018 2.02040896,403.767899 C3.11696745,263.114861 283,261 283,261 L283,261 Z" id="Fill-2" fill="#8C4F27"></path>
            <polygon id="Fill-3" fill="#F6CDAE" points="227 734 342 734 342 604 227 604"></polygon>
            <path d="M115,403.509853 C115,439.129698 89.4817639,468 57.9925487,468 C26.5182361,468 1,439.129698 1,403.509853 C1,367.885082 26.5182361,339 57.9925487,339 C89.4817639,339 115,367.885082 115,403.509853 L115,403.509853 Z" id="Fill-5" fill="#FCBC85"></path>
            <path d="M566,403.509853 C566,439.129698 540.477315,468 509.002484,468 C477.522685,468 452,439.129698 452,403.509853 C452,367.885082 477.522685,339 509.002484,339 C540.477315,339 566,367.885082 566,403.509853 L566,403.509853 Z" id="Fill-6" fill="#FCBC85"></path>
            <path d="M508.771524,281.281621 C508.771524,186.411998 439.250244,117 283.992622,117 C128.730072,117 59.2285004,186.411998 59.2285004,281.281621 C59.2285004,376.131566 43.0035836,626 283.992622,626 C524.996441,626 508.771524,376.131566 508.771524,281.281621 L508.771524,281.281621 Z" id="Fill-7" fill="#FFDDC3"></path>
            <path d="M199,388.990015 C199,403.907914 188.257212,416 175.012147,416 C161.742788,416 151,403.907914 151,388.990015 C151,374.072115 161.742788,362 175.012147,362 C188.257212,362 199,374.072115 199,388.990015 L199,388.990015 Z" id="Fill-8" fill="#3B2519"></path>
            <path d="M170,376.49746 C170,380.647477 166.627159,384 162.49746,384 C158.352523,384 155,380.647477 155,376.49746 C155,372.352523 158.352523,369 162.49746,369 C166.627159,369 170,372.352523 170,376.49746 L170,376.49746 Z" id="Fill-9" fill="#FFFFFF"></path>
            <path d="M134.413721,329.930268 C146.126498,334.249602 164.929114,315.247432 207.959529,331.780721 C215.816515,334.781063 220.494606,306 174.350478,306 C134.413721,306 127.343937,327.326106 134.413721,329.930268 L134.413721,329.930268 Z" id="Fill-10" fill="#B1622E"></path>
            <path d="M420,388.990015 C420,403.907914 409.252861,416 396.00243,416 C382.747139,416 372,403.907914 372,388.990015 C372,374.072115 382.747139,362 396.00243,362 C409.252861,362 420,374.072115 420,388.990015 L420,388.990015 Z" id="Fill-11" fill="#3B2519"></path>
            <path d="M393,376.49746 C393,380.647477 389.627159,384 385.49746,384 C381.352523,384 378,380.647477 378,376.49746 C378,372.352523 381.352523,369 385.49746,369 C389.627159,369 393,372.352523 393,376.49746 L393,376.49746 Z" id="Fill-12" fill="#FFFFFF"></path>
            <path d="M432.585874,329.930268 C420.871132,334.249602 402.06536,315.247432 359.027723,331.780721 C351.189478,334.781063 346.510602,306 392.642414,306 C432.585874,306 439.656844,327.326106 432.585874,329.930268 L432.585874,329.930268 Z" id="Fill-13" fill="#B1622E"></path>
            <path d="M284.492614,517.255183 C260.467353,517.255183 246,498.349243 246,507.501625 C246,516.628095 252.943148,534 284.492614,534 C316.056852,534 323,516.628095 323,507.501625 C323,498.349243 308.51295,517.255183 284.492614,517.255183 L284.492614,517.255183 Z" id="Fill-14" fill="#FA6400"></path>
            <path d="M30,803 C30,744.310922 150.615104,658 284,658 L287.997235,658.025779 C419.772688,659.723456 538,744.897813 538,803 L538,803 L30,803 Z" id="形状结合" fill="#FA6400"></path>
            <path d="M326.747731,659 C328.438753,659.233476 330.149669,659.352698 331.820797,659.601076 C332.556889,659.700428 333.317849,659.854423 334.073835,659.973644 C349.850074,662.492204 365.238374,666.044018 380,670.529736 L284,801.633 L284,803 L283.5,802.316 L283,803 L283,801.633 L187,670.529736 C201.164898,666.230923 215.887034,662.78981 230.956302,660.293839 L232.923811,659.973644 C233.679758,659.854423 234.440679,659.700428 235.196626,659.601076 C236.867668,659.352698 238.578497,659.233476 240.249539,659 L240.249539,659 L283.5,728.615 L326.747731,659 Z" id="形状结合" fill="#F7B500"></path>
            <path d="M283.492914,0 C21.5605695,0 -9.13004505,184.960897 1.86574121,403.131509 C12.8565988,621.297202 198.316232,729 198.316232,729 C198.316232,729 -9.49476409,432.129741 163.372205,171.814769 C163.372205,171.814769 130.91221,227.528372 132.666804,274.213853 C132.666804,274.213853 173.387192,260.314972 283.492914,260.314972 C393.593707,260.314972 434.314095,274.213853 434.314095,274.213853 C436.083476,227.528372 403.628409,171.814769 403.628409,171.814769 C576.495378,432.129741 368.684382,729 368.684382,729 C368.684382,729 554.124301,621.297202 565.134873,403.131509 C576.130659,184.960897 545.42033,0 283.492914,0 L283.492914,0 Z" id="Fill-24" fill="#B1622E"></path>
            <path d="M227,661.745248 L284.502445,758 L342,661.725527 C342,661.725527 282.340846,639.82995 227,661.745248 L227,661.745248 Z" id="Fill-26" fill="#F6CDAE"></path>
        </g>
    </g>
</svg>